Amiamie-BlackItalic.ufo
<glyph name="quotedbl" format="2">
	<advance width="410"/>
	<unicode hex="0022"/>
	<note>
		quotedbl
	</note>
	<outline>
		<contour>
			<point x="82" y="439" type="line"/>
			<point x="200" y="439" type="line"/>
			<point x="279" y="735" type="line"/>
			<point x="129" y="735" type="line"/>
		</contour>
		<contour>
			<point x="272" y="439" type="line"/>
			<point x="390" y="439" type="line"/>
			<point x="469" y="735" type="line"/>
			<point x="319" y="735" type="line"/>
		</contour>
	</outline>
</glyph>
<glyph name="numbersign" format="2">
	<advance width="662"/>
	<unicode hex="0023"/>
	<note>
		numbersign
	</note>
	<outline>
		<contour>
			<point x="473" y="297" type="line"/>
			<point x="514" y="393" type="line"/>
			<point x="618" y="393" type="line"/>
			<point x="639" y="489" type="line"/>
			<point x="555" y="489" type="line"/>
			<point x="640" y="690" type="line"/>
			<point x="538" y="690" type="line"/>
			<point x="453" y="489" type="line"/>
			<point x="366" y="489" type="line"/>
			<point x="451" y="690" type="line"/>
			<point x="349" y="690" type="line"/>
			<point x="264" y="489" type="line"/>
			<point x="149" y="489" type="line"/>
			<point x="128" y="393" type="line"/>
			<point x="223" y="393" type="line"/>
			<point x="182" y="297" type="line"/>
			<point x="78" y="297" type="line"/>
			<point x="57" y="201" type="line"/>
			<point x="141" y="201" type="line"/>
			<point x="56" y="0" type="line"/>
			<point x="158" y="0" type="line"/>
			<point x="243" y="201" type="line"/>
			<point x="330" y="201" type="line"/>
			<point x="245" y="0" type="line"/>
			<point x="347" y="0" type="line"/>
			<point x="432" y="201" type="line"/>
			<point x="547" y="201" type="line"/>
			<point x="568" y="297" type="line"/>
		</contour>
		<contour>
			<point x="324" y="393" type="line"/>
			<point x="411" y="393" type="line"/>
			<point x="371" y="297" type="line"/>
			<point x="284" y="297" type="line"/>
		</contour>
	</outline>
</glyph>
<glyph name="ampersand" format="2">
	<advance width="688"/>
	<unicode hex="0026"/>
	<note>
		ampersand
	</note>
	<outline>
		<contour>
			<point x="695" y="280" type="line"/>
			<point x="725" y="420" type="line"/>
			<point x="633" y="420" type="line"/>
			<point x="649" y="497" type="line"/>
			<point x="469" y="497" type="line"/>
			<point x="453" y="420" type="line"/>
			<point x="436" y="420" type="line" smooth="yes"/>
			<point x="420" y="420"/>
			<point x="398" y="420"/>
			<point x="380" y="421" type="curve" smooth="yes"/>
			<point x="340" y="423"/>
			<point x="313" y="447"/>
			<point x="324" y="498" type="curve" smooth="yes"/>
			<point x="334" y="549"/>
			<point x="367" y="572"/>
			<point x="426" y="572" type="curve" smooth="yes"/>
			<point x="457" y="572"/>
			<point x="480" y="571"/>
			<point x="520" y="565" type="curve"/>
			<point x="547" y="694" type="line"/>
			<point x="521" y="701"/>
			<point x="488" y="704"/>
			<point x="449" y="704" type="curve" smooth="yes"/>
			<point x="276" y="704"/>
			<point x="165" y="636"/>
			<point x="138" y="508" type="curve" smooth="yes"/>
			<point x="122" y="435"/>
			<point x="160" y="375"/>
			<point x="231" y="353" type="curve"/>
			<point x="126" y="337"/>
			<point x="47" y="278"/>
			<point x="26" y="178" type="curve" smooth="yes"/>
			<point x="-6" y="32"/>
			<point x="107" y="-14"/>
			<point x="268" y="-14" type="curve" smooth="yes"/>
			<point x="375" y="-14"/>
			<point x="467" y="-3"/>
			<point x="546" y="13" type="curve"/>
			<point x="603" y="280" type="line"/>
		</contour>
		<contour>
			<point x="218" y="200" type="curve" smooth="yes"/>
			<point x="229" y="250"/>
			<point x="272" y="276"/>
			<point x="339" y="279" type="curve" smooth="yes"/>
			<point x="359" y="280"/>
			<point x="368" y="280"/>
			<point x="390" y="280" type="curve" smooth="yes"/>
			<point x="423" y="280" type="line"/>
			<point x="390" y="125" type="line"/>
			<point x="351" y="119"/>
			<point x="330" y="118"/>
			<point x="301" y="118" type="curve" smooth="yes"/>
			<point x="243" y="118"/>
			<point x="204" y="135"/>
		</contour>
	</outline>
</glyph>
<glyph name="parenleft" format="2">
	<advance width="403"/>
	<unicode hex="0028"/>
	<note>
		parenleft
	</note>
	<outline>
		<contour>
			<point x="473" y="780" type="curve"/>
			<point x="384" y="780" type="line"/>
			<point x="261" y="674"/>
			<point x="177" y="538"/>
			<point x="137" y="350" type="curve" smooth="yes"/>
			<point x="97" y="162"/>
			<point x="123" y="26"/>
			<point x="202" y="-80" type="curve"/>
			<point x="291" y="-80" type="line"/>
			<point x="228" y="48"/>
			<point x="209" y="180"/>
			<point x="245" y="350" type="curve" smooth="yes"/>
			<point x="281" y="520"/>
			<point x="356" y="652"/>
		</contour>
	</outline>
</glyph>
<glyph name="parenright" format="2">
	<advance width="400"/>
	<unicode hex="0029"/>
	<note>
		parenright
	</note>
	<outline>
		<contour>
			<point x="234" y="780" type="curve"/>
			<point x="145" y="780" type="line"/>
			<point x="208" y="652"/>
			<point x="227" y="520"/>
			<point x="191" y="350" type="curve" smooth="yes"/>
			<point x="155" y="180"/>
			<point x="80" y="48"/>
			<point x="-37" y="-80" type="curve"/>
			<point x="52" y="-80" type="line"/>
			<point x="175" y="26"/>
			<point x="259" y="162"/>
			<point x="299" y="350" type="curve" smooth="yes"/>
			<point x="339" y="538"/>
			<point x="313" y="674"/>
		</contour>
	</outline>
</glyph>
<glyph name="asterisk" format="2">
	<advance width="630"/>
	<unicode hex="002A"/>
	<note>
		asterisk
	</note>
	<outline>
		<contour>
			<point x="508" y="386" type="line"/>
			<point x="373" y="331" type="line"/>
			<point x="418" y="475" type="line"/>
			<point x="302" y="475" type="line"/>
			<point x="285" y="331" type="line"/>
			<point x="174" y="386" type="line"/>
			<point x="115" y="275" type="line"/>
			<point x="242" y="246" type="line"/>
			<point x="119" y="134" type="line"/>
			<point x="199" y="66" type="line"/>
			<point x="299" y="191" type="line"/>
			<point x="347" y="66" type="line"/>
			<point x="455" y="134" type="line"/>
			<point x="380" y="246" type="line"/>
			<point x="519" y="275" type="line"/>
		</contour>
	</outline>
</glyph>
<glyph name="hyphen" format="2">
	<advance width="314"/>
	<unicode hex="002D"/>
	<note>
		hyphen
	</note>
	<outline>
		<contour>
			<point x="26" y="235" type="line"/>
			<point x="276" y="235" type="line"/>
			<point x="296" y="331" type="line"/>
			<point x="46" y="331" type="line"/>
		</contour>
	</outline>
</glyph>
<glyph name="slash" format="2">
	<advance width="346"/>
	<unicode hex="002F"/>
	<note>
		slash
	</note>
	<outline>
		<contour>
			<point x="-68" y="-30" type="line"/>
			<point x="37" y="-30" type="line"/>
			<point x="448" y="720" type="line"/>
			<point x="343" y="720" type="line"/>
		</contour>
	</outline>
</glyph>
<glyph name="three" format="2">
	<advance width="662"/>
	<unicode hex="0033"/>
	<note>
		three
	</note>
	<outline>
		<contour>
			<point x="481" y="363" type="curve"/>
			<point x="576" y="385"/>
			<point x="628" y="439"/>
			<point x="645" y="520" type="curve" smooth="yes"/>
			<point x="666" y="618"/>
			<point x="606" y="704"/>
			<point x="437" y="704" type="curve" smooth="yes"/>
			<point x="258" y="704"/>
			<point x="150" y="600"/>
			<point x="114" y="484" type="curve" smooth="yes"/>
			<point x="110" y="474" type="line"/>
			<point x="290" y="474" type="line"/>
			<point x="294" y="484" type="line" smooth="yes"/>
			<point x="307" y="529"/>
			<point x="338" y="572"/>
			<point x="391" y="572" type="curve" smooth="yes"/>
			<point x="441" y="572"/>
			<point x="462" y="544"/>
			<point x="453" y="499" type="curve" smooth="yes"/>
			<point x="443" y="452"/>
			<point x="402" y="416"/>
			<point x="335" y="411" type="curve" smooth="yes"/>
			<point x="308" y="409" type="line"/>
			<point x="283" y="293" type="line"/>
			<point x="310" y="292" type="line" smooth="yes"/>
			<point x="381" y="289"/>
			<point x="418" y="259"/>
			<point x="405" y="200" type="curve" smooth="yes"/>
			<point x="395" y="153"/>
			<point x="349" y="118"/>
			<point x="287" y="118" type="curve" smooth="yes"/>
			<point x="228" y="118"/>
			<point x="203" y="161"/>
			<point x="203" y="209" type="curve" smooth="yes"/>
			<point x="203" y="219" type="line"/>
			<point x="23" y="219" type="line"/>
			<point x="22" y="209" type="line" smooth="yes"/>
			<point x="7" y="71"/>
			<point x="91" y="-14"/>
			<point x="266" y="-14" type="curve" smooth="yes"/>
			<point x="440" y="-14"/>
			<point x="566" y="73"/>
			<point x="594" y="205" type="curve" smooth="yes"/>
			<point x="613" y="294"/>
			<point x="575" y="344"/>
		</contour>
	</outline>
</glyph>
<glyph name="four" format="2">
	<advance width="662"/>
	<unicode hex="0034"/>
	<note>
		four
	</note>
	<outline>
		<contour>
			<point x="518" y="154" type="line"/>
			<point x="602" y="154" type="line"/>
			<point x="632" y="294" type="line"/>
			<point x="548" y="294" type="line"/>
			<point x="632" y="690" type="line"/>
			<point x="436" y="690" type="line"/>
			<point x="35" y="253" type="line"/>
			<point x="14" y="154" type="line"/>
			<point x="338" y="154" type="line"/>
			<point x="306" y="0" type="line"/>
			<point x="486" y="0" type="line"/>
		</contour>
		<contour>
			<point x="412" y="500" type="curve"/>
			<point x="368" y="294" type="line"/>
			<point x="229" y="294" type="line"/>
			<point x="362" y="439" type="line" smooth="yes"/>
			<point x="376" y="454"/>
			<point x="393" y="475"/>
		</contour>
	</outline>
</glyph>
<glyph name="five" format="2">
	<advance width="662"/>
	<unicode hex="0035"/>
	<note>
		five
	</note>
	<outline>
		<contour>
			<point x="423" y="470" type="curve" smooth="yes"/>
			<point x="385" y="470"/>
			<point x="346" y="463"/>
			<point x="310" y="445" type="curve"/>
			<point x="274" y="399" type="line"/>
			<point x="329" y="550" type="line"/>
			<point x="641" y="550" type="line"/>
			<point x="670" y="690" type="line"/>
			<point x="210" y="690" type="line"/>
			<point x="71" y="276" type="line"/>
			<point x="237" y="276" type="line"/>
			<point x="262" y="318"/>
			<point x="293" y="338"/>
			<point x="339" y="338" type="curve" smooth="yes"/>
			<point x="401" y="338"/>
			<point x="425" y="291"/>
			<point x="411" y="228" type="curve" smooth="yes"/>
			<point x="398" y="166"/>
			<point x="356" y="118"/>
			<point x="289" y="118" type="curve" smooth="yes"/>
			<point x="240" y="118"/>
			<point x="218" y="147"/>
			<point x="223" y="194" type="curve" smooth="yes"/>
			<point x="224" y="204" type="line"/>
			<point x="44" y="204" type="line"/>
			<point x="43" y="194" type="line" smooth="yes"/>
			<point x="27" y="47"/>
			<point x="107" y="-14"/>
			<point x="273" y="-14" type="curve" smooth="yes"/>
			<point x="415" y="-14"/>
			<point x="566" y="71"/>
			<point x="600" y="233" type="curve" smooth="yes"/>
			<point x="632" y="384"/>
			<point x="561" y="470"/>
		</contour>
	</outline>
</glyph>
<glyph name="six" format="2">
	<advance width="662"/>
	<unicode hex="0036"/>
	<note>
		six
	</note>
	<outline>
		<contour>
			<point x="430" y="462" type="curve" smooth="yes"/>
			<point x="382" y="462"/>
			<point x="344" y="455"/>
			<point x="301" y="426" type="curve"/>
			<point x="256" y="364" type="line"/>
			<point x="292" y="508"/>
			<point x="341" y="572"/>
			<point x="408" y="572" type="curve" smooth="yes"/>
			<point x="450" y="572"/>
			<point x="471" y="552"/>
			<point x="475" y="504" type="curve" smooth="yes"/>
			<point x="475" y="494" type="line"/>
			<point x="655" y="494" type="line"/>
			<point x="656" y="504" type="line" smooth="yes"/>
			<point x="666" y="627"/>
			<point x="600" y="704"/>
			<point x="446" y="704" type="curve" smooth="yes"/>
			<point x="266" y="704"/>
			<point x="119" y="570"/>
			<point x="68" y="332" type="curve" smooth="yes"/>
			<point x="17" y="93"/>
			<point x="89" y="-14"/>
			<point x="277" y="-14" type="curve" smooth="yes"/>
			<point x="421" y="-14"/>
			<point x="572" y="73"/>
			<point x="608" y="243" type="curve" smooth="yes"/>
			<point x="633" y="361"/>
			<point x="587" y="462"/>
		</contour>
		<contour>
			<point x="303" y="118" type="curve" smooth="yes"/>
			<point x="246" y="118"/>
			<point x="220" y="160"/>
			<point x="233" y="225" type="curve" smooth="yes"/>
			<point x="248" y="292"/>
			<point x="297" y="330"/>
			<point x="346" y="330" type="curve" smooth="yes"/>
			<point x="405" y="330"/>
			<point x="430" y="288"/>
			<point x="416" y="221" type="curve" smooth="yes"/>
			<point x="404" y="167"/>
			<point x="364" y="118"/>
		</contour>
	</outline>
</glyph>
<glyph name="colon" format="2">
	<advance width="266"/>
	<unicode hex="003A"/>
	<note>
		colon
	</note>
	<outline>
		<contour>
			<point x="100" y="549" type="line"/>
			<point x="57" y="347" type="line"/>
			<point x="257" y="347" type="line"/>
			<point x="300" y="549" type="line"/>
		</contour>
		<contour>
			<point x="23" y="187" type="line"/>
			<point x="-20" y="-15" type="line"/>
			<point x="180" y="-15" type="line"/>
			<point x="223" y="187" type="line"/>
		</contour>
	</outline>
</glyph>
<glyph name="less" format="2">
	<advance width="662"/>
	<unicode hex="003C"/>
	<note>
		less
	</note>
	<outline>
		<contour>
			<point x="223" y="266" type="line"/>
			<point x="605" y="392" type="line"/>
			<point x="630" y="510" type="line"/>
			<point x="121" y="333" type="line"/>
			<point x="93" y="197" type="line"/>
			<point x="526" y="20" type="line"/>
			<point x="551" y="139" type="line"/>
		</contour>
	</outline>
</glyph>
<glyph name="at" format="2">
	<advance width="930"/>
	<unicode hex="0040"/>
	<note>
		at
	</note>
	<outline>
		<contour>
			<point x="686" y="339" type="curve" smooth="yes"/>
			<point x="746" y="472" type="line"/>
			<point x="595" y="472" type="line"/>
			<point x="562" y="409" type="line"/>
			<point x="556" y="462" type="line"/>
			<point x="548" y="477"/>
			<point x="524" y="490"/>
			<point x="485" y="490" type="curve" smooth="yes"/>
			<point x="373" y="490"/>
			<point x="273" y="386"/>
			<point x="242" y="243" type="curve" smooth="yes"/>
			<point x="215" y="113"/>
			<point x="271" y="74"/>
			<point x="341" y="74" type="curve" smooth="yes"/>
			<point x="370" y="74"/>
			<point x="402" y="81"/>
			<point x="436" y="104" type="curve"/>
			<point x="480" y="167" type="line"/>
			<point x="488" y="101"/>
			<point x="533" y="68"/>
			<point x="611" y="68" type="curve" smooth="yes"/>
			<point x="741" y="68"/>
			<point x="865" y="144"/>
			<point x="909" y="352" type="curve" smooth="yes"/>
			<point x="947" y="530"/>
			<point x="852" y="702"/>
			<point x="597" y="702" type="curve" smooth="yes"/>
			<point x="337" y="702"/>
			<point x="97" y="512"/>
			<point x="41" y="251" type="curve" smooth="yes"/>
			<point x="-19" y="-31"/>
			<point x="175" y="-134"/>
			<point x="354" y="-134" type="curve" smooth="yes"/>
			<point x="441" y="-134"/>
			<point x="548" y="-112"/>
			<point x="645" y="-57" type="curve"/>
			<point x="625" y="27" type="line"/>
			<point x="555" y="-17"/>
			<point x="475" y="-38"/>
			<point x="389" y="-38" type="curve" smooth="yes"/>
			<point x="190" y="-38"/>
			<point x="112" y="79"/>
			<point x="151" y="258" type="curve" smooth="yes"/>
			<point x="197" y="478"/>
			<point x="396" y="606"/>
			<point x="572" y="606" type="curve" smooth="yes"/>
			<point x="748" y="606"/>
			<point x="834" y="507"/>
			<point x="799" y="342" type="curve" smooth="yes"/>
			<point x="775" y="226"/>
			<point x="721" y="164"/>
			<point x="671" y="164" type="curve" smooth="yes"/>
			<point x="643" y="164"/>
			<point x="635" y="189"/>
			<point x="643" y="229" type="curve" smooth="yes"/>
			<point x="647" y="248"/>
			<point x="653" y="267"/>
		</contour>
		<contour>
			<point x="430" y="196" type="curve" smooth="yes"/>
			<point x="409" y="196"/>
			<point x="400" y="212"/>
			<point x="409" y="255" type="curve" smooth="yes"/>
			<point x="423" y="322"/>
			<point x="464" y="368"/>
			<point x="501" y="368" type="curve" smooth="yes"/>
			<point x="526" y="368"/>
			<point x="529" y="347"/>
			<point x="517" y="319" type="curve" smooth="yes"/>
			<point x="486" y="248" type="line" smooth="yes"/>
			<point x="473" y="219"/>
			<point x="455" y="196"/>
		</contour>
	</outline>
</glyph>
<glyph name="A" format="2">
	<advance width="707"/>
	<unicode hex="0041"/>
	<note>
		A
	</note>
	<outline>
		<contour>
			<point x="235" y="179" type="line"/>
			<point x="450" y="179" type="line"/>
			<point x="470" y="0" type="line"/>
			<point x="666" y="0" type="line"/>
			<point x="563" y="690" type="line"/>
			<point x="343" y="690" type="line"/>
			<point x="-52" y="0" type="line"/>
			<point x="139" y="0" type="line"/>
		</contour>
		<contour>
			<point x="308" y="319" type="line"/>
			<point x="418" y="531" type="line"/>
			<point x="436" y="319" type="line"/>
		</contour>
	</outline>
</glyph>
<glyph name="I" format="2">
	<advance width="314"/>
	<unicode hex="0049"/>
	<note>
		I
	</note>
	<outline>
		<contour>
			<point x="24" y="0" type="line"/>
			<point x="204" y="0" type="line"/>
			<point x="350" y="690" type="line"/>
			<point x="170" y="690" type="line"/>
		</contour>
	</outline>
</glyph>
<glyph name="P" format="2">
	<advance width="644"/>
	<unicode hex="0050"/>
	<note>
		P
	</note>
	<outline>
		<contour>
			<point x="537" y="685" type="curve" smooth="yes"/>
			<point x="501" y="689"/>
			<point x="473" y="690"/>
			<point x="430" y="690" type="curve" smooth="yes"/>
			<point x="170" y="690" type="line"/>
			<point x="24" y="0" type="line"/>
			<point x="204" y="0" type="line"/>
			<point x="255" y="242" type="line"/>
			<point x="335" y="242" type="line" smooth="yes"/>
			<point x="378" y="242"/>
			<point x="406" y="243"/>
			<point x="444" y="247" type="curve" smooth="yes"/>
			<point x="547" y="259"/>
			<point x="653" y="330"/>
			<point x="682" y="466" type="curve" smooth="yes"/>
			<point x="711" y="602"/>
			<point x="635" y="673"/>
		</contour>
		<contour>
			<point x="403" y="383" type="curve" smooth="yes"/>
			<point x="390" y="382"/>
			<point x="374" y="382"/>
			<point x="355" y="382" type="curve" smooth="yes"/>
			<point x="285" y="382" type="line"/>
			<point x="321" y="550" type="line"/>
			<point x="391" y="550" type="line" smooth="yes"/>
			<point x="410" y="550"/>
			<point x="426" y="550"/>
			<point x="438" y="549" type="curve" smooth="yes"/>
			<point x="484" y="545"/>
			<point x="505" y="518"/>
			<point x="494" y="466" type="curve" smooth="yes"/>
			<point x="483" y="414"/>
			<point x="450" y="387"/>
		</contour>
	</outline>
</glyph>
<glyph name="X" format="2">
	<advance width="717"/>
	<unicode hex="0058"/>
	<note>
		X
	</note>
	<outline>
		<contour>
			<point x="358" y="233" type="line"/>
			<point x="454" y="0" type="line"/>
			<point x="664" y="0" type="line"/>
			<point x="495" y="351" type="line"/>
			<point x="808" y="690" type="line"/>
			<point x="601" y="690" type="line"/>
			<point x="412" y="460" type="line"/>
			<point x="331" y="690" type="line"/>
			<point x="121" y="690" type="line"/>
			<point x="279" y="348" type="line"/>
			<point x="-42" y="0" type="line"/>
			<point x="175" y="0" type="line"/>
		</contour>
	</outline>
</glyph>
<glyph name="Y" format="2">
	<advance width="663"/>
	<unicode hex="0059"/>
	<note>
		Y
	</note>
	<outline>
		<contour>
			<point x="381" y="0" type="line"/>
			<point x="437" y="264" type="line"/>
			<point x="770" y="690" type="line"/>
			<point x="573" y="690" type="line"/>
			<point x="384" y="417" type="line"/>
			<point x="306" y="690" type="line"/>
			<point x="104" y="690" type="line"/>
			<point x="257" y="264" type="line"/>
			<point x="201" y="0" type="line"/>
		</contour>
	</outline>
</glyph>
<glyph name="Z" format="2">
	<advance width="648"/>
	<unicode hex="005A"/>
	<note>
		Z
	</note>
	<outline>
		<contour>
			<point x="562" y="0" type="line"/>
			<point x="591" y="140" type="line"/>
			<point x="249" y="140" type="line"/>
			<point x="675" y="551" type="line"/>
			<point x="704" y="690" type="line"/>
			<point x="171" y="690" type="line"/>
			<point x="142" y="550" type="line"/>
			<point x="455" y="550" type="line"/>
			<point x="26" y="136" type="line"/>
			<point x="-3" y="0" type="line"/>
		</contour>
	</outline>
</glyph>
<glyph name="bracketright" format="2">
	<advance width="410"/>
	<unicode hex="005D"/>
	<note>
		bracketright
	</note>
	<outline>
		<contour>
			<point x="-45" y="-80" type="line"/>
			<point x="228" y="-80" type="line"/>
			<point x="410" y="780" type="line"/>
			<point x="137" y="780" type="line"/>
			<point x="117" y="684" type="line"/>
			<point x="290" y="684" type="line"/>
			<point x="148" y="16" type="line"/>
			<point x="-25" y="16" type="line"/>
		</contour>
	</outline>
</glyph>
<glyph name="underscore" format="2">
	<advance width="500"/>
	<unicode hex="005F"/>
	<note>
		underscore
	</note>
	<outline>
		<contour>
			<point x="-25" y="-88" type="line"/>
			<point x="375" y="-88" type="line"/>
			<point x="395" y="8" type="line"/>
			<point x="-5" y="8" type="line"/>
		</contour>
	</outline>
</glyph>
<glyph name="grave" format="2">
	<advance width="300"/>
	<unicode hex="0060"/>
	<note>
		grave
	</note>
	<outline>
		<contour>
			<point x="188" y="571" type="line"/>
			<point x="284" y="571" type="line"/>
			<point x="220" y="696" type="line"/>
			<point x="60" y="696" type="line"/>
		</contour>
	</outline>
</glyph>
<glyph name="a" format="2">
	<advance width="587"/>
	<unicode hex="0061"/>
	<note>
		a
	</note>
	<outline>
		<contour>
			<point x="315" y="78" type="line"/>
			<point x="311" y="0" type="line"/>
			<point x="487" y="0" type="line"/>
			<point x="491" y="59"/>
			<point x="497" y="95"/>
			<point x="505" y="135" type="curve" smooth="yes"/>
			<point x="537" y="285" type="line" smooth="yes"/>
			<point x="544" y="318"/>
			<point x="550" y="349"/>
			<point x="554" y="376" type="curve" smooth="yes"/>
			<point x="566" y="473"/>
			<point x="524" y="548"/>
			<point x="355" y="548" type="curve" smooth="yes"/>
			<point x="220" y="548"/>
			<point x="94" y="477"/>
			<point x="66" y="352" type="curve"/>
			<point x="237" y="353" type="line"/>
			<point x="249" y="399"/>
			<point x="279" y="426"/>
			<point x="321" y="426" type="curve" smooth="yes"/>
			<point x="360" y="426"/>
			<point x="377" y="402"/>
			<point x="374" y="375" type="curve" smooth="yes"/>
			<point x="373" y="358"/>
			<point x="370" y="347"/>
			<point x="368" y="336" type="curve" smooth="yes"/>
			<point x="366" y="328" type="line"/>
			<point x="332" y="328" type="line" smooth="yes"/>
			<point x="151" y="328"/>
			<point x="29" y="258"/>
			<point x="4" y="144" type="curve" smooth="yes"/>
			<point x="-18" y="41"/>
			<point x="54" y="-14"/>
			<point x="142" y="-14" type="curve" smooth="yes"/>
			<point x="191" y="-14"/>
			<point x="238" y="-2"/>
			<point x="281" y="22" type="curve"/>
		</contour>
		<contour>
			<point x="242" y="108" type="curve" smooth="yes"/>
			<point x="206" y="108"/>
			<point x="184" y="126"/>
			<point x="191" y="158" type="curve" smooth="yes"/>
			<point x="203" y="211"/>
			<point x="265" y="232"/>
			<point x="345" y="226" type="curve"/>
			<point x="337" y="191" type="line" smooth="yes"/>
			<point x="325" y="135"/>
			<point x="278" y="108"/>
		</contour>
	</outline>
</glyph>
<glyph name="j" format="2">
	<advance width="282"/>
	<unicode hex="006A"/>
	<note>
		j
	</note>
	<outline>
		<contour>
			<point x="179" y="16" type="curve" smooth="yes"/>
			<point x="289" y="534" type="line"/>
			<point x="109" y="534" type="line"/>
			<point x="-1" y="15" type="line" smooth="yes"/>
			<point x="-4" y="0"/>
			<point x="-9" y="-19"/>
			<point x="-13" y="-33" type="curve" smooth="yes"/>
			<point x="-28" y="-80"/>
			<point x="-61" y="-91"/>
			<point x="-124" y="-85" type="curve"/>
			<point x="-150" y="-206" type="line"/>
			<point x="-133" y="-209"/>
			<point x="-112" y="-210"/>
			<point x="-91" y="-210" type="curve" smooth="yes"/>
			<point x="64" y="-210"/>
			<point x="135" y="-148"/>
			<point x="163" y="-48" type="curve" smooth="yes"/>
			<point x="168" y="-30"/>
			<point x="175" y="-4"/>
		</contour>
		<contour>
			<point x="155" y="750" type="line"/>
			<point x="118" y="575" type="line"/>
			<point x="298" y="575" type="line"/>
			<point x="335" y="750" type="line"/>
		</contour>
	</outline>
</glyph>
<glyph name="k" format="2">
	<advance width="632"/>
	<unicode hex="006B"/>
	<note>
		k
	</note>
	<outline>
		<contour>
			<point x="211" y="156" type="line"/>
			<point x="258" y="198" type="line"/>
			<point x="359" y="0" type="line"/>
			<point x="580" y="0" type="line"/>
			<point x="412" y="289" type="line"/>
			<point x="690" y="534" type="line"/>
			<point x="479" y="534" type="line"/>
			<point x="244" y="310" type="line"/>
			<point x="334" y="735" type="line"/>
			<point x="154" y="735" type="line"/>
			<point x="-2" y="0" type="line"/>
			<point x="178" y="0" type="line"/>
		</contour>
	</outline>
</glyph>
<glyph name="r" format="2">
	<advance width="420"/>
	<unicode hex="0072"/>
	<note>
		r
	</note>
	<outline>
		<contour>
			<point x="437" y="548" type="curve" smooth="yes"/>
			<point x="403" y="548"/>
			<point x="358" y="533"/>
			<point x="322" y="501" type="curve"/>
			<point x="268" y="426" type="line"/>
			<point x="291" y="534" type="line"/>
			<point x="111" y="534" type="line"/>
			<point x="-2" y="0" type="line"/>
			<point x="178" y="0" type="line"/>
			<point x="219" y="196" type="line" smooth="yes"/>
			<point x="254" y="357"/>
			<point x="313" y="407"/>
			<point x="446" y="398" type="curve"/>
			<point x="478" y="545" type="line"/>
			<point x="465" y="547"/>
			<point x="454" y="548"/>
		</contour>
	</outline>
</glyph>
<glyph name="v" format="2">
	<advance width="608"/>
	<unicode hex="0076"/>
	<note>
		v
	</note>
	<outline>
		<contour>
			<point x="349" y="0" type="line"/>
			<point x="673" y="534" type="line"/>
			<point x="476" y="534" type="line"/>
			<point x="284" y="143" type="line"/>
			<point x="257" y="534" type="line"/>
			<point x="57" y="534" type="line"/>
			<point x="155" y="0" type="line"/>
		</contour>
	</outline>
</glyph>
<glyph name="z" format="2">
	<advance width="526"/>
	<unicode hex="007A"/>
	<note>
		z
	</note>
	<outline>
		<contour>
			<point x="441" y="0" type="line"/>
			<point x="464" y="112" type="line"/>
			<point x="194" y="112" type="line"/>
			<point x="527" y="420" type="line"/>
			<point x="550" y="530" type="line"/>
			<point x="105" y="530" type="line"/>
			<point x="82" y="418" type="line"/>
			<point x="337" y="418" type="line"/>
			<point x="0" y="105" type="line"/>
			<point x="-22" y="0" type="line"/>
		</contour>
	</outline>
</glyph>
<glyph name="braceleft" format="2">
	<advance width="430"/>
	<unicode hex="007B"/>
	<note>
		braceleft
	</note>
	<outline>
		<contour>
			<point x="427" y="684" type="curve" smooth="yes"/>
			<point x="449" y="684" type="line"/>
			<point x="469" y="780" type="line"/>
			<point x="418" y="780" type="line" smooth="yes"/>
			<point x="318" y="780"/>
			<point x="276" y="743"/>
			<point x="259" y="664" type="curve" smooth="yes"/>
			<point x="252" y="630"/>
			<point x="249" y="597"/>
			<point x="246" y="545" type="curve" smooth="yes"/>
			<point x="243" y="505"/>
			<point x="240" y="478"/>
			<point x="235" y="455" type="curve" smooth="yes"/>
			<point x="230" y="429"/>
			<point x="211" y="402"/>
			<point x="141" y="398" type="curve"/>
			<point x="121" y="302" type="line"/>
			<point x="189" y="298"/>
			<point x="196" y="271"/>
			<point x="191" y="245" type="curve" smooth="yes"/>
			<point x="186" y="222"/>
			<point x="177" y="195"/>
			<point x="163" y="155" type="curve" smooth="yes"/>
			<point x="144" y="103"/>
			<point x="133" y="70"/>
			<point x="125" y="36" type="curve" smooth="yes"/>
			<point x="109" y="-43"/>
			<point x="136" y="-80"/>
			<point x="236" y="-80" type="curve" smooth="yes"/>
			<point x="287" y="-80" type="line"/>
			<point x="307" y="16" type="line"/>
			<point x="285" y="16" type="line" smooth="yes"/>
			<point x="236" y="16"/>
			<point x="222" y="21"/>
			<point x="230" y="56" type="curve" smooth="yes"/>
			<point x="233" y="70"/>
			<point x="239" y="91"/>
			<point x="258" y="145" type="curve" smooth="yes"/>
			<point x="275" y="190"/>
			<point x="288" y="232"/>
			<point x="291" y="248" type="curve" smooth="yes"/>
			<point x="303" y="303"/>
			<point x="284" y="339"/>
			<point x="229" y="353" type="curve"/>
			<point x="289" y="365"/>
			<point x="323" y="397"/>
			<point x="335" y="452" type="curve" smooth="yes"/>
			<point x="338" y="468"/>
			<point x="343" y="510"/>
			<point x="346" y="555" type="curve" smooth="yes"/>
			<point x="349" y="609"/>
			<point x="352" y="630"/>
			<point x="355" y="644" type="curve" smooth="yes"/>
			<point x="362" y="679"/>
			<point x="378" y="684"/>
		</contour>
	</outline>
</glyph>
<glyph name="sterling" format="2">
	<advance width="662"/>
	<unicode hex="00A3"/>
	<note>
		sterling
	</note>
	<outline>
		<contour>
			<point x="544" y="0" type="line"/>
			<point x="573" y="140" type="line"/>
			<point x="241" y="140" type="line"/>
			<point x="296" y="164"/>
			<point x="331" y="206"/>
			<point x="341" y="251" type="curve" smooth="yes"/>
			<point x="344" y="265"/>
			<point x="345" y="276"/>
			<point x="346" y="289" type="curve"/>
			<point x="510" y="289" type="line"/>
			<point x="529" y="377" type="line"/>
			<point x="335" y="377" type="line"/>
			<point x="324" y="434"/>
			<point x="324" y="462"/>
			<point x="332" y="500" type="curve" smooth="yes"/>
			<point x="341" y="541"/>
			<point x="372" y="572"/>
			<point x="409" y="572" type="curve" smooth="yes"/>
			<point x="453" y="572"/>
			<point x="468" y="537"/>
			<point x="461" y="493" type="curve"/>
			<point x="641" y="493" type="line"/>
			<point x="657" y="602"/>
			<point x="606" y="704"/>
			<point x="437" y="704" type="curve" smooth="yes"/>
			<point x="288" y="704"/>
			<point x="170" y="624"/>
			<point x="141" y="488" type="curve" smooth="yes"/>
			<point x="132" y="444"/>
			<point x="133" y="415"/>
			<point x="140" y="377" type="curve"/>
			<point x="95" y="377" type="line"/>
			<point x="76" y="289" type="line"/>
			<point x="158" y="289" type="line"/>
			<point x="160" y="266"/>
			<point x="158" y="247"/>
			<point x="155" y="230" type="curve" smooth="yes"/>
			<point x="143" y="177"/>
			<point x="109" y="137"/>
			<point x="32" y="124" type="curve"/>
			<point x="6" y="0" type="line"/>
		</contour>
	</outline>
</glyph>
<glyph name="currency" format="2">
	<advance width="662"/>
	<unicode hex="00A4"/>
	<note>
		currency
	</note>
	<outline>
		<contour>
			<point x="519" y="301" type="curve" smooth="yes"/>
			<point x="526" y="336"/>
			<point x="523" y="369"/>
			<point x="512" y="396" type="curve"/>
			<point x="575" y="448" type="line"/>
			<point x="530" y="505" type="line"/>
			<point x="467" y="453" type="line"/>
			<point x="444" y="471"/>
			<point x="413" y="481"/>
			<point x="377" y="481" type="curve" smooth="yes"/>
			<point x="341" y="481"/>
			<point x="306" y="471"/>
			<point x="275" y="453" type="curve"/>
			<point x="234" y="505" type="line"/>
			<point x="165" y="448" type="line"/>
			<point x="206" y="396" type="line"/>
			<point x="183" y="369"/>
			<point x="166" y="336"/>
			<point x="159" y="301" type="curve" smooth="yes"/>
			<point x="151" y="266"/>
			<point x="154" y="233"/>
			<point x="165" y="206" type="curve"/>
			<point x="102" y="154" type="line"/>
			<point x="147" y="97" type="line"/>
			<point x="210" y="149" type="line"/>
			<point x="234" y="131"/>
			<point x="264" y="121"/>
			<point x="300" y="121" type="curve" smooth="yes"/>
			<point x="336" y="121"/>
			<point x="372" y="131"/>
			<point x="402" y="149" type="curve"/>
			<point x="443" y="97" type="line"/>
			<point x="512" y="154" type="line"/>
			<point x="471" y="206" type="line"/>
			<point x="494" y="233"/>
			<point x="511" y="266"/>
		</contour>
		<contour>
			<point x="320" y="215" type="curve" smooth="yes"/>
			<point x="274" y="215"/>
			<point x="252" y="249"/>
			<point x="263" y="301" type="curve" smooth="yes"/>
			<point x="274" y="353"/>
			<point x="311" y="387"/>
			<point x="357" y="387" type="curve" smooth="yes"/>
			<point x="403" y="387"/>
			<point x="426" y="353"/>
			<point x="415" y="301" type="curve" smooth="yes"/>
			<point x="404" y="249"/>
			<point x="366" y="215"/>
		</contour>
	</outline>
</glyph>
<glyph name="yen" format="2">
	<advance width="662"/>
	<unicode hex="00A5"/>
	<note>
		yen
	</note>
	<outline>
		<contour>
			<point x="595" y="380" type="line"/>
			<point x="490" y="380" type="line"/>
			<point x="728" y="690" type="line"/>
			<point x="547" y="690" type="line"/>
			<point x="362" y="390" type="line"/>
			<point x="300" y="690" type="line"/>
			<point x="114" y="690" type="line"/>
			<point x="220" y="380" type="line"/>
			<point x="115" y="380" type="line"/>
			<point x="95" y="284" type="line"/>
			<point x="245" y="284" type="line"/>
			<point x="233" y="227" type="line"/>
			<point x="83" y="227" type="line"/>
			<point x="63" y="131" type="line"/>
			<point x="213" y="131" type="line"/>
			<point x="185" y="0" type="line"/>
			<point x="365" y="0" type="line"/>
			<point x="393" y="131" type="line"/>
			<point x="543" y="131" type="line"/>
			<point x="563" y="227" type="line"/>
			<point x="413" y="227" type="line"/>
			<point x="425" y="284" type="line"/>
			<point x="575" y="284" type="line"/>
		</contour>
	</outline>
</glyph>
<glyph name="dieresis" format="2">
	<advance width="300"/>
	<unicode hex="00A8"/>
	<note>
		dieresis
	</note>
	<outline>
		<contour>
			<point x="71" y="716" type="line"/>
			<point x="40" y="569" type="line"/>
			<point x="190" y="569" type="line"/>
			<point x="221" y="716" type="line"/>
		</contour>
		<contour>
			<point x="241" y="569" type="line"/>
			<point x="391" y="569" type="line"/>
			<point x="422" y="716" type="line"/>
			<point x="272" y="716" type="line"/>
		</contour>
	</outline>
</glyph>
<glyph name="copyright" format="2">
	<advance width="860"/>
	<unicode hex="00A9"/>
	<note>
		copyright
	</note>
	<outline>
		<contour>
			<point x="535" y="759" type="curve" smooth="yes"/>
			<point x="293" y="759"/>
			<point x="86" y="592"/>
			<point x="35" y="355" type="curve" smooth="yes"/>
			<point x="-15" y="118"/>
			<point x="121" y="-49"/>
			<point x="363" y="-49" type="curve" smooth="yes"/>
			<point x="605" y="-49"/>
			<point x="813" y="118"/>
			<point x="863" y="355" type="curve" smooth="yes"/>
			<point x="914" y="592"/>
			<point x="777" y="759"/>
		</contour>
		<contour>
			<point x="515" y="663" type="curve" smooth="yes"/>
			<point x="694" y="663"/>
			<point x="793" y="535"/>
			<point x="755" y="355" type="curve" smooth="yes"/>
			<point x="717" y="176"/>
			<point x="563" y="49"/>
			<point x="384" y="49" type="curve" smooth="yes"/>
			<point x="205" y="49"/>
			<point x="105" y="176"/>
			<point x="143" y="355" type="curve" smooth="yes"/>
			<point x="181" y="535"/>
			<point x="336" y="663"/>
		</contour>
		<contour>
			<point x="506" y="582" type="curve" smooth="yes"/>
			<point x="367" y="582"/>
			<point x="257" y="491"/>
			<point x="228" y="355" type="curve" smooth="yes"/>
			<point x="198" y="211"/>
			<point x="270" y="126"/>
			<point x="402" y="126" type="curve" smooth="yes"/>
			<point x="532" y="126"/>
			<point x="619" y="200"/>
			<point x="659" y="314" type="curve"/>
			<point x="512" y="314" type="line"/>
			<point x="496" y="251"/>
			<point x="462" y="228"/>
			<point x="429" y="228" type="curve" smooth="yes"/>
			<point x="382" y="228"/>
			<point x="363" y="266"/>
			<point x="382" y="356" type="curve" smooth="yes"/>
			<point x="399" y="434"/>
			<point x="427" y="480"/>
			<point x="479" y="480" type="curve" smooth="yes"/>
			<point x="523" y="480"/>
			<point x="538" y="448"/>
			<point x="530" y="394" type="curve"/>
			<point x="677" y="394" type="line"/>
			<point x="692" y="507"/>
			<point x="635" y="582"/>
		</contour>
	</outline>
</glyph>
<glyph name="guillemotleft" format="2">
	<advance width="697"/>
	<unicode hex="00AB"/>
	<note>
		guillemotleft
	</note>
	<outline>
		<contour>
			<point x="272" y="248" type="line"/>
			<point x="445" y="414" type="line"/>
			<point x="316" y="414" type="line"/>
			<point x="143" y="248" type="line"/>
			<point x="245" y="82" type="line"/>
			<point x="374" y="82" type="line"/>
		</contour>
		<contour>
			<point x="512" y="248" type="line"/>
			<point x="685" y="414" type="line"/>
			<point x="556" y="414" type="line"/>
			<point x="383" y="248" type="line"/>
			<point x="485" y="82" type="line"/>
			<point x="614" y="82" type="line"/>
		</contour>
	</outline>
</glyph>
<glyph name="logicalnot" format="2">
	<advance width="662"/>
	<unicode hex="00AC"/>
	<note>
		logicalnot
	</note>
	<outline>
		<contour>
			<point x="412" y="172" type="line"/>
			<point x="512" y="172" type="line"/>
			<point x="560" y="398" type="line"/>
			<point x="148" y="398" type="line"/>
			<point x="128" y="302" type="line"/>
			<point x="440" y="302" type="line"/>
		</contour>
	</outline>
</glyph>
<glyph name="degree" format="2">
	<advance width="320"/>
	<unicode hex="00B0"/>
	<note>
		degree
	</note>
	<outline>
		<contour>
			<point x="253" y="704" type="curve" smooth="yes"/>
			<point x="171" y="704"/>
			<point x="101" y="648"/>
			<point x="85" y="569" type="curve" smooth="yes"/>
			<point x="68" y="490"/>
			<point x="114" y="434"/>
			<point x="196" y="434" type="curve" smooth="yes"/>
			<point x="278" y="434"/>
			<point x="348" y="490"/>
			<point x="365" y="569" type="curve" smooth="yes"/>
			<point x="381" y="648"/>
			<point x="335" y="704"/>
		</contour>
		<contour>
			<point x="235" y="616" type="curve" smooth="yes"/>
			<point x="259" y="616"/>
			<point x="277" y="597"/>
			<point x="271" y="569" type="curve" smooth="yes"/>
			<point x="265" y="541"/>
			<point x="239" y="522"/>
			<point x="215" y="522" type="curve" smooth="yes"/>
			<point x="191" y="522"/>
			<point x="173" y="541"/>
			<point x="179" y="569" type="curve" smooth="yes"/>
			<point x="185" y="597"/>
			<point x="211" y="616"/>
		</contour>
	</outline>
</glyph>
<glyph name="plusminus" format="2">
	<advance width="662"/>
	<unicode hex="00B1"/>
	<note>
		plusminus
	</note>
	<outline>
		<contour>
			<point x="552" y="366" type="line"/>
			<point x="402" y="366" type="line"/>
			<point x="433" y="508" type="line"/>
			<point x="333" y="508" type="line"/>
			<point x="302" y="366" type="line"/>
			<point x="152" y="366" type="line"/>
			<point x="132" y="270" type="line"/>
			<point x="282" y="270" type="line"/>
			<point x="251" y="126" type="line"/>
			<point x="351" y="126" type="line"/>
			<point x="382" y="270" type="line"/>
			<point x="532" y="270" type="line"/>
		</contour>
		<contour>
			<point x="75" y="0" type="line"/>
			<point x="475" y="0" type="line"/>
			<point x="493" y="88" type="line"/>
			<point x="93" y="88" type="line"/>
		</contour>
	</outline>
</glyph>
<glyph name="paragraph" format="2">
	<advance width="618"/>
	<unicode hex="00B6"/>
	<note>
		paragraph
	</note>
	<outline>
		<contour>
			<point x="484" y="-110" type="line"/>
			<point x="654" y="690" type="line"/>
			<point x="341" y="690" type="line" smooth="yes"/>
			<point x="323" y="690"/>
			<point x="302" y="690"/>
			<point x="285" y="689" type="curve" smooth="yes"/>
			<point x="182" y="683"/>
			<point x="109" y="600"/>
			<point x="89" y="505" type="curve" smooth="yes"/>
			<point x="69" y="410"/>
			<point x="106" y="327"/>
			<point x="207" y="321" type="curve" smooth="yes"/>
			<point x="224" y="320"/>
			<point x="245" y="320"/>
			<point x="263" y="320" type="curve"/>
			<point x="171" y="-110" type="line"/>
			<point x="271" y="-110" type="line"/>
			<point x="421" y="594" type="line"/>
			<point x="534" y="594" type="line"/>
			<point x="384" y="-110" type="line"/>
		</contour>
	</outline>
</glyph>
<glyph name="periodcentered" format="2">
	<advance width="280"/>
	<unicode hex="00B7"/>
	<note>
		periodcentered
	</note>
	<outline>
		<contour>
			<point x="72" y="405" type="line"/>
			<point x="29" y="203" type="line"/>
			<point x="229" y="203" type="line"/>
			<point x="272" y="405" type="line"/>
		</contour>
	</outline>
</glyph>
<glyph name="cedilla" format="2">
	<advance width="300"/>
	<unicode hex="00B8"/>
	<note>
		cedilla
	</note>
	<outline>
		<contour>
			<point x="104" y="-42" type="curve"/>
			<point x="140" y="9" type="line"/>
			<point x="52" y="9" type="line"/>
			<point x="-16" y="-88" type="line"/>
			<point x="60" y="-83"/>
			<point x="80" y="-94"/>
			<point x="75" y="-114" type="curve" smooth="yes"/>
			<point x="72" y="-132"/>
			<point x="53" y="-141"/>
			<point x="10" y="-141" type="curve" smooth="yes"/>
			<point x="-3" y="-141"/>
			<point x="-23" y="-140"/>
			<point x="-47" y="-134" type="curve"/>
			<point x="-62" y="-204" type="line"/>
			<point x="-44" y="-209"/>
			<point x="-26" y="-210"/>
			<point x="-6" y="-210" type="curve" smooth="yes"/>
			<point x="86" y="-210"/>
			<point x="168" y="-188"/>
			<point x="182" y="-119" type="curve" smooth="yes"/>
			<point x="192" y="-74"/>
			<point x="165" y="-49"/>
		</contour>
	</outline>
</glyph>
<glyph name="guillemotright" format="2">
	<advance width="664"/>
	<unicode hex="00BB"/>
	<note>
		guillemotright
	</note>
	<outline>
		<contour>
			<point x="134" y="82" type="line"/>
			<point x="306" y="248" type="line"/>
			<point x="205" y="414" type="line"/>
			<point x="76" y="414" type="line"/>
			<point x="177" y="248" type="line"/>
			<point x="5" y="82" type="line"/>
		</contour>
		<contour>
			<point x="374" y="82" type="line"/>
			<point x="546" y="248" type="line"/>
			<point x="445" y="414" type="line"/>
			<point x="316" y="414" type="line"/>
			<point x="417" y="248" type="line"/>
			<point x="245" y="82" type="line"/>
		</contour>
	</outline>
</glyph>
<glyph name="questiondown" format="2">
	<advance width="559"/>
	<unicode hex="00BF"/>
	<note>
		questiondown
	</note>
	<outline>
		<contour>
			<point x="201" y="-170" type="curve" smooth="yes"/>
			<point x="362" y="-170"/>
			<point x="481" y="-84"/>
			<point x="515" y="60" type="curve"/>
			<point x="335" y="60" type="line"/>
			<point x="318" y="-7"/>
			<point x="286" y="-38"/>
			<point x="242" y="-38" type="curve" smooth="yes"/>
			<point x="194" y="-38"/>
			<point x="177" y="-12"/>
			<point x="188" y="38" type="curve" smooth="yes"/>
			<point x="195" y="73"/>
			<point x="222" y="104"/>
			<point x="288" y="161" type="curve" smooth="yes"/>
			<point x="341" y="207"/>
			<point x="368" y="243"/>
			<point x="388" y="324" type="curve"/>
			<point x="242" y="324" type="line"/>
			<point x="224" y="271"/>
			<point x="200" y="247"/>
			<point x="141" y="206" type="curve" smooth="yes"/>
			<point x="57" y="148"/>
			<point x="14" y="103"/>
			<point x="-3" y="23" type="curve" smooth="yes"/>
			<point x="-30" y="-100"/>
			<point x="47" y="-170"/>
		</contour>
		<contour>
			<point x="285" y="546" type="line"/>
			<point x="248" y="368" type="line"/>
			<point x="401" y="368" type="line"/>
			<point x="438" y="546" type="line"/>
		</contour>
	</outline>
</glyph>
<glyph name="Agrave" format="2">
	<advance width="707"/>
	<unicode hex="00C0"/>
	<note>
		Agrave
	</note>
	<outline>
		<contour>
			<point x="299" y="860" type="line"/>
			<point x="428" y="735" type="line"/>
			<point x="524" y="735" type="line"/>
			<point x="459" y="860" type="line"/>
		</contour>
		<contour>
			<point x="235" y="179" type="line"/>
			<point x="450" y="179" type="line"/>
			<point x="470" y="0" type="line"/>
			<point x="666" y="0" type="line"/>
			<point x="563" y="690" type="line"/>
			<point x="343" y="690" type="line"/>
			<point x="-52" y="0" type="line"/>
			<point x="139" y="0" type="line"/>
		</contour>
		<contour>
			<point x="308" y="319" type="line"/>
			<point x="418" y="531" type="line"/>
			<point x="436" y="319" type="line"/>
		</contour>
	</outline>
</glyph>
<glyph name="Aacute" format="2">
	<advance width="707"/>
	<unicode hex="00C1"/>
	<note>
		Aacute
	</note>
	<outline>
		<contour>
			<point x="409" y="735" type="line"/>
			<point x="505" y="735" type="line"/>
			<point x="686" y="860" type="line"/>
			<point x="526" y="860" type="line"/>
		</contour>
		<contour>
			<point x="235" y="179" type="line"/>
			<point x="450" y="179" type="line"/>
			<point x="470" y="0" type="line"/>
			<point x="666" y="0" type="line"/>
			<point x="563" y="690" type="line"/>
			<point x="343" y="690" type="line"/>
			<point x="-52" y="0" type="line"/>
			<point x="139" y="0" type="line"/>
		</contour>
		<contour>
			<point x="308" y="319" type="line"/>
			<point x="418" y="531" type="line"/>
			<point x="436" y="319" type="line"/>
		</contour>
	</outline>
</glyph>
<glyph name="Aring" format="2">
	<advance width="707"/>
	<unicode hex="00C5"/>
	<note>
		Aring
	</note>
	<outline>
		<contour>
			<point x="460" y="722" type="curve" smooth="yes"/>
			<point x="530" y="722"/>
			<point x="588" y="765"/>
			<point x="601" y="827" type="curve" smooth="yes"/>
			<point x="615" y="889"/>
			<point x="575" y="932"/>
			<point x="505" y="932" type="curve" smooth="yes"/>
			<point x="435" y="932"/>
			<point x="377" y="889"/>
			<point x="363" y="827" type="curve" smooth="yes"/>
			<point x="350" y="765"/>
			<point x="390" y="722"/>
		</contour>
		<contour>
			<point x="491" y="866" type="curve" smooth="yes"/>
			<point x="512" y="866"/>
			<point x="523" y="850"/>
			<point x="518" y="827" type="curve" smooth="yes"/>
			<point x="514" y="804"/>
			<point x="495" y="788"/>
			<point x="474" y="788" type="curve" smooth="yes"/>
			<point x="453" y="788"/>
			<point x="442" y="804"/>
			<point x="446" y="827" type="curve" smooth="yes"/>
			<point x="451" y="850"/>
			<point x="470" y="866"/>
		</contour>
		<contour>
			<point x="235" y="179" type="line"/>
			<point x="450" y="179" type="line"/>
			<point x="470" y="0" type="line"/>
			<point x="666" y="0" type="line"/>
			<point x="563" y="690" type="line"/>
			<point x="343" y="690" type="line"/>
			<point x="-52" y="0" type="line"/>
			<point x="139" y="0" type="line"/>
		</contour>
		<contour>
			<point x="308" y="319" type="line"/>
			<point x="418" y="531" type="line"/>
			<point x="436" y="319" type="line"/>
		</contour>
	</outline>
</glyph>
<glyph name="Ccedilla" format="2">
	<advance width="734"/>
	<unicode hex="00C7"/>
	<note>
		Ccedilla
	</note>
	<outline>
		<contour>
			<point x="702" y="247" type="line"/>
			<point x="522" y="247" type="line"/>
			<point x="518" y="237" type="line" smooth="yes"/>
			<point x="487" y="161"/>
			<point x="433" y="118"/>
			<point x="363" y="118" type="curve" smooth="yes"/>
			<point x="283" y="118"/>
			<point x="223" y="177"/>
			<point x="260" y="351" type="curve" smooth="yes"/>
			<point x="292" y="500"/>
			<point x="372" y="572"/>
			<point x="458" y="572" type="curve" smooth="yes"/>
			<point x="531" y="572"/>
			<point x="569" y="537"/>
			<point x="568" y="463" type="curve" smooth="yes"/>
			<point x="568" y="453" type="line"/>
			<point x="748" y="453" type="line"/>
			<point x="749" y="463" type="line" smooth="yes"/>
			<point x="764" y="599"/>
			<point x="685" y="704"/>
			<point x="488" y="704" type="curve" smooth="yes"/>
			<point x="301" y="704"/>
			<point x="121" y="580"/>
			<point x="70" y="340" type="curve" smooth="yes"/>
			<point x="26" y="133"/>
			<point x="117" y="15"/>
			<point x="267" y="-9" type="curve"/>
			<point x="212" y="-88" type="line"/>
			<point x="288" y="-83"/>
			<point x="308" y="-94"/>
			<point x="303" y="-114" type="curve" smooth="yes"/>
			<point x="300" y="-132"/>
			<point x="281" y="-141"/>
			<point x="238" y="-141" type="curve" smooth="yes"/>
			<point x="225" y="-141"/>
			<point x="205" y="-140"/>
			<point x="181" y="-134" type="curve"/>
			<point x="166" y="-204" type="line"/>
			<point x="184" y="-209"/>
			<point x="202" y="-210"/>
			<point x="222" y="-210" type="curve" smooth="yes"/>
			<point x="314" y="-210"/>
			<point x="396" y="-188"/>
			<point x="410" y="-119" type="curve" smooth="yes"/>
			<point x="420" y="-74"/>
			<point x="393" y="-49"/>
			<point x="332" y="-42" type="curve"/>
			<point x="352" y="-13" type="line"/>
			<point x="514" y="-6"/>
			<point x="649" y="78"/>
			<point x="699" y="237" type="curve" smooth="yes"/>
		</contour>
	</outline>
</glyph>
<glyph name="Ecircumflex" format="2">
	<advance width="639"/>
	<unicode hex="00CA"/>
	<note>
		Ecircumflex
	</note>
	<outline>
		<contour>
			<point x="304" y="735" type="line"/>
			<point x="407" y="735" type="line"/>
			<point x="455" y="811" type="line"/>
			<point x="473" y="735" type="line"/>
			<point x="577" y="735" type="line"/>
			<point x="541" y="860" type="line"/>
			<point x="392" y="860" type="line"/>
		</contour>
		<contour>
			<point x="553" y="0" type="line"/>
			<point x="582" y="140" type="line"/>
			<point x="233" y="140" type="line"/>
			<point x="262" y="276" type="line"/>
			<point x="581" y="276" type="line"/>
			<point x="611" y="416" type="line"/>
			<point x="292" y="416" type="line"/>
			<point x="321" y="550" type="line"/>
			<point x="660" y="550" type="line"/>
			<point x="689" y="690" type="line"/>
			<point x="170" y="690" type="line"/>
			<point x="24" y="0" type="line"/>
		</contour>
	</outline>
</glyph>
<glyph name="Edieresis" format="2">
	<advance width="639"/>
	<unicode hex="00CB"/>
	<note>
		Edieresis
	</note>
	<outline>
		<contour>
			<point x="553" y="0" type="line"/>
			<point x="582" y="140" type="line"/>
			<point x="233" y="140" type="line"/>
			<point x="262" y="276" type="line"/>
			<point x="581" y="276" type="line"/>
			<point x="611" y="416" type="line"/>
			<point x="292" y="416" type="line"/>
			<point x="321" y="550" type="line"/>
			<point x="660" y="550" type="line"/>
			<point x="689" y="690" type="line"/>
			<point x="170" y="690" type="line"/>
			<point x="24" y="0" type="line"/>
		</contour>
		<contour>
			<point x="292" y="869" type="line"/>
			<point x="261" y="722" type="line"/>
			<point x="411" y="722" type="line"/>
			<point x="442" y="869" type="line"/>
		</contour>
		<contour>
			<point x="493" y="869" type="line"/>
			<point x="462" y="722" type="line"/>
			<point x="612" y="722" type="line"/>
			<point x="643" y="869" type="line"/>
		</contour>
	</outline>
</glyph>
<glyph name="Icircumflex" format="2">
	<advance width="314"/>
	<unicode hex="00CE"/>
	<note>
		Icircumflex
	</note>
	<outline>
		<contour>
			<point x="134" y="735" type="line"/>
			<point x="237" y="735" type="line"/>
			<point x="285" y="811" type="line"/>
			<point x="303" y="735" type="line"/>
			<point x="407" y="735" type="line"/>
			<point x="371" y="860" type="line"/>
			<point x="222" y="860" type="line"/>
		</contour>
		<contour>
			<point x="350" y="690" type="line"/>
			<point x="170" y="690" type="line"/>
			<point x="24" y="0" type="line"/>
			<point x="204" y="0" type="line"/>
		</contour>
	</outline>
</glyph>
<glyph name="Idieresis" format="2">
	<advance width="314"/>
	<unicode hex="00CF"/>
	<note>
		Idieresis
	</note>
	<outline>
		<contour>
			<point x="24" y="0" type="line"/>
			<point x="204" y="0" type="line"/>
			<point x="350" y="690" type="line"/>
			<point x="170" y="690" type="line"/>
		</contour>
		<contour>
			<point x="127" y="868" type="line"/>
			<point x="95" y="721" type="line"/>
			<point x="245" y="721" type="line"/>
			<point x="277" y="868" type="line"/>
		</contour>
		<contour>
			<point x="328" y="868" type="line"/>
			<point x="296" y="721" type="line"/>
			<point x="446" y="721" type="line"/>
			<point x="478" y="868" type="line"/>
		</contour>
	</outline>
</glyph>
<glyph name="Eth" format="2">
	<advance width="759"/>
	<unicode hex="00D0"/>
	<note>
		Eth
	</note>
	<outline>
		<contour>
			<point x="528" y="686" type="curve" smooth="yes"/>
			<point x="494" y="690"/>
			<point x="478" y="690"/>
			<point x="441" y="690" type="curve" smooth="yes"/>
			<point x="180" y="690" type="line"/>
			<point x="116" y="389" type="line"/>
			<point x="57" y="389" type="line"/>
			<point x="37" y="293" type="line"/>
			<point x="96" y="293" type="line"/>
			<point x="34" y="0" type="line"/>
			<point x="295" y="0" type="line" smooth="yes"/>
			<point x="332" y="0"/>
			<point x="348" y="0"/>
			<point x="384" y="4" type="curve" smooth="yes"/>
			<point x="547" y="22"/>
			<point x="704" y="138"/>
			<point x="750" y="354" type="curve" smooth="yes"/>
			<point x="796" y="570"/>
			<point x="685" y="668"/>
		</contour>
		<contour>
			<point x="365" y="142" type="curve" smooth="yes"/>
			<point x="341" y="140"/>
			<point x="325" y="140"/>
			<point x="299" y="140" type="curve" smooth="yes"/>
			<point x="243" y="140" type="line"/>
			<point x="276" y="293" type="line"/>
			<point x="378" y="293" type="line"/>
			<point x="398" y="389" type="line"/>
			<point x="296" y="389" type="line"/>
			<point x="331" y="550" type="line"/>
			<point x="387" y="550" type="line" smooth="yes"/>
			<point x="413" y="550"/>
			<point x="429" y="550"/>
			<point x="451" y="548" type="curve" smooth="yes"/>
			<point x="539" y="540"/>
			<point x="587" y="474"/>
			<point x="561" y="351" type="curve" smooth="yes"/>
			<point x="535" y="228"/>
			<point x="457" y="150"/>
		</contour>
	</outline>
</glyph>
<glyph name="multiply" format="2">
	<advance width="662"/>
	<unicode hex="00D7"/>
	<note>
		multiply
	</note>
	<outline>
		<contour>
			<point x="536" y="175" type="line"/>
			<point x="415" y="329" type="line"/>
			<point x="601" y="483" type="line"/>
			<point x="546" y="553" type="line"/>
			<point x="359" y="399" type="line"/>
			<point x="238" y="553" type="line"/>
			<point x="153" y="483" type="line"/>
			<point x="275" y="329" type="line"/>
			<point x="88" y="175" type="line"/>
			<point x="143" y="105" type="line"/>
			<point x="330" y="259" type="line"/>
			<point x="451" y="105" type="line"/>
		</contour>
	</outline>
</glyph>
<glyph name="Ucircumflex" format="2">
	<advance width="718"/>
	<unicode hex="00DB"/>
	<note>
		Ucircumflex
	</note>
	<outline>
		<contour>
			<point x="338" y="735" type="line"/>
			<point x="441" y="735" type="line"/>
			<point x="489" y="811" type="line"/>
			<point x="507" y="735" type="line"/>
			<point x="611" y="735" type="line"/>
			<point x="575" y="860" type="line"/>
			<point x="426" y="860" type="line"/>
		</contour>
		<contour>
			<point x="688" y="303" type="curve" smooth="yes"/>
			<point x="770" y="690" type="line"/>
			<point x="590" y="690" type="line"/>
			<point x="501" y="270" type="line" smooth="yes"/>
			<point x="497" y="251"/>
			<point x="495" y="241"/>
			<point x="491" y="229" type="curve" smooth="yes"/>
			<point x="471" y="157"/>
			<point x="422" y="118"/>
			<point x="343" y="118" type="curve" smooth="yes"/>
			<point x="264" y="118"/>
			<point x="231" y="157"/>
			<point x="241" y="229" type="curve" smooth="yes"/>
			<point x="243" y="241"/>
			<point x="245" y="251"/>
			<point x="249" y="270" type="curve" smooth="yes"/>
			<point x="338" y="690" type="line"/>
			<point x="158" y="690" type="line"/>
			<point x="76" y="303" type="line" smooth="yes"/>
			<point x="69" y="268"/>
			<point x="64" y="247"/>
			<point x="58" y="206" type="curve" smooth="yes"/>
			<point x="42" y="90"/>
			<point x="102" y="-14"/>
			<point x="315" y="-14" type="curve" smooth="yes"/>
			<point x="528" y="-14"/>
			<point x="632" y="90"/>
			<point x="664" y="206" type="curve" smooth="yes"/>
			<point x="676" y="247"/>
			<point x="681" y="268"/>
		</contour>
	</outline>
</glyph>
<glyph name="atilde" format="2">
	<advance width="587"/>
	<unicode hex="00E3"/>
	<note>
		atilde
	</note>
	<outline>
		<contour>
			<point x="312" y="605" type="curve" smooth="yes"/>
			<point x="320" y="605"/>
			<point x="332" y="600"/>
			<point x="354" y="590" type="curve" smooth="yes"/>
			<point x="388" y="574"/>
			<point x="403" y="571"/>
			<point x="432" y="571" type="curve" smooth="yes"/>
			<point x="494" y="571"/>
			<point x="531" y="612"/>
			<point x="551" y="705" type="curve"/>
			<point x="455" y="705" type="line"/>
			<point x="450" y="683"/>
			<point x="444" y="674"/>
			<point x="433" y="674" type="curve" smooth="yes"/>
			<point x="425" y="674"/>
			<point x="413" y="678"/>
			<point x="391" y="689" type="curve" smooth="yes"/>
			<point x="359" y="705"/>
			<point x="342" y="708"/>
			<point x="313" y="708" type="curve" smooth="yes"/>
			<point x="251" y="708"/>
			<point x="214" y="667"/>
			<point x="195" y="574" type="curve"/>
			<point x="291" y="574" type="line"/>
			<point x="295" y="596"/>
			<point x="301" y="605"/>
		</contour>
		<contour>
			<point x="315" y="78" type="line"/>
			<point x="311" y="0" type="line"/>
			<point x="487" y="0" type="line"/>
			<point x="491" y="59"/>
			<point x="497" y="95"/>
			<point x="505" y="135" type="curve" smooth="yes"/>
			<point x="537" y="285" type="line" smooth="yes"/>
			<point x="544" y="318"/>
			<point x="550" y="349"/>
			<point x="554" y="376" type="curve" smooth="yes"/>
			<point x="566" y="473"/>
			<point x="524" y="548"/>
			<point x="355" y="548" type="curve" smooth="yes"/>
			<point x="220" y="548"/>
			<point x="94" y="477"/>
			<point x="66" y="352" type="curve"/>
			<point x="237" y="353" type="line"/>
			<point x="249" y="399"/>
			<point x="279" y="426"/>
			<point x="321" y="426" type="curve" smooth="yes"/>
			<point x="360" y="426"/>
			<point x="377" y="402"/>
			<point x="374" y="375" type="curve" smooth="yes"/>
			<point x="373" y="358"/>
			<point x="370" y="347"/>
			<point x="368" y="336" type="curve" smooth="yes"/>
			<point x="366" y="328" type="line"/>
			<point x="332" y="328" type="line" smooth="yes"/>
			<point x="151" y="328"/>
			<point x="29" y="258"/>
			<point x="4" y="144" type="curve" smooth="yes"/>
			<point x="-18" y="41"/>
			<point x="54" y="-14"/>
			<point x="142" y="-14" type="curve" smooth="yes"/>
			<point x="191" y="-14"/>
			<point x="238" y="-2"/>
			<point x="281" y="22" type="curve"/>
		</contour>
		<contour>
			<point x="242" y="108" type="curve" smooth="yes"/>
			<point x="206" y="108"/>
			<point x="184" y="126"/>
			<point x="191" y="158" type="curve" smooth="yes"/>
			<point x="203" y="211"/>
			<point x="265" y="232"/>
			<point x="345" y="226" type="curve"/>
			<point x="337" y="191" type="line" smooth="yes"/>
			<point x="325" y="135"/>
			<point x="278" y="108"/>
		</contour>
	</outline>
</glyph>
<glyph name="ccedilla" format="2">
	<advance width="587"/>
	<unicode hex="00E7"/>
	<note>
		ccedilla
	</note>
	<outline>
		<contour>
			<point x="550" y="196" type="curve"/>
			<point x="373" y="196" type="line"/>
			<point x="351" y="138"/>
			<point x="311" y="108"/>
			<point x="270" y="108" type="curve" smooth="yes"/>
			<point x="209" y="108"/>
			<point x="185" y="158"/>
			<point x="209" y="272" type="curve" smooth="yes"/>
			<point x="231" y="375"/>
			<point x="275" y="426"/>
			<point x="335" y="426" type="curve" smooth="yes"/>
			<point x="380" y="426"/>
			<point x="410" y="400"/>
			<point x="403" y="330" type="curve"/>
			<point x="577" y="330" type="line"/>
			<point x="597" y="450"/>
			<point x="522" y="548"/>
			<point x="365" y="548" type="curve" smooth="yes"/>
			<point x="208" y="548"/>
			<point x="62" y="445"/>
			<point x="23" y="261" type="curve" smooth="yes"/>
			<point x="-10" y="106"/>
			<point x="60" y="11"/>
			<point x="182" y="-10" type="curve"/>
			<point x="127" y="-88" type="line"/>
			<point x="203" y="-83"/>
			<point x="223" y="-94"/>
			<point x="218" y="-114" type="curve" smooth="yes"/>
			<point x="215" y="-132"/>
			<point x="196" y="-141"/>
			<point x="153" y="-141" type="curve" smooth="yes"/>
			<point x="140" y="-141"/>
			<point x="120" y="-140"/>
			<point x="96" y="-134" type="curve"/>
			<point x="81" y="-204" type="line"/>
			<point x="99" y="-209"/>
			<point x="117" y="-210"/>
			<point x="137" y="-210" type="curve" smooth="yes"/>
			<point x="229" y="-210"/>
			<point x="311" y="-188"/>
			<point x="325" y="-119" type="curve" smooth="yes"/>
			<point x="335" y="-74"/>
			<point x="308" y="-49"/>
			<point x="247" y="-42" type="curve"/>
			<point x="267" y="-13" type="line"/>
			<point x="397" y="-2"/>
			<point x="505" y="69"/>
		</contour>
	</outline>
</glyph>
<glyph name="idieresis" format="2">
	<advance width="288"/>
	<unicode hex="00EF"/>
	<note>
		idieresis
	</note>
	<outline>
		<contour>
			<point x="-2" y="0" type="line"/>
			<point x="178" y="0" type="line"/>
			<point x="291" y="534" type="line"/>
			<point x="111" y="534" type="line"/>
		</contour>
		<contour>
			<point x="67" y="716" type="line"/>
			<point x="36" y="569" type="line"/>
			<point x="186" y="569" type="line"/>
			<point x="217" y="716" type="line"/>
		</contour>
		<contour>
			<point x="268" y="716" type="line"/>
			<point x="237" y="569" type="line"/>
			<point x="387" y="569" type="line"/>
			<point x="418" y="716" type="line"/>
		</contour>
	</outline>
</glyph>
<glyph name="eth" format="2">
	<advance width="662"/>
	<unicode hex="00F0"/>
	<note>
		eth
	</note>
	<outline>
		<contour>
			<point x="625" y="615" type="curve"/>
			<point x="669" y="623" type="line"/>
			<point x="673" y="696" type="line"/>
			<point x="583" y="680" type="line"/>
			<point x="560" y="705"/>
			<point x="529" y="727"/>
			<point x="493" y="745" type="curve"/>
			<point x="324" y="679" type="line"/>
			<point x="347" y="668"/>
			<point x="366" y="657"/>
			<point x="383" y="644" type="curve"/>
			<point x="315" y="632" type="line"/>
			<point x="311" y="559" type="line"/>
			<point x="440" y="582" type="line"/>
			<point x="462" y="546"/>
			<point x="469" y="506"/>
			<point x="466" y="465" type="curve"/>
			<point x="434" y="519" type="line"/>
			<point x="402" y="541"/>
			<point x="377" y="548"/>
			<point x="348" y="548" type="curve" smooth="yes"/>
			<point x="201" y="548"/>
			<point x="63" y="450"/>
			<point x="24" y="267" type="curve" smooth="yes"/>
			<point x="-11" y="102"/>
			<point x="64" y="-14"/>
			<point x="268" y="-14" type="curve" smooth="yes"/>
			<point x="405" y="-14"/>
			<point x="577" y="67"/>
			<point x="628" y="307" type="curve" smooth="yes"/>
			<point x="658" y="447"/>
			<point x="656" y="544"/>
		</contour>
		<contour>
			<point x="440" y="289" type="curve" smooth="yes"/>
			<point x="434" y="260" type="line" smooth="yes"/>
			<point x="417" y="178"/>
			<point x="372" y="118"/>
			<point x="296" y="118" type="curve" smooth="yes"/>
			<point x="225" y="118"/>
			<point x="190" y="163"/>
			<point x="212" y="267" type="curve" smooth="yes"/>
			<point x="232" y="359"/>
			<point x="282" y="416"/>
			<point x="360" y="416" type="curve" smooth="yes"/>
			<point x="426" y="416"/>
			<point x="456" y="364"/>
		</contour>
	</outline>
</glyph>
<glyph name="otilde" format="2">
	<advance width="622"/>
	<unicode hex="00F5"/>
	<note>
		otilde
	</note>
	<outline>
		<contour>
			<point x="330" y="605" type="curve" smooth="yes"/>
			<point x="338" y="605"/>
			<point x="350" y="600"/>
			<point x="372" y="590" type="curve" smooth="yes"/>
			<point x="406" y="574"/>
			<point x="421" y="571"/>
			<point x="450" y="571" type="curve" smooth="yes"/>
			<point x="512" y="571"/>
			<point x="549" y="612"/>
			<point x="569" y="705" type="curve"/>
			<point x="473" y="705" type="line"/>
			<point x="468" y="683"/>
			<point x="462" y="674"/>
			<point x="451" y="674" type="curve" smooth="yes"/>
			<point x="443" y="674"/>
			<point x="431" y="678"/>
			<point x="409" y="689" type="curve" smooth="yes"/>
			<point x="377" y="705"/>
			<point x="360" y="708"/>
			<point x="331" y="708" type="curve" smooth="yes"/>
			<point x="269" y="708"/>
			<point x="232" y="667"/>
			<point x="213" y="574" type="curve"/>
			<point x="309" y="574" type="line"/>
			<point x="313" y="596"/>
			<point x="319" y="605"/>
		</contour>
		<contour>
			<point x="371" y="548" type="curve" smooth="yes"/>
			<point x="196" y="548"/>
			<point x="61" y="439"/>
			<point x="24" y="267" type="curve" smooth="yes"/>
			<point x="-12" y="96"/>
			<point x="77" y="-14"/>
			<point x="252" y="-14" type="curve" smooth="yes"/>
			<point x="427" y="-14"/>
			<point x="562" y="96"/>
			<point x="598" y="267" type="curve" smooth="yes"/>
			<point x="635" y="439"/>
			<point x="546" y="548"/>
		</contour>
		<contour>
			<point x="278" y="108" type="curve" smooth="yes"/>
			<point x="214" y="108"/>
			<point x="186" y="161"/>
			<point x="208" y="267" type="curve" smooth="yes"/>
			<point x="231" y="374"/>
			<point x="281" y="426"/>
			<point x="345" y="426" type="curve" smooth="yes"/>
			<point x="409" y="426"/>
			<point x="437" y="374"/>
			<point x="414" y="267" type="curve" smooth="yes"/>
			<point x="392" y="161"/>
			<point x="342" y="108"/>
		</contour>
	</outline>
</glyph>
<glyph name="odieresis" format="2">
	<advance width="622"/>
	<unicode hex="00F6"/>
	<note>
		odieresis
	</note>
	<outline>
		<contour>
			<point x="371" y="548" type="curve" smooth="yes"/>
			<point x="196" y="548"/>
			<point x="61" y="439"/>
			<point x="24" y="267" type="curve" smooth="yes"/>
			<point x="-12" y="96"/>
			<point x="77" y="-14"/>
			<point x="252" y="-14" type="curve" smooth="yes"/>
			<point x="427" y="-14"/>
			<point x="562" y="96"/>
			<point x="598" y="267" type="curve" smooth="yes"/>
			<point x="635" y="439"/>
			<point x="546" y="548"/>
		</contour>
		<contour>
			<point x="278" y="108" type="curve" smooth="yes"/>
			<point x="214" y="108"/>
			<point x="186" y="161"/>
			<point x="208" y="267" type="curve" smooth="yes"/>
			<point x="231" y="374"/>
			<point x="281" y="426"/>
			<point x="345" y="426" type="curve" smooth="yes"/>
			<point x="409" y="426"/>
			<point x="437" y="374"/>
			<point x="414" y="267" type="curve" smooth="yes"/>
			<point x="392" y="161"/>
			<point x="342" y="108"/>
		</contour>
		<contour>
			<point x="231" y="717" type="line"/>
			<point x="200" y="570" type="line"/>
			<point x="350" y="570" type="line"/>
			<point x="381" y="717" type="line"/>
		</contour>
		<contour>
			<point x="432" y="717" type="line"/>
			<point x="401" y="570" type="line"/>
			<point x="551" y="570" type="line"/>
			<point x="582" y="717" type="line"/>
		</contour>
	</outline>
</glyph>
<glyph name="yacute" format="2">
	<advance width="608"/>
	<unicode hex="00FD"/>
	<note>
		yacute
	</note>
	<outline>
		<contour>
			<point x="310" y="571" type="line"/>
			<point x="406" y="571" type="line"/>
			<point x="588" y="696" type="line"/>
			<point x="428" y="696" type="line"/>
		</contour>
		<contour>
			<point x="349" y="0" type="curve" smooth="yes"/>
			<point x="673" y="534" type="line"/>
			<point x="476" y="534" type="line"/>
			<point x="284" y="143" type="line"/>
			<point x="257" y="534" type="line"/>
			<point x="57" y="534" type="line"/>
			<point x="160" y="-24" type="line"/>
			<point x="149" y="-39" type="line" smooth="yes"/>
			<point x="124" y="-77"/>
			<point x="92" y="-91"/>
			<point x="50" y="-91" type="curve" smooth="yes"/>
			<point x="32" y="-91"/>
			<point x="16" y="-91"/>
			<point x="2" y="-89" type="curve"/>
			<point x="-23" y="-205" type="line"/>
			<point x="2" y="-209"/>
			<point x="23" y="-210"/>
			<point x="52" y="-210" type="curve" smooth="yes"/>
			<point x="179" y="-210"/>
			<point x="246" y="-169"/>
		</contour>
	</outline>
</glyph>
<glyph name="aogonek" format="2">
	<advance width="587"/>
	<unicode hex="0105"/>
	<note>
		aogonek
	</note>
	<outline>
		<contour>
			<point x="374" y="-70" type="curve" smooth="yes"/>
			<point x="382" y="-32"/>
			<point x="409" y="0"/>
			<point x="434" y="0" type="curve" smooth="yes"/>
			<point x="487" y="0" type="line"/>
			<point x="491" y="59"/>
			<point x="497" y="95"/>
			<point x="505" y="135" type="curve" smooth="yes"/>
			<point x="537" y="285" type="line" smooth="yes"/>
			<point x="544" y="318"/>
			<point x="550" y="349"/>
			<point x="554" y="376" type="curve" smooth="yes"/>
			<point x="566" y="473"/>
			<point x="524" y="548"/>
			<point x="355" y="548" type="curve" smooth="yes"/>
			<point x="220" y="548"/>
			<point x="94" y="477"/>
			<point x="66" y="352" type="curve"/>
			<point x="237" y="353" type="line"/>
			<point x="249" y="399"/>
			<point x="279" y="426"/>
			<point x="321" y="426" type="curve" smooth="yes"/>
			<point x="360" y="426"/>
			<point x="377" y="402"/>
			<point x="374" y="375" type="curve" smooth="yes"/>
			<point x="373" y="358"/>
			<point x="370" y="347"/>
			<point x="368" y="336" type="curve" smooth="yes"/>
			<point x="366" y="328" type="line"/>
			<point x="332" y="328" type="line" smooth="yes"/>
			<point x="151" y="328"/>
			<point x="29" y="258"/>
			<point x="4" y="144" type="curve" smooth="yes"/>
			<point x="-18" y="41"/>
			<point x="54" y="-14"/>
			<point x="142" y="-14" type="curve" smooth="yes"/>
			<point x="191" y="-14"/>
			<point x="238" y="-2"/>
			<point x="281" y="22" type="curve"/>
			<point x="315" y="78" type="line"/>
			<point x="311" y="5" type="line"/>
			<point x="261" y="-21"/>
			<point x="208" y="-77"/>
			<point x="196" y="-137" type="curve" smooth="yes"/>
			<point x="182" y="-201"/>
			<point x="225" y="-223"/>
			<point x="291" y="-223" type="curve" smooth="yes"/>
			<point x="355" y="-223"/>
			<point x="402" y="-202"/>
			<point x="437" y="-173" type="curve"/>
			<point x="452" y="-100" type="line"/>
			<point x="433" y="-115"/>
			<point x="418" y="-121"/>
			<point x="404" y="-121" type="curve" smooth="yes"/>
			<point x="384" y="-121"/>
			<point x="366" y="-108"/>
		</contour>
		<contour>
			<point x="242" y="108" type="curve" smooth="yes"/>
			<point x="206" y="108"/>
			<point x="184" y="126"/>
			<point x="191" y="158" type="curve" smooth="yes"/>
			<point x="203" y="211"/>
			<point x="265" y="232"/>
			<point x="345" y="226" type="curve"/>
			<point x="337" y="191" type="line" smooth="yes"/>
			<point x="325" y="135"/>
			<point x="278" y="108"/>
		</contour>
	</outline>
</glyph>
<glyph name="Ccaron" format="2">
	<advance width="734"/>
	<unicode hex="010C"/>
	<note>
		Ccaron
	</note>
	<outline>
		<contour>
			<point x="374" y="860" type="line"/>
			<point x="410" y="735" type="line"/>
			<point x="559" y="735" type="line"/>
			<point x="647" y="860" type="line"/>
			<point x="544" y="860" type="line"/>
			<point x="496" y="784" type="line"/>
			<point x="478" y="860" type="line"/>
		</contour>
		<contour>
			<point x="702" y="247" type="line"/>
			<point x="522" y="247" type="line"/>
			<point x="518" y="237" type="line" smooth="yes"/>
			<point x="487" y="161"/>
			<point x="433" y="118"/>
			<point x="363" y="118" type="curve" smooth="yes"/>
			<point x="283" y="118"/>
			<point x="223" y="177"/>
			<point x="260" y="351" type="curve" smooth="yes"/>
			<point x="292" y="500"/>
			<point x="372" y="572"/>
			<point x="458" y="572" type="curve" smooth="yes"/>
			<point x="531" y="572"/>
			<point x="569" y="537"/>
			<point x="568" y="463" type="curve" smooth="yes"/>
			<point x="568" y="453" type="line"/>
			<point x="748" y="453" type="line"/>
			<point x="749" y="463" type="line" smooth="yes"/>
			<point x="764" y="599"/>
			<point x="685" y="704"/>
			<point x="488" y="704" type="curve" smooth="yes"/>
			<point x="301" y="704"/>
			<point x="121" y="580"/>
			<point x="70" y="340" type="curve" smooth="yes"/>
			<point x="20" y="106"/>
			<point x="144" y="-14"/>
			<point x="329" y="-14" type="curve" smooth="yes"/>
			<point x="502" y="-14"/>
			<point x="647" y="71"/>
			<point x="699" y="237" type="curve" smooth="yes"/>
		</contour>
	</outline>
</glyph>
<glyph name="Emacron" format="2">
	<advance width="639"/>
	<unicode hex="0112"/>
	<note>
		Emacron
	</note>
	<outline>
		<contour>
			<point x="295" y="760" type="line"/>
			<point x="595" y="760" type="line"/>
			<point x="616" y="856" type="line"/>
			<point x="316" y="856" type="line"/>
		</contour>
		<contour>
			<point x="553" y="0" type="line"/>
			<point x="582" y="140" type="line"/>
			<point x="233" y="140" type="line"/>
			<point x="262" y="276" type="line"/>
			<point x="581" y="276" type="line"/>
			<point x="611" y="416" type="line"/>
			<point x="292" y="416" type="line"/>
			<point x="321" y="550" type="line"/>
			<point x="660" y="550" type="line"/>
			<point x="689" y="690" type="line"/>
			<point x="170" y="690" type="line"/>
			<point x="24" y="0" type="line"/>
		</contour>
	</outline>
</glyph>
<glyph name="Edotaccent" format="2">
	<advance width="639"/>
	<unicode hex="0116"/>
	<note>
		Edotaccent
	</note>
	<outline>
		<contour>
			<point x="438" y="725" type="curve" smooth="yes"/>
			<point x="494" y="725"/>
			<point x="538" y="759"/>
			<point x="549" y="813" type="curve" smooth="yes"/>
			<point x="561" y="867"/>
			<point x="531" y="901"/>
			<point x="475" y="901" type="curve" smooth="yes"/>
			<point x="419" y="901"/>
			<point x="375" y="867"/>
			<point x="363" y="813" type="curve" smooth="yes"/>
			<point x="352" y="759"/>
			<point x="382" y="725"/>
		</contour>
		<contour>
			<point x="553" y="0" type="line"/>
			<point x="582" y="140" type="line"/>
			<point x="233" y="140" type="line"/>
			<point x="262" y="276" type="line"/>
			<point x="581" y="276" type="line"/>
			<point x="611" y="416" type="line"/>
			<point x="292" y="416" type="line"/>
			<point x="321" y="550" type="line"/>
			<point x="660" y="550" type="line"/>
			<point x="689" y="690" type="line"/>
			<point x="170" y="690" type="line"/>
			<point x="24" y="0" type="line"/>
		</contour>
	</outline>
</glyph>
<glyph name="edotaccent" format="2">
	<advance width="601"/>
	<unicode hex="0117"/>
	<note>
		edotaccent
	</note>
	<outline>
		<contour>
			<point x="368" y="575" type="curve" smooth="yes"/>
			<point x="424" y="575"/>
			<point x="468" y="609"/>
			<point x="480" y="663" type="curve" smooth="yes"/>
			<point x="491" y="717"/>
			<point x="461" y="751"/>
			<point x="405" y="751" type="curve" smooth="yes"/>
			<point x="349" y="751"/>
			<point x="305" y="717"/>
			<point x="294" y="663" type="curve" smooth="yes"/>
			<point x="282" y="609"/>
			<point x="312" y="575"/>
		</contour>
		<contour>
			<point x="579" y="274" type="curve" smooth="yes"/>
			<point x="608" y="412"/>
			<point x="547" y="548"/>
			<point x="369" y="548" type="curve" smooth="yes"/>
			<point x="191" y="548"/>
			<point x="57" y="421"/>
			<point x="24" y="265" type="curve" smooth="yes"/>
			<point x="-16" y="77"/>
			<point x="87" y="-14"/>
			<point x="240" y="-14" type="curve" smooth="yes"/>
			<point x="377" y="-14"/>
			<point x="491" y="54"/>
			<point x="548" y="175" type="curve"/>
			<point x="371" y="175" type="line"/>
			<point x="355" y="134"/>
			<point x="319" y="108"/>
			<point x="268" y="108" type="curve" smooth="yes"/>
			<point x="217" y="108"/>
			<point x="183" y="133"/>
			<point x="193" y="222" type="curve"/>
			<point x="565" y="222" type="line"/>
			<point x="571" y="240"/>
			<point x="576" y="258"/>
		</contour>
		<contour>
			<point x="334" y="426" type="curve" smooth="yes"/>
			<point x="382" y="426"/>
			<point x="407" y="395"/>
			<point x="403" y="332" type="curve"/>
			<point x="222" y="332" type="line"/>
			<point x="248" y="398"/>
			<point x="287" y="426"/>
		</contour>
	</outline>
</glyph>
<glyph name="Eogonek" format="2">
	<advance width="639"/>
	<unicode hex="0118"/>
	<note>
		Eogonek
	</note>
	<outline>
		<contour>
			<point x="503" y="0" type="curve" smooth="yes"/>
			<point x="553" y="0" type="line"/>
			<point x="582" y="140" type="line"/>
			<point x="233" y="140" type="line"/>
			<point x="262" y="276" type="line"/>
			<point x="581" y="276" type="line"/>
			<point x="611" y="416" type="line"/>
			<point x="292" y="416" type="line"/>
			<point x="321" y="550" type="line"/>
			<point x="660" y="550" type="line"/>
			<point x="689" y="690" type="line"/>
			<point x="170" y="690" type="line"/>
			<point x="24" y="0" type="line"/>
			<point x="372" y="0" type="line"/>
			<point x="324" y="-27"/>
			<point x="276" y="-81"/>
			<point x="265" y="-137" type="curve" smooth="yes"/>
			<point x="251" y="-201"/>
			<point x="294" y="-223"/>
			<point x="360" y="-223" type="curve" smooth="yes"/>
			<point x="424" y="-223"/>
			<point x="471" y="-202"/>
			<point x="506" y="-173" type="curve"/>
			<point x="521" y="-100" type="line"/>
			<point x="502" y="-115"/>
			<point x="487" y="-121"/>
			<point x="473" y="-121" type="curve" smooth="yes"/>
			<point x="453" y="-121"/>
			<point x="435" y="-108"/>
			<point x="443" y="-70" type="curve" smooth="yes"/>
			<point x="451" y="-32"/>
			<point x="478" y="0"/>
		</contour>
	</outline>
</glyph>
<glyph name="eogonek" format="2">
	<advance width="601"/>
	<unicode hex="0119"/>
	<note>
		eogonek
	</note>
	<outline>
		<contour>
			<point x="579" y="274" type="curve" smooth="yes"/>
			<point x="608" y="412"/>
			<point x="547" y="548"/>
			<point x="369" y="548" type="curve" smooth="yes"/>
			<point x="191" y="548"/>
			<point x="57" y="421"/>
			<point x="24" y="265" type="curve" smooth="yes"/>
			<point x="-12" y="96"/>
			<point x="68" y="5"/>
			<point x="195" y="-11" type="curve"/>
			<point x="154" y="-40"/>
			<point x="116" y="-88"/>
			<point x="106" y="-137" type="curve" smooth="yes"/>
			<point x="92" y="-201"/>
			<point x="135" y="-223"/>
			<point x="201" y="-223" type="curve" smooth="yes"/>
			<point x="265" y="-223"/>
			<point x="312" y="-202"/>
			<point x="347" y="-173" type="curve"/>
			<point x="362" y="-100" type="line"/>
			<point x="343" y="-115"/>
			<point x="328" y="-121"/>
			<point x="314" y="-121" type="curve" smooth="yes"/>
			<point x="294" y="-121"/>
			<point x="276" y="-108"/>
			<point x="284" y="-70" type="curve" smooth="yes"/>
			<point x="290" y="-40"/>
			<point x="309" y="-14"/>
			<point x="328" y="-4" type="curve"/>
			<point x="333" y="-3"/>
			<point x="338" y="-1"/>
			<point x="343" y="0" type="curve" smooth="yes"/>
			<point x="433" y="26"/>
			<point x="506" y="86"/>
			<point x="548" y="175" type="curve"/>
			<point x="371" y="175" type="line"/>
			<point x="355" y="134"/>
			<point x="319" y="108"/>
			<point x="268" y="108" type="curve" smooth="yes"/>
			<point x="217" y="108"/>
			<point x="183" y="133"/>
			<point x="193" y="222" type="curve"/>
			<point x="565" y="222" type="line"/>
			<point x="571" y="240"/>
			<point x="576" y="258"/>
		</contour>
		<contour>
			<point x="334" y="426" type="curve" smooth="yes"/>
			<point x="382" y="426"/>
			<point x="407" y="395"/>
			<point x="403" y="332" type="curve"/>
			<point x="222" y="332" type="line"/>
			<point x="248" y="398"/>
			<point x="287" y="426"/>
		</contour>
	</outline>
</glyph>
<glyph name="gbreve" format="2">
	<advance width="669"/>
	<unicode hex="011F"/>
	<note>
		gbreve
	</note>
	<outline>
		<contour>
			<point x="394" y="568" type="curve" smooth="yes"/>
			<point x="465" y="568"/>
			<point x="536" y="597"/>
			<point x="557" y="696" type="curve"/>
			<point x="467" y="696" type="line"/>
			<point x="459" y="669"/>
			<point x="441" y="653"/>
			<point x="412" y="653" type="curve" smooth="yes"/>
			<point x="383" y="653"/>
			<point x="373" y="669"/>
			<point x="377" y="696" type="curve"/>
			<point x="287" y="696" type="line"/>
			<point x="266" y="597"/>
			<point x="322" y="568"/>
		</contour>
		<contour>
			<point x="588" y="136" type="curve" smooth="yes"/>
			<point x="672" y="534" type="line"/>
			<point x="492" y="534" type="line"/>
			<point x="478" y="465" type="line"/>
			<point x="455" y="522" type="line"/>
			<point x="431" y="538"/>
			<point x="381" y="548"/>
			<point x="337" y="548" type="curve" smooth="yes"/>
			<point x="200" y="548"/>
			<point x="64" y="453"/>
			<point x="24" y="263" type="curve" smooth="yes"/>
			<point x="-10" y="105"/>
			<point x="69" y="6"/>
			<point x="214" y="6" type="curve" smooth="yes"/>
			<point x="268" y="6"/>
			<point x="312" y="17"/>
			<point x="347" y="39" type="curve"/>
			<point x="400" y="98" type="line"/>
			<point x="396" y="83" type="line" smooth="yes"/>
			<point x="390" y="54"/>
			<point x="384" y="29"/>
			<point x="379" y="13" type="curve" smooth="yes"/>
			<point x="359" y="-59"/>
			<point x="304" y="-88"/>
			<point x="237" y="-88" type="curve" smooth="yes"/>
			<point x="181" y="-88"/>
			<point x="144" y="-68"/>
			<point x="148" y="-33" type="curve" smooth="yes"/>
			<point x="149" y="-23" type="line"/>
			<point x="-25" y="-23" type="line"/>
			<point x="-26" y="-33" type="line" smooth="yes"/>
			<point x="-39" y="-155"/>
			<point x="44" y="-220"/>
			<point x="204" y="-220" type="curve" smooth="yes"/>
			<point x="385" y="-220"/>
			<point x="521" y="-142"/>
			<point x="565" y="33" type="curve" smooth="yes"/>
			<point x="572" y="62"/>
			<point x="581" y="103"/>
		</contour>
		<contour>
			<point x="292" y="128" type="curve" smooth="yes"/>
			<point x="229" y="128"/>
			<point x="189" y="176"/>
			<point x="210" y="276" type="curve" smooth="yes"/>
			<point x="234" y="385"/>
			<point x="290" y="426"/>
			<point x="360" y="426" type="curve" smooth="yes"/>
			<point x="414" y="426"/>
			<point x="462" y="390"/>
			<point x="439" y="283" type="curve" smooth="yes"/>
			<point x="438" y="280" type="line" smooth="yes"/>
			<point x="414" y="168"/>
			<point x="358" y="128"/>
		</contour>
	</outline>
</glyph>
<glyph name="Hbar" format="2">
	<advance width="770"/>
	<unicode hex="0126"/>
	<note>
		Hbar
	</note>
	<outline>
		<contour>
			<point x="762" y="482" type="line"/>
			<point x="802" y="482" type="line"/>
			<point x="823" y="578" type="line"/>
			<point x="783" y="578" type="line"/>
			<point x="806" y="690" type="line"/>
			<point x="626" y="690" type="line"/>
			<point x="603" y="578" type="line"/>
			<point x="327" y="578" type="line"/>
			<point x="350" y="690" type="line"/>
			<point x="170" y="690" type="line"/>
			<point x="147" y="578" type="line"/>
			<point x="107" y="578" type="line"/>
			<point x="86" y="482" type="line"/>
			<point x="126" y="482" type="line"/>
			<point x="24" y="0" type="line"/>
			<point x="204" y="0" type="line"/>
			<point x="261" y="268" type="line"/>
			<point x="537" y="268" type="line"/>
			<point x="480" y="0" type="line"/>
			<point x="660" y="0" type="line"/>
		</contour>
		<contour>
			<point x="306" y="482" type="line"/>
			<point x="582" y="482" type="line"/>
			<point x="566" y="408" type="line"/>
			<point x="290" y="408" type="line"/>
		</contour>
	</outline>
</glyph>
<glyph name="Imacron" format="2">
	<advance width="314"/>
	<unicode hex="012A"/>
	<note>
		Imacron
	</note>
	<outline>
		<contour>
			<point x="125" y="760" type="line"/>
			<point x="425" y="760" type="line"/>
			<point x="446" y="856" type="line"/>
			<point x="146" y="856" type="line"/>
		</contour>
		<contour>
			<point x="24" y="0" type="line"/>
			<point x="204" y="0" type="line"/>
			<point x="350" y="690" type="line"/>
			<point x="170" y="690" type="line"/>
		</contour>
	</outline>
</glyph>
<glyph name="Iogonek" format="2">
	<advance width="314"/>
	<unicode hex="012E"/>
	<note>
		Iogonek
	</note>
	<outline>
		<contour>
			<point x="147" y="0" type="curve" smooth="yes"/>
			<point x="204" y="0" type="line"/>
			<point x="350" y="690" type="line"/>
			<point x="170" y="690" type="line"/>
			<point x="25" y="5" type="line"/>
			<point x="-26" y="-20"/>
			<point x="-79" y="-77"/>
			<point x="-91" y="-137" type="curve" smooth="yes"/>
			<point x="-105" y="-201"/>
			<point x="-62" y="-223"/>
			<point x="4" y="-223" type="curve" smooth="yes"/>
			<point x="68" y="-223"/>
			<point x="115" y="-202"/>
			<point x="150" y="-173" type="curve"/>
			<point x="165" y="-100" type="line"/>
			<point x="146" y="-115"/>
			<point x="131" y="-121"/>
			<point x="117" y="-121" type="curve" smooth="yes"/>
			<point x="97" y="-121"/>
			<point x="79" y="-108"/>
			<point x="87" y="-70" type="curve" smooth="yes"/>
			<point x="95" y="-32"/>
			<point x="122" y="0"/>
		</contour>
	</outline>
</glyph>
<glyph name="iogonek" format="2">
	<advance width="288"/>
	<unicode hex="012F"/>
	<note>
		iogonek
	</note>
	<outline>
		<contour>
			<point x="210" y="575" type="curve" smooth="yes"/>
			<point x="266" y="575"/>
			<point x="310" y="609"/>
			<point x="322" y="663" type="curve" smooth="yes"/>
			<point x="333" y="717"/>
			<point x="303" y="751"/>
			<point x="247" y="751" type="curve" smooth="yes"/>
			<point x="191" y="751"/>
			<point x="147" y="717"/>
			<point x="136" y="663" type="curve" smooth="yes"/>
			<point x="124" y="609"/>
			<point x="154" y="575"/>
		</contour>
		<contour>
			<point x="291" y="534" type="line"/>
			<point x="111" y="534" type="line"/>
			<point x="-1" y="5" type="line"/>
			<point x="-52" y="-20"/>
			<point x="-105" y="-77"/>
			<point x="-117" y="-137" type="curve" smooth="yes"/>
			<point x="-131" y="-201"/>
			<point x="-88" y="-223"/>
			<point x="-22" y="-223" type="curve" smooth="yes"/>
			<point x="42" y="-223"/>
			<point x="89" y="-202"/>
			<point x="124" y="-173" type="curve"/>
			<point x="139" y="-100" type="line"/>
			<point x="120" y="-115"/>
			<point x="105" y="-121"/>
			<point x="91" y="-121" type="curve" smooth="yes"/>
			<point x="71" y="-121"/>
			<point x="53" y="-108"/>
			<point x="61" y="-70" type="curve" smooth="yes"/>
			<point x="69" y="-32"/>
			<point x="96" y="0"/>
			<point x="121" y="0" type="curve" smooth="yes"/>
			<point x="178" y="0" type="line"/>
		</contour>
	</outline>
</glyph>
<glyph name="dotlessi" format="2">
	<advance width="288"/>
	<unicode hex="0131"/>
	<note>
		dotlessi
	</note>
	<outline>
		<contour>
			<point x="-2" y="0" type="line"/>
			<point x="178" y="0" type="line"/>
			<point x="291" y="534" type="line"/>
			<point x="111" y="534" type="line"/>
		</contour>
	</outline>
</glyph>
<glyph name="ij" format="2">
	<advance width="570"/>
	<unicode hex="0133"/>
	<note>
		ij
	</note>
	<outline>
		<contour>
			<point x="-2" y="0" type="line"/>
			<point x="178" y="0" type="line"/>
			<point x="291" y="534" type="line"/>
			<point x="111" y="534" type="line"/>
		</contour>
		<contour>
			<point x="467" y="16" type="curve" smooth="yes"/>
			<point x="577" y="534" type="line"/>
			<point x="397" y="534" type="line"/>
			<point x="287" y="15" type="line" smooth="yes"/>
			<point x="284" y="0"/>
			<point x="279" y="-19"/>
			<point x="275" y="-33" type="curve" smooth="yes"/>
			<point x="260" y="-80"/>
			<point x="227" y="-91"/>
			<point x="164" y="-85" type="curve"/>
			<point x="138" y="-206" type="line"/>
			<point x="155" y="-209"/>
			<point x="176" y="-210"/>
			<point x="197" y="-210" type="curve" smooth="yes"/>
			<point x="352" y="-210"/>
			<point x="423" y="-148"/>
			<point x="451" y="-48" type="curve" smooth="yes"/>
			<point x="456" y="-30"/>
			<point x="463" y="-4"/>
		</contour>
		<contour>
			<point x="159" y="753" type="line"/>
			<point x="121" y="574" type="line"/>
			<point x="303" y="574" type="line"/>
			<point x="341" y="753" type="line"/>
		</contour>
		<contour>
			<point x="441" y="751" type="line"/>
			<point x="404" y="575" type="line"/>
			<point x="589" y="575" type="line"/>
			<point x="626" y="751" type="line"/>
		</contour>
	</outline>
</glyph>
<glyph name="uni0136" format="2">
	<advance width="743"/>
	<unicode hex="0136"/>
	<note>
		Kcommaaccent
	</note>
	<outline>
		<contour>
			<point x="673" y="0" type="line"/>
			<point x="461" y="365" type="line"/>
			<point x="828" y="690" type="line"/>
			<point x="613" y="690" type="line"/>
			<point x="286" y="385" type="line"/>
			<point x="350" y="690" type="line"/>
			<point x="170" y="690" type="line"/>
			<point x="24" y="0" type="line"/>
			<point x="204" y="0" type="line"/>
			<point x="249" y="212" type="line"/>
			<point x="309" y="266" type="line"/>
			<point x="448" y="0" type="line"/>
		</contour>
		<contour>
			<point x="375" y="-37" type="line"/>
			<point x="261" y="-37" type="line"/>
			<point x="139" y="-216" type="line"/>
			<point x="236" y="-216" type="line"/>
			<point x="373" y="-47" type="line"/>
		</contour>
	</outline>
</glyph>
<glyph name="uni0137" format="2">
	<advance width="632"/>
	<unicode hex="0137"/>
	<note>
		kcommaaccent
	</note>
	<outline>
		<contour>
			<point x="359" y="0" type="line"/>
			<point x="580" y="0" type="line"/>
			<point x="412" y="289" type="line"/>
			<point x="690" y="534" type="line"/>
			<point x="479" y="534" type="line"/>
			<point x="244" y="310" type="line"/>
			<point x="334" y="735" type="line"/>
			<point x="154" y="735" type="line"/>
			<point x="-2" y="0" type="line"/>
			<point x="178" y="0" type="line"/>
			<point x="211" y="156" type="line"/>
			<point x="258" y="198" type="line"/>
		</contour>
		<contour>
			<point x="332" y="-37" type="line"/>
			<point x="218" y="-37" type="line"/>
			<point x="96" y="-216" type="line"/>
			<point x="193" y="-216" type="line"/>
			<point x="330" y="-47" type="line"/>
		</contour>
	</outline>
</glyph>
<glyph name="Lcaron" format="2">
	<advance width="628"/>
	<unicode hex="013D"/>
	<note>
		Lcaron
	</note>
	<outline>
		<contour>
			<point x="553" y="0" type="line"/>
			<point x="585" y="152" type="line"/>
			<point x="236" y="152" type="line"/>
			<point x="350" y="690" type="line"/>
			<point x="170" y="690" type="line"/>
			<point x="24" y="0" type="line"/>
		</contour>
	</outline>
</glyph>
<glyph name="ldot" format="2">
	<advance width="480"/>
	<unicode hex="0140"/>
	<note>
		ldot
	</note>
	<outline>
		<contour>
			<point x="214" y="192" type="curve" smooth="yes"/>
			<point x="330" y="735" type="line"/>
			<point x="150" y="735" type="line"/>
			<point x="34" y="189" type="line" smooth="yes"/>
			<point x="25" y="149"/>
			<point x="20" y="122"/>
			<point x="16" y="94" type="curve" smooth="yes"/>
			<point x="5" y="23"/>
			<point x="45" y="-10"/>
			<point x="128" y="-10" type="curve" smooth="yes"/>
			<point x="168" y="-10"/>
			<point x="200" y="-8"/>
			<point x="234" y="-5" type="curve"/>
			<point x="260" y="117" type="line"/>
			<point x="212" y="115"/>
			<point x="205" y="122"/>
			<point x="206" y="143" type="curve" smooth="yes"/>
			<point x="207" y="156"/>
			<point x="209" y="167"/>
		</contour>
		<contour>
			<point x="427" y="488" type="curve" smooth="yes"/>
			<point x="373" y="488"/>
			<point x="327" y="452"/>
			<point x="316" y="400" type="curve" smooth="yes"/>
			<point x="305" y="348"/>
			<point x="336" y="312"/>
			<point x="390" y="312" type="curve" smooth="yes"/>
			<point x="444" y="312"/>
			<point x="491" y="348"/>
			<point x="502" y="400" type="curve" smooth="yes"/>
			<point x="513" y="452"/>
			<point x="481" y="488"/>
		</contour>
	</outline>
</glyph>
<glyph name="Lslash" format="2">
	<advance width="668"/>
	<unicode hex="0141"/>
	<note>
		Lslash
	</note>
	<outline>
		<contour>
			<point x="593" y="0" type="line"/>
			<point x="625" y="152" type="line"/>
			<point x="276" y="152" type="line"/>
			<point x="324" y="380" type="line"/>
			<point x="420" y="425" type="line"/>
			<point x="444" y="538" type="line"/>
			<point x="348" y="493" type="line"/>
			<point x="390" y="690" type="line"/>
			<point x="210" y="690" type="line"/>
			<point x="148" y="398" type="line"/>
			<point x="44" y="348" type="line"/>
			<point x="20" y="235" type="line"/>
			<point x="124" y="285" type="line"/>
			<point x="64" y="0" type="line"/>
		</contour>
	</outline>
</glyph>
<glyph name="Nacute" format="2">
	<advance width="794"/>
	<unicode hex="0143"/>
	<note>
		Nacute
	</note>
	<outline>
		<contour>
			<point x="451" y="735" type="line"/>
			<point x="547" y="735" type="line"/>
			<point x="728" y="860" type="line"/>
			<point x="568" y="860" type="line"/>
		</contour>
		<contour>
			<point x="449" y="0" type="line"/>
			<point x="684" y="0" type="line"/>
			<point x="830" y="690" type="line"/>
			<point x="650" y="690" type="line"/>
			<point x="588" y="395" type="line" smooth="yes"/>
			<point x="579" y="355"/>
			<point x="565" y="284"/>
			<point x="555" y="214" type="curve"/>
			<point x="394" y="690" type="line"/>
			<point x="170" y="690" type="line"/>
			<point x="24" y="0" type="line"/>
			<point x="204" y="0" type="line"/>
			<point x="264" y="285" type="line" smooth="yes"/>
			<point x="273" y="325"/>
			<point x="286" y="386"/>
			<point x="295" y="456" type="curve"/>
		</contour>
	</outline>
</glyph>
<glyph name="uni0145" format="2">
	<advance width="794"/>
	<unicode hex="0145"/>
	<note>
		Ncommaaccent
	</note>
	<outline>
		<contour>
			<point x="449" y="0" type="line"/>
			<point x="684" y="0" type="line"/>
			<point x="830" y="690" type="line"/>
			<point x="650" y="690" type="line"/>
			<point x="588" y="395" type="line" smooth="yes"/>
			<point x="579" y="355"/>
			<point x="565" y="284"/>
			<point x="555" y="214" type="curve"/>
			<point x="394" y="690" type="line"/>
			<point x="170" y="690" type="line"/>
			<point x="24" y="0" type="line"/>
			<point x="204" y="0" type="line"/>
			<point x="264" y="285" type="line" smooth="yes"/>
			<point x="273" y="325"/>
			<point x="286" y="386"/>
			<point x="295" y="456" type="curve"/>
		</contour>
		<contour>
			<point x="276" y="-216" type="line"/>
			<point x="413" y="-47" type="line"/>
			<point x="415" y="-37" type="line"/>
			<point x="301" y="-37" type="line"/>
			<point x="179" y="-216" type="line"/>
		</contour>
	</outline>
</glyph>
<glyph name="Ncaron" format="2">
	<advance width="794"/>
	<unicode hex="0147"/>
	<note>
		Ncaron
	</note>
	<outline>
		<contour>
			<point x="395" y="860" type="line"/>
			<point x="431" y="735" type="line"/>
			<point x="580" y="735" type="line"/>
			<point x="668" y="860" type="line"/>
			<point x="565" y="860" type="line"/>
			<point x="517" y="784" type="line"/>
			<point x="499" y="860" type="line"/>
		</contour>
		<contour>
			<point x="684" y="0" type="line"/>
			<point x="830" y="690" type="line"/>
			<point x="650" y="690" type="line"/>
			<point x="588" y="395" type="line" smooth="yes"/>
			<point x="579" y="355"/>
			<point x="565" y="284"/>
			<point x="555" y="214" type="curve"/>
			<point x="394" y="690" type="line"/>
			<point x="170" y="690" type="line"/>
			<point x="24" y="0" type="line"/>
			<point x="204" y="0" type="line"/>
			<point x="264" y="285" type="line" smooth="yes"/>
			<point x="273" y="325"/>
			<point x="286" y="386"/>
			<point x="295" y="456" type="curve"/>
			<point x="449" y="0" type="line"/>
		</contour>
	</outline>
</glyph>
<glyph name="Eng" format="2">
	<advance width="794"/>
	<unicode hex="014A"/>
	<note>
		Eng
	</note>
	<outline>
		<contour>
			<point x="672" y="-57" type="curve" smooth="yes"/>
			<point x="830" y="690" type="line"/>
			<point x="650" y="690" type="line"/>
			<point x="596" y="435" type="line" smooth="yes"/>
			<point x="588" y="395"/>
			<point x="574" y="324"/>
			<point x="564" y="254" type="curve"/>
			<point x="394" y="690" type="line"/>
			<point x="170" y="690" type="line"/>
			<point x="24" y="0" type="line"/>
			<point x="204" y="0" type="line"/>
			<point x="264" y="285" type="line" smooth="yes"/>
			<point x="273" y="325"/>
			<point x="286" y="386"/>
			<point x="295" y="456" type="curve"/>
			<point x="499" y="-20" type="line"/>
			<point x="497" y="-33" type="line" smooth="yes"/>
			<point x="490" y="-66"/>
			<point x="471" y="-85"/>
			<point x="409" y="-91" type="curve"/>
			<point x="381" y="-223" type="line"/>
			<point x="556" y="-223"/>
			<point x="634" y="-186"/>
			<point x="662" y="-98" type="curve" smooth="yes"/>
			<point x="666" y="-84"/>
			<point x="668" y="-75"/>
		</contour>
	</outline>
</glyph>
<glyph name="uni0156" format="2">
	<advance width="682"/>
	<unicode hex="0156"/>
	<note>
		Rcommaaccent
	</note>
	<outline>
		<contour>
			<point x="597" y="168" type="curve" smooth="yes"/>
			<point x="605" y="251"/>
			<point x="590" y="304"/>
			<point x="524" y="330" type="curve"/>
			<point x="622" y="357"/>
			<point x="681" y="415"/>
			<point x="699" y="502" type="curve" smooth="yes"/>
			<point x="725" y="624"/>
			<point x="649" y="673"/>
			<point x="551" y="685" type="curve" smooth="yes"/>
			<point x="515" y="689"/>
			<point x="487" y="690"/>
			<point x="444" y="690" type="curve" smooth="yes"/>
			<point x="170" y="690" type="line"/>
			<point x="24" y="0" type="line"/>
			<point x="204" y="0" type="line"/>
			<point x="259" y="262" type="line"/>
			<point x="299" y="262" type="line" smooth="yes"/>
			<point x="319" y="262"/>
			<point x="336" y="262"/>
			<point x="356" y="261" type="curve" smooth="yes"/>
			<point x="402" y="258"/>
			<point x="422" y="214"/>
			<point x="415" y="138" type="curve" smooth="yes"/>
			<point x="411" y="89"/>
			<point x="412" y="49"/>
			<point x="418" y="0" type="curve"/>
			<point x="614" y="0" type="line"/>
			<point x="595" y="41"/>
			<point x="590" y="90"/>
		</contour>
		<contour>
			<point x="352" y="392" type="curve" smooth="yes"/>
			<point x="287" y="392" type="line"/>
			<point x="321" y="550" type="line"/>
			<point x="391" y="550" type="line" smooth="yes"/>
			<point x="410" y="550"/>
			<point x="426" y="550"/>
			<point x="438" y="549" type="curve" smooth="yes"/>
			<point x="484" y="545"/>
			<point x="517" y="529"/>
			<point x="505" y="471" type="curve" smooth="yes"/>
			<point x="492" y="413"/>
			<point x="447" y="397"/>
			<point x="400" y="393" type="curve" smooth="yes"/>
			<point x="387" y="392"/>
			<point x="371" y="392"/>
		</contour>
		<contour>
			<point x="363" y="-37" type="line"/>
			<point x="249" y="-37" type="line"/>
			<point x="127" y="-216" type="line"/>
			<point x="224" y="-216" type="line"/>
			<point x="361" y="-47" type="line"/>
		</contour>
	</outline>
</glyph>
<glyph name="rcaron" format="2">
	<advance width="420"/>
	<unicode hex="0159"/>
	<note>
		rcaron
	</note>
	<outline>
		<contour>
			<point x="169" y="696" type="line"/>
			<point x="204" y="571" type="line"/>
			<point x="353" y="571" type="line"/>
			<point x="442" y="696" type="line"/>
			<point x="339" y="696" type="line"/>
			<point x="290" y="620" type="line"/>
			<point x="273" y="696" type="line"/>
		</contour>
		<contour>
			<point x="437" y="548" type="curve" smooth="yes"/>
			<point x="403" y="548"/>
			<point x="358" y="533"/>
			<point x="322" y="501" type="curve"/>
			<point x="268" y="426" type="line"/>
			<point x="291" y="534" type="line"/>
			<point x="111" y="534" type="line"/>
			<point x="-2" y="0" type="line"/>
			<point x="178" y="0" type="line"/>
			<point x="219" y="196" type="line" smooth="yes"/>
			<point x="254" y="357"/>
			<point x="313" y="407"/>
			<point x="446" y="398" type="curve"/>
			<point x="478" y="545" type="line"/>
			<point x="465" y="547"/>
			<point x="454" y="548"/>
		</contour>
	</outline>
</glyph>
<glyph name="uring" format="2">
	<advance width="640"/>
	<unicode hex="016F"/>
	<note>
		uring
	</note>
	<outline>
		<contour>
			<point x="379" y="567" type="curve" smooth="yes"/>
			<point x="449" y="567"/>
			<point x="507" y="610"/>
			<point x="521" y="674" type="curve" smooth="yes"/>
			<point x="535" y="738"/>
			<point x="495" y="781"/>
			<point x="425" y="781" type="curve" smooth="yes"/>
			<point x="355" y="781"/>
			<point x="297" y="738"/>
			<point x="283" y="674" type="curve" smooth="yes"/>
			<point x="269" y="610"/>
			<point x="309" y="567"/>
		</contour>
		<contour>
			<point x="411" y="715" type="curve" smooth="yes"/>
			<point x="432" y="715"/>
			<point x="443" y="700"/>
			<point x="438" y="674" type="curve" smooth="yes"/>
			<point x="432" y="648"/>
			<point x="414" y="633"/>
			<point x="393" y="633" type="curve" smooth="yes"/>
			<point x="372" y="633"/>
			<point x="360" y="648"/>
			<point x="366" y="674" type="curve" smooth="yes"/>
			<point x="371" y="700"/>
			<point x="390" y="715"/>
		</contour>
		<contour>
			<point x="530" y="0" type="line"/>
			<point x="643" y="534" type="line"/>
			<point x="463" y="534" type="line"/>
			<point x="399" y="232" type="line" smooth="yes"/>
			<point x="384" y="161"/>
			<point x="339" y="108"/>
			<point x="282" y="108" type="curve" smooth="yes"/>
			<point x="225" y="108"/>
			<point x="207" y="138"/>
			<point x="212" y="189" type="curve" smooth="yes"/>
			<point x="215" y="216"/>
			<point x="220" y="245"/>
			<point x="223" y="262" type="curve" smooth="yes"/>
			<point x="281" y="534" type="line"/>
			<point x="101" y="534" type="line"/>
			<point x="35" y="222" type="line" smooth="yes"/>
			<point x="26" y="179"/>
			<point x="20" y="148"/>
			<point x="18" y="121" type="curve" smooth="yes"/>
			<point x="15" y="48"/>
			<point x="69" y="-14"/>
			<point x="179" y="-14" type="curve" smooth="yes"/>
			<point x="228" y="-14"/>
			<point x="268" y="-3"/>
			<point x="305" y="17" type="curve"/>
			<point x="369" y="90" type="line"/>
			<point x="350" y="0" type="line"/>
		</contour>
	</outline>
</glyph>
<glyph name="Uogonek" format="2">
	<advance width="718"/>
	<unicode hex="0172"/>
	<note>
		Uogonek
	</note>
	<outline>
		<contour>
			<point x="688" y="303" type="curve" smooth="yes"/>
			<point x="770" y="690" type="line"/>
			<point x="590" y="690" type="line"/>
			<point x="501" y="270" type="line" smooth="yes"/>
			<point x="497" y="251"/>
			<point x="495" y="241"/>
			<point x="491" y="229" type="curve" smooth="yes"/>
			<point x="471" y="157"/>
			<point x="422" y="118"/>
			<point x="343" y="118" type="curve" smooth="yes"/>
			<point x="264" y="118"/>
			<point x="231" y="157"/>
			<point x="241" y="229" type="curve" smooth="yes"/>
			<point x="243" y="241"/>
			<point x="245" y="251"/>
			<point x="249" y="270" type="curve" smooth="yes"/>
			<point x="338" y="690" type="line"/>
			<point x="158" y="690" type="line"/>
			<point x="76" y="303" type="line" smooth="yes"/>
			<point x="69" y="268"/>
			<point x="64" y="247"/>
			<point x="58" y="206" type="curve" smooth="yes"/>
			<point x="43" y="95"/>
			<point x="97" y="-5"/>
			<point x="288" y="-13" type="curve"/>
			<point x="248" y="-43"/>
			<point x="212" y="-89"/>
			<point x="202" y="-137" type="curve" smooth="yes"/>
			<point x="188" y="-201"/>
			<point x="231" y="-223"/>
			<point x="297" y="-223" type="curve" smooth="yes"/>
			<point x="361" y="-223"/>
			<point x="408" y="-202"/>
			<point x="443" y="-173" type="curve"/>
			<point x="458" y="-100" type="line"/>
			<point x="439" y="-115"/>
			<point x="424" y="-121"/>
			<point x="410" y="-121" type="curve" smooth="yes"/>
			<point x="390" y="-121"/>
			<point x="372" y="-108"/>
			<point x="380" y="-70" type="curve" smooth="yes"/>
			<point x="386" y="-39"/>
			<point x="405" y="-12"/>
			<point x="426" y="-3" type="curve"/>
			<point x="430" y="-2"/>
			<point x="434" y="-1"/>
			<point x="440" y="0" type="curve" smooth="yes"/>
			<point x="569" y="32"/>
			<point x="639" y="115"/>
			<point x="664" y="206" type="curve" smooth="yes"/>
			<point x="676" y="247"/>
			<point x="681" y="268"/>
		</contour>
	</outline>
</glyph>
<glyph name="uogonek" format="2">
	<advance width="640"/>
	<unicode hex="0173"/>
	<note>
		uogonek
	</note>
	<outline>
		<contour>
			<point x="473" y="0" type="curve" smooth="yes"/>
			<point x="530" y="0" type="line"/>
			<point x="643" y="534" type="line"/>
			<point x="463" y="534" type="line"/>
			<point x="399" y="232" type="line" smooth="yes"/>
			<point x="384" y="161"/>
			<point x="339" y="108"/>
			<point x="282" y="108" type="curve" smooth="yes"/>
			<point x="225" y="108"/>
			<point x="207" y="138"/>
			<point x="212" y="189" type="curve" smooth="yes"/>
			<point x="215" y="216"/>
			<point x="220" y="245"/>
			<point x="223" y="262" type="curve" smooth="yes"/>
			<point x="281" y="534" type="line"/>
			<point x="101" y="534" type="line"/>
			<point x="35" y="222" type="line" smooth="yes"/>
			<point x="26" y="179"/>
			<point x="20" y="148"/>
			<point x="18" y="121" type="curve" smooth="yes"/>
			<point x="15" y="48"/>
			<point x="69" y="-14"/>
			<point x="179" y="-14" type="curve" smooth="yes"/>
			<point x="228" y="-14"/>
			<point x="268" y="-3"/>
			<point x="305" y="17" type="curve"/>
			<point x="369" y="90" type="line"/>
			<point x="351" y="5" type="line"/>
			<point x="300" y="-20"/>
			<point x="247" y="-77"/>
			<point x="235" y="-137" type="curve" smooth="yes"/>
			<point x="221" y="-201"/>
			<point x="264" y="-223"/>
			<point x="330" y="-223" type="curve" smooth="yes"/>
			<point x="394" y="-223"/>
			<point x="441" y="-202"/>
			<point x="476" y="-173" type="curve"/>
			<point x="491" y="-100" type="line"/>
			<point x="472" y="-115"/>
			<point x="457" y="-121"/>
			<point x="443" y="-121" type="curve" smooth="yes"/>
			<point x="423" y="-121"/>
			<point x="405" y="-108"/>
			<point x="413" y="-70" type="curve" smooth="yes"/>
			<point x="421" y="-32"/>
			<point x="448" y="0"/>
		</contour>
	</outline>
</glyph>
<glyph name="Wcircumflex" format="2">
	<advance width="1016"/>
	<unicode hex="0174"/>
	<note>
		Wcircumflex
	</note>
	<outline>
		<contour>
			<point x="492" y="735" type="line"/>
			<point x="595" y="735" type="line"/>
			<point x="643" y="811" type="line"/>
			<point x="661" y="735" type="line"/>
			<point x="765" y="735" type="line"/>
			<point x="729" y="860" type="line"/>
			<point x="580" y="860" type="line"/>
		</contour>
		<contour>
			<point x="797" y="0" type="line"/>
			<point x="1119" y="690" type="line"/>
			<point x="935" y="690" type="line"/>
			<point x="718" y="138" type="line"/>
			<point x="746" y="680" type="line"/>
			<point x="488" y="680" type="line"/>
			<point x="282" y="140" type="line"/>
			<point x="307" y="690" type="line"/>
			<point x="116" y="690" type="line"/>
			<point x="136" y="0" type="line"/>
			<point x="377" y="0" type="line"/>
			<point x="584" y="537" type="line"/>
			<point x="557" y="0" type="line"/>
		</contour>
	</outline>
</glyph>
<glyph name="wcircumflex" format="2">
	<advance width="868"/>
	<unicode hex="0175"/>
	<note>
		wcircumflex
	</note>
	<outline>
		<contour>
			<point x="367" y="571" type="line"/>
			<point x="470" y="571" type="line"/>
			<point x="518" y="647" type="line"/>
			<point x="536" y="571" type="line"/>
			<point x="640" y="571" type="line"/>
			<point x="605" y="696" type="line"/>
			<point x="456" y="696" type="line"/>
		</contour>
		<contour>
			<point x="651" y="0" type="line"/>
			<point x="933" y="534" type="line"/>
			<point x="739" y="534" type="line"/>
			<point x="590" y="151" type="line"/>
			<point x="602" y="530" type="line"/>
			<point x="388" y="530" type="line"/>
			<point x="244" y="152" type="line"/>
			<point x="255" y="534" type="line"/>
			<point x="57" y="534" type="line"/>
			<point x="113" y="0" type="line"/>
			<point x="314" y="0" type="line"/>
			<point x="458" y="360" type="line"/>
			<point x="450" y="0" type="line"/>
		</contour>
	</outline>
</glyph>
<glyph name="ycircumflex" format="2">
	<advance width="608"/>
	<unicode hex="0177"/>
	<note>
		ycircumflex
	</note>
	<outline>
		<contour>
			<point x="228" y="571" type="line"/>
			<point x="331" y="571" type="line"/>
			<point x="379" y="647" type="line"/>
			<point x="397" y="571" type="line"/>
			<point x="501" y="571" type="line"/>
			<point x="466" y="696" type="line"/>
			<point x="317" y="696" type="line"/>
		</contour>
		<contour>
			<point x="349" y="0" type="curve" smooth="yes"/>
			<point x="673" y="534" type="line"/>
			<point x="476" y="534" type="line"/>
			<point x="284" y="143" type="line"/>
			<point x="257" y="534" type="line"/>
			<point x="57" y="534" type="line"/>
			<point x="160" y="-24" type="line"/>
			<point x="149" y="-39" type="line" smooth="yes"/>
			<point x="124" y="-77"/>
			<point x="92" y="-91"/>
			<point x="50" y="-91" type="curve" smooth="yes"/>
			<point x="32" y="-91"/>
			<point x="16" y="-91"/>
			<point x="2" y="-89" type="curve"/>
			<point x="-23" y="-205" type="line"/>
			<point x="2" y="-209"/>
			<point x="23" y="-210"/>
			<point x="52" y="-210" type="curve" smooth="yes"/>
			<point x="179" y="-210"/>
			<point x="246" y="-169"/>
		</contour>
	</outline>
</glyph>
<glyph name="Ydieresis" format="2">
	<advance width="663"/>
	<unicode hex="0178"/>
	<note>
		Ydieresis
	</note>
	<outline>
		<contour>
			<point x="381" y="0" type="line"/>
			<point x="437" y="264" type="line"/>
			<point x="770" y="690" type="line"/>
			<point x="573" y="690" type="line"/>
			<point x="384" y="417" type="line"/>
			<point x="306" y="690" type="line"/>
			<point x="104" y="690" type="line"/>
			<point x="257" y="264" type="line"/>
			<point x="201" y="0" type="line"/>
		</contour>
		<contour>
			<point x="300" y="864" type="line"/>
			<point x="269" y="717" type="line"/>
			<point x="419" y="717" type="line"/>
			<point x="450" y="864" type="line"/>
		</contour>
		<contour>
			<point x="501" y="864" type="line"/>
			<point x="470" y="717" type="line"/>
			<point x="620" y="717" type="line"/>
			<point x="651" y="864" type="line"/>
		</contour>
	</outline>
</glyph>
<glyph name="zdotaccent" format="2">
	<advance width="526"/>
	<unicode hex="017C"/>
	<note>
		zdotaccent
	</note>
	<outline>
		<contour>
			<point x="342" y="575" type="curve" smooth="yes"/>
			<point x="398" y="575"/>
			<point x="442" y="609"/>
			<point x="454" y="663" type="curve" smooth="yes"/>
			<point x="465" y="717"/>
			<point x="435" y="751"/>
			<point x="379" y="751" type="curve" smooth="yes"/>
			<point x="323" y="751"/>
			<point x="279" y="717"/>
			<point x="268" y="663" type="curve" smooth="yes"/>
			<point x="256" y="609"/>
			<point x="286" y="575"/>
		</contour>
		<contour>
			<point x="441" y="0" type="line"/>
			<point x="464" y="112" type="line"/>
			<point x="194" y="112" type="line"/>
			<point x="527" y="420" type="line"/>
			<point x="550" y="530" type="line"/>
			<point x="105" y="530" type="line"/>
			<point x="82" y="418" type="line"/>
			<point x="337" y="418" type="line"/>
			<point x="0" y="105" type="line"/>
			<point x="-22" y="0" type="line"/>
		</contour>
	</outline>
</glyph>
<glyph name="Zcaron" format="2">
	<advance width="648"/>
	<unicode hex="017D"/>
	<note>
		Zcaron
	</note>
	<outline>
		<contour>
			<point x="331" y="860" type="line"/>
			<point x="367" y="735" type="line"/>
			<point x="516" y="735" type="line"/>
			<point x="604" y="860" type="line"/>
			<point x="501" y="860" type="line"/>
			<point x="453" y="784" type="line"/>
			<point x="435" y="860" type="line"/>
		</contour>
		<contour>
			<point x="562" y="0" type="line"/>
			<point x="591" y="140" type="line"/>
			<point x="249" y="140" type="line"/>
			<point x="675" y="551" type="line"/>
			<point x="704" y="690" type="line"/>
			<point x="171" y="690" type="line"/>
			<point x="142" y="550" type="line"/>
			<point x="455" y="550" type="line"/>
			<point x="26" y="136" type="line"/>
			<point x="-3" y="0" type="line"/>
		</contour>
	</outline>
</glyph>
<glyph name="circumflex" format="2">
	<advance width="300"/>
	<unicode hex="02C6"/>
	<note>
		circumflex
	</note>
	<outline>
		<contour>
			<point x="230" y="647" type="line"/>
			<point x="248" y="571" type="line"/>
			<point x="352" y="571" type="line"/>
			<point x="317" y="696" type="line"/>
			<point x="168" y="696" type="line"/>
			<point x="79" y="571" type="line"/>
			<point x="182" y="571" type="line"/>
		</contour>
	</outline>
</glyph>
<glyph name="ogonek" format="2">
	<advance width="300"/>
	<unicode hex="02DB"/>
	<note>
		ogonek
	</note>
	<outline>
		<contour>
			<point x="217" y="0" type="curve"/>
			<point x="95" y="5" type="line"/>
			<point x="44" y="-20"/>
			<point x="-9" y="-77"/>
			<point x="-21" y="-137" type="curve" smooth="yes"/>
			<point x="-35" y="-201"/>
			<point x="8" y="-223"/>
			<point x="74" y="-223" type="curve" smooth="yes"/>
			<point x="138" y="-223"/>
			<point x="185" y="-202"/>
			<point x="220" y="-173" type="curve"/>
			<point x="235" y="-100" type="line"/>
			<point x="216" y="-115"/>
			<point x="201" y="-121"/>
			<point x="187" y="-121" type="curve" smooth="yes"/>
			<point x="167" y="-121"/>
			<point x="149" y="-108"/>
			<point x="157" y="-70" type="curve" smooth="yes"/>
			<point x="165" y="-32"/>
			<point x="192" y="0"/>
		</contour>
	</outline>
</glyph>
<glyph name="uni0326" format="2">
	<advance width="0"/>
	<unicode hex="0326"/>
	<note>
		uni0326
	</note>
	<outline>
		<contour>
			<point x="21" y="-216" type="line"/>
			<point x="158" y="-47" type="line"/>
			<point x="160" y="-37" type="line"/>
			<point x="46" y="-37" type="line"/>
			<point x="-76" y="-216" type="line"/>
		</contour>
	</outline>
</glyph>
<glyph name="Wdieresis" format="2">
	<advance width="1016"/>
	<unicode hex="1E84"/>
	<note>
		Wdieresis
	</note>
	<outline>
		<contour>
			<point x="797" y="0" type="line"/>
			<point x="1119" y="690" type="line"/>
			<point x="935" y="690" type="line"/>
			<point x="718" y="138" type="line"/>
			<point x="746" y="680" type="line"/>
			<point x="488" y="680" type="line"/>
			<point x="282" y="140" type="line"/>
			<point x="307" y="690" type="line"/>
			<point x="116" y="690" type="line"/>
			<point x="136" y="0" type="line"/>
			<point x="377" y="0" type="line"/>
			<point x="584" y="537" type="line"/>
			<point x="557" y="0" type="line"/>
		</contour>
		<contour>
			<point x="481" y="866" type="line"/>
			<point x="450" y="719" type="line"/>
			<point x="600" y="719" type="line"/>
			<point x="631" y="866" type="line"/>
		</contour>
		<contour>
			<point x="682" y="866" type="line"/>
			<point x="651" y="719" type="line"/>
			<point x="801" y="719" type="line"/>
			<point x="832" y="866" type="line"/>
		</contour>
	</outline>
</glyph>
<glyph name="Ygrave" format="2">
	<advance width="663"/>
	<unicode hex="1EF2"/>
	<note>
		Ygrave
	</note>
	<outline>
		<contour>
			<point x="283" y="860" type="line"/>
			<point x="412" y="735" type="line"/>
			<point x="508" y="735" type="line"/>
			<point x="443" y="860" type="line"/>
		</contour>
		<contour>
			<point x="381" y="0" type="line"/>
			<point x="437" y="264" type="line"/>
			<point x="770" y="690" type="line"/>
			<point x="573" y="690" type="line"/>
			<point x="384" y="417" type="line"/>
			<point x="306" y="690" type="line"/>
			<point x="104" y="690" type="line"/>
			<point x="257" y="264" type="line"/>
			<point x="201" y="0" type="line"/>
		</contour>
	</outline>
</glyph>
<glyph name="endash" format="2">
	<advance width="500"/>
	<unicode hex="2013"/>
	<note>
		endash
	</note>
	<outline>
		<contour>
			<point x="85" y="242" type="line"/>
			<point x="405" y="242" type="line"/>
			<point x="426" y="338" type="line"/>
			<point x="106" y="338" type="line"/>
		</contour>
	</outline>
</glyph>
<glyph name="quoteleft" format="2">
	<advance width="322"/>
	<unicode hex="2018"/>
	<note>
		quoteleft
	</note>
	<outline>
		<contour>
			<point x="267" y="735" type="line"/>
			<point x="97" y="449" type="line"/>
			<point x="95" y="439" type="line"/>
			<point x="262" y="439" type="line"/>
			<point x="405" y="735" type="line"/>
		</contour>
	</outline>
</glyph>
<glyph name="quotesinglbase" format="2">
	<advance width="266"/>
	<unicode hex="201A"/>
	<note>
		quotesinglbase
	</note>
	<outline>
		<contour>
			<point x="29" y="-124" type="line"/>
			<point x="199" y="162" type="line"/>
			<point x="201" y="172" type="line"/>
			<point x="34" y="172" type="line"/>
			<point x="-109" y="-124" type="line"/>
		</contour>
	</outline>
</glyph>
<glyph name="quotedblleft" format="2">
	<advance width="562"/>
	<unicode hex="201C"/>
	<note>
		quotedblleft
	</note>
	<outline>
		<contour>
			<point x="267" y="735" type="line"/>
			<point x="97" y="449" type="line"/>
			<point x="95" y="439" type="line"/>
			<point x="262" y="439" type="line"/>
			<point x="405" y="735" type="line"/>
		</contour>
		<contour>
			<point x="507" y="735" type="line"/>
			<point x="337" y="449" type="line"/>
			<point x="335" y="439" type="line"/>
			<point x="502" y="439" type="line"/>
			<point x="645" y="735" type="line"/>
		</contour>
	</outline>
</glyph>
<glyph name="quotedblright" format="2">
	<advance width="562"/>
	<unicode hex="201D"/>
	<note>
		quotedblright
	</note>
	<outline>
		<contour>
			<point x="192" y="439" type="line"/>
			<point x="362" y="725" type="line"/>
			<point x="364" y="735" type="line"/>
			<point x="197" y="735" type="line"/>
			<point x="54" y="439" type="line"/>
		</contour>
		<contour>
			<point x="432" y="439" type="line"/>
			<point x="602" y="725" type="line"/>
			<point x="604" y="735" type="line"/>
			<point x="437" y="735" type="line"/>
			<point x="294" y="439" type="line"/>
		</contour>
	</outline>
</glyph>
<glyph name="quotedblbase" format="2">
	<advance width="506"/>
	<unicode hex="201E"/>
	<note>
		quotedblbase
	</note>
	<outline>
		<contour>
			<point x="29" y="-124" type="line"/>
			<point x="199" y="162" type="line"/>
			<point x="201" y="172" type="line"/>
			<point x="34" y="172" type="line"/>
			<point x="-109" y="-124" type="line"/>
		</contour>
		<contour>
			<point x="269" y="-124" type="line"/>
			<point x="439" y="162" type="line"/>
			<point x="441" y="172" type="line"/>
			<point x="274" y="172" type="line"/>
			<point x="131" y="-124" type="line"/>
		</contour>
	</outline>
</glyph>
<glyph name="daggerdbl" format="2">
	<advance width="570"/>
	<unicode hex="2021"/>
	<note>
		daggerdbl
	</note>
	<outline>
		<contour>
			<point x="338" y="188" type="line"/>
			<point x="370" y="342" type="line"/>
			<point x="550" y="338" type="line"/>
			<point x="581" y="488" type="line"/>
			<point x="403" y="484" type="line"/>
			<point x="456" y="690" type="line"/>
			<point x="294" y="690" type="line"/>
			<point x="261" y="484" type="line"/>
			<point x="83" y="488" type="line"/>
			<point x="52" y="338" type="line"/>
			<point x="232" y="342" type="line"/>
			<point x="200" y="188" type="line"/>
			<point x="20" y="192" type="line"/>
			<point x="-11" y="42" type="line"/>
			<point x="167" y="46" type="line"/>
			<point x="114" y="-160" type="line"/>
			<point x="276" y="-160" type="line"/>
			<point x="309" y="46" type="line"/>
			<point x="487" y="42" type="line"/>
			<point x="518" y="192" type="line"/>
		</contour>
	</outline>
</glyph>
<glyph name="perthousand" format="2">
	<advance width="1132"/>
	<unicode hex="2030"/>
	<note>
		perthousand
	</note>
	<outline>
		<contour>
			<point x="408" y="535" type="curve" smooth="yes"/>
			<point x="431" y="643"/>
			<point x="384" y="704"/>
			<point x="284" y="704" type="curve" smooth="yes"/>
			<point x="184" y="704"/>
			<point x="111" y="643"/>
			<point x="88" y="535" type="curve" smooth="yes"/>
			<point x="66" y="428"/>
			<point x="112" y="366"/>
			<point x="212" y="366" type="curve" smooth="yes"/>
			<point x="312" y="366"/>
			<point x="386" y="428"/>
		</contour>
		<contour>
			<point x="178" y="0" type="line"/>
			<point x="771" y="690" type="line"/>
			<point x="648" y="690" type="line"/>
			<point x="55" y="0" type="line"/>
		</contour>
		<contour>
			<point x="196" y="535" type="curve" smooth="yes"/>
			<point x="208" y="590"/>
			<point x="230" y="620"/>
			<point x="266" y="620" type="curve" smooth="yes"/>
			<point x="302" y="620"/>
			<point x="312" y="590"/>
			<point x="300" y="535" type="curve" smooth="yes"/>
			<point x="289" y="481"/>
			<point x="266" y="450"/>
			<point x="230" y="450" type="curve" smooth="yes"/>
			<point x="194" y="450"/>
			<point x="185" y="481"/>
		</contour>
		<contour>
			<point x="604" y="324" type="curve" smooth="yes"/>
			<point x="504" y="324"/>
			<point x="431" y="263"/>
			<point x="408" y="155" type="curve" smooth="yes"/>
			<point x="385" y="48"/>
			<point x="432" y="-14"/>
			<point x="532" y="-14" type="curve" smooth="yes"/>
			<point x="632" y="-14"/>
			<point x="705" y="48"/>
			<point x="728" y="155" type="curve" smooth="yes"/>
			<point x="751" y="263"/>
			<point x="704" y="324"/>
		</contour>
		<contour>
			<point x="954" y="324" type="curve" smooth="yes"/>
			<point x="854" y="324"/>
			<point x="781" y="263"/>
			<point x="758" y="155" type="curve" smooth="yes"/>
			<point x="735" y="48"/>
			<point x="782" y="-14"/>
			<point x="882" y="-14" type="curve" smooth="yes"/>
			<point x="982" y="-14"/>
			<point x="1055" y="48"/>
			<point x="1078" y="155" type="curve" smooth="yes"/>
			<point x="1101" y="263"/>
			<point x="1054" y="324"/>
		</contour>
		<contour>
			<point x="550" y="70" type="curve" smooth="yes"/>
			<point x="514" y="70"/>
			<point x="504" y="101"/>
			<point x="516" y="155" type="curve" smooth="yes"/>
			<point x="527" y="210"/>
			<point x="550" y="240"/>
			<point x="586" y="240" type="curve" smooth="yes"/>
			<point x="622" y="240"/>
			<point x="631" y="210"/>
			<point x="620" y="155" type="curve" smooth="yes"/>
			<point x="608" y="101"/>
			<point x="586" y="70"/>
		</contour>
		<contour>
			<point x="900" y="70" type="curve" smooth="yes"/>
			<point x="864" y="70"/>
			<point x="854" y="101"/>
			<point x="866" y="155" type="curve" smooth="yes"/>
			<point x="877" y="210"/>
			<point x="900" y="240"/>
			<point x="936" y="240" type="curve" smooth="yes"/>
			<point x="972" y="240"/>
			<point x="981" y="210"/>
			<point x="970" y="155" type="curve" smooth="yes"/>
			<point x="958" y="101"/>
			<point x="936" y="70"/>
		</contour>
	</outline>
</glyph>
<glyph name="guilsinglleft" format="2">
	<advance width="457"/>
	<unicode hex="2039"/>
	<note>
		guilsinglleft
	</note>
	<outline>
		<contour>
			<point x="272" y="248" type="line"/>
			<point x="445" y="414" type="line"/>
			<point x="316" y="414" type="line"/>
			<point x="143" y="248" type="line"/>
			<point x="245" y="82" type="line"/>
			<point x="374" y="82" type="line"/>
		</contour>
	</outline>
</glyph>
<glyph name="fraction" format="2">
	<advance width="370"/>
	<unicode hex="2044"/>
	<note>
		fraction
	</note>
	<outline>
		<contour>
			<point x="-156" y="0" type="line"/>
			<point x="-33" y="0" type="line"/>
			<point x="560" y="690" type="line"/>
			<point x="437" y="690" type="line"/>
		</contour>
	</outline>
</glyph>
<glyph name="product" format="2">
	<advance width="662"/>
	<unicode hex="220F"/>
	<note>
		product
	</note>
	<outline>
		<contour>
			<point x="629" y="550" type="line"/>
			<point x="686" y="550" type="line"/>
			<point x="715" y="690" type="line"/>
			<point x="127" y="690" type="line"/>
			<point x="98" y="550" type="line"/>
			<point x="155" y="550" type="line"/>
			<point x="14" y="-110" type="line"/>
			<point x="194" y="-110" type="line"/>
			<point x="335" y="550" type="line"/>
			<point x="449" y="550" type="line"/>
			<point x="308" y="-110" type="line"/>
			<point x="488" y="-110" type="line"/>
		</contour>
	</outline>
</glyph>
<glyph name="summation" format="2">
	<advance width="662"/>
	<unicode hex="2211"/>
	<note>
		summation
	</note>
	<outline>
		<contour>
			<point x="531" y="-110" type="line"/>
			<point x="561" y="30" type="line"/>
			<point x="230" y="30" type="line"/>
			<point x="512" y="300" type="line"/>
			<point x="369" y="550" type="line"/>
			<point x="666" y="550" type="line"/>
			<point x="695" y="690" type="line"/>
			<point x="172" y="690" type="line"/>
			<point x="149" y="578" type="line"/>
			<point x="305" y="301" type="line"/>
			<point x="-4" y="2" type="line"/>
			<point x="-28" y="-110" type="line"/>
		</contour>
	</outline>
</glyph>
<glyph name="minus" format="2">
	<advance width="662"/>
	<unicode hex="2212"/>
	<note>
		minus
	</note>
	<outline>
		<contour>
			<point x="107" y="269" type="line"/>
			<point x="557" y="269" type="line"/>
			<point x="577" y="365" type="line"/>
			<point x="127" y="365" type="line"/>
		</contour>
	</outline>
</glyph>
<glyph name="approxequal" format="2">
	<advance width="662"/>
	<unicode hex="2248"/>
	<note>
		approxequal
	</note>
	<outline>
		<contour>
			<point x="271" y="496" type="curve" smooth="yes"/>
			<point x="218" y="496"/>
			<point x="166" y="476"/>
			<point x="110" y="408" type="curve"/>
			<point x="155" y="345" type="line"/>
			<point x="189" y="376"/>
			<point x="218" y="391"/>
			<point x="252" y="391" type="curve" smooth="yes"/>
			<point x="275" y="391"/>
			<point x="289" y="384"/>
			<point x="336" y="356" type="curve" smooth="yes"/>
			<point x="385" y="327"/>
			<point x="409" y="315"/>
			<point x="450" y="315" type="curve" smooth="yes"/>
			<point x="503" y="315"/>
			<point x="555" y="335"/>
			<point x="610" y="403" type="curve"/>
			<point x="566" y="466" type="line"/>
			<point x="532" y="435"/>
			<point x="503" y="420"/>
			<point x="469" y="420" type="curve" smooth="yes"/>
			<point x="446" y="420"/>
			<point x="431" y="427"/>
			<point x="384" y="455" type="curve" smooth="yes"/>
			<point x="336" y="484"/>
			<point x="312" y="496"/>
		</contour>
		<contour>
			<point x="229" y="296" type="curve" smooth="yes"/>
			<point x="176" y="296"/>
			<point x="123" y="276"/>
			<point x="68" y="208" type="curve"/>
			<point x="112" y="145" type="line"/>
			<point x="146" y="176"/>
			<point x="175" y="191"/>
			<point x="209" y="191" type="curve" smooth="yes"/>
			<point x="232" y="191"/>
			<point x="247" y="184"/>
			<point x="294" y="156" type="curve" smooth="yes"/>
			<point x="343" y="127"/>
			<point x="366" y="115"/>
			<point x="407" y="115" type="curve" smooth="yes"/>
			<point x="460" y="115"/>
			<point x="512" y="135"/>
			<point x="568" y="203" type="curve"/>
			<point x="523" y="266" type="line"/>
			<point x="490" y="235"/>
			<point x="460" y="220"/>
			<point x="426" y="220" type="curve" smooth="yes"/>
			<point x="403" y="220"/>
			<point x="389" y="227"/>
			<point x="342" y="255" type="curve" smooth="yes"/>
			<point x="293" y="284"/>
			<point x="270" y="296"/>
		</contour>
	</outline>
</glyph>
<glyph name="notequal" format="2">
	<advance width="662"/>
	<unicode hex="2260"/>
	<note>
		notequal
	</note>
	<outline>
		<contour>
			<point x="355" y="261" type="line"/>
			<point x="434" y="373" type="line"/>
			<point x="599" y="373" type="line"/>
			<point x="618" y="461" type="line"/>
			<point x="496" y="461" type="line"/>
			<point x="574" y="572" type="line"/>
			<point x="469" y="572" type="line"/>
			<point x="391" y="461" type="line"/>
			<point x="128" y="461" type="line"/>
			<point x="109" y="373" type="line"/>
			<point x="329" y="373" type="line"/>
			<point x="250" y="261" type="line"/>
			<point x="85" y="261" type="line"/>
			<point x="66" y="173" type="line"/>
			<point x="188" y="173" type="line"/>
			<point x="110" y="62" type="line"/>
			<point x="215" y="62" type="line"/>
			<point x="293" y="173" type="line"/>
			<point x="556" y="173" type="line"/>
			<point x="575" y="261" type="line"/>
		</contour>
	</outline>
</glyph>
<glyph name="greaterequal" format="2">
	<advance width="662"/>
	<unicode hex="2265"/>
	<note>
		greaterequal
	</note>
	<outline>
		<contour>
			<point x="529" y="252" type="line"/>
			<point x="558" y="388" type="line"/>
			<point x="156" y="520" type="line"/>
			<point x="134" y="416" type="line"/>
			<point x="445" y="320" type="line"/>
			<point x="95" y="230" type="line"/>
			<point x="71" y="120" type="line"/>
		</contour>
		<contour>
			<point x="496" y="96" type="line"/>
			<point x="66" y="96" type="line"/>
			<point x="46" y="0" type="line"/>
			<point x="476" y="0" type="line"/>
		</contour>
	</outline>
</glyph>
<glyph name="fl" format="2">
	<advance width="677"/>
	<unicode hex="FB02"/>
	<note>
		fl
	</note>
	<outline>
		<contour>
			<point x="578" y="143" type="curve" smooth="yes"/>
			<point x="579" y="156"/>
			<point x="581" y="167"/>
			<point x="586" y="192" type="curve" smooth="yes"/>
			<point x="699" y="723" type="line"/>
			<point x="645" y="742"/>
			<point x="567" y="754"/>
			<point x="466" y="754" type="curve" smooth="yes"/>
			<point x="251" y="754"/>
			<point x="164" y="682"/>
			<point x="134" y="582" type="curve" smooth="yes"/>
			<point x="130" y="564"/>
			<point x="127" y="550"/>
			<point x="123" y="534" type="curve" smooth="yes"/>
			<point x="122" y="530" type="line"/>
			<point x="75" y="530" type="line"/>
			<point x="52" y="418" type="line"/>
			<point x="99" y="418" type="line"/>
			<point x="10" y="0" type="line"/>
			<point x="190" y="0" type="line"/>
			<point x="279" y="418" type="line"/>
			<point x="388" y="418" type="line"/>
			<point x="411" y="530" type="line"/>
			<point x="302" y="530" type="line"/>
			<point x="303" y="534" type="line" smooth="yes"/>
			<point x="306" y="547"/>
			<point x="309" y="560"/>
			<point x="313" y="574" type="curve" smooth="yes"/>
			<point x="325" y="613"/>
			<point x="364" y="632"/>
			<point x="440" y="632" type="curve" smooth="yes"/>
			<point x="465" y="632"/>
			<point x="480" y="631"/>
			<point x="499" y="625" type="curve"/>
			<point x="406" y="189" type="line" smooth="yes"/>
			<point x="397" y="149"/>
			<point x="392" y="122"/>
			<point x="388" y="94" type="curve" smooth="yes"/>
			<point x="377" y="23"/>
			<point x="417" y="-10"/>
			<point x="490" y="-10" type="curve" smooth="yes"/>
			<point x="530" y="-10"/>
			<point x="567" y="-8"/>
			<point x="606" y="-4" type="curve"/>
			<point x="629" y="107" type="line"/>
			<point x="589" y="105"/>
			<point x="575" y="112"/>
		</contour>
	</outline>
</glyph>
<glyph name="A_O" format="2">
	<advance width="1113"/>
	<unicode hex="F1030"/>
	<outline>
		<contour>
			<point x="179" y="179" type="line"/>
			<point x="392" y="179" type="line"/>
			<point x="419" y="57"/>
			<point x="518" y="-14"/>
			<point x="673" y="-14" type="curve" smooth="yes"/>
			<point x="888" y="-14"/>
			<point x="1055" y="124"/>
			<point x="1102" y="345" type="curve" smooth="yes"/>
			<point x="1149" y="567"/>
			<point x="1040" y="704"/>
			<point x="825" y="704" type="curve" smooth="yes"/>
			<point x="705" y="704"/>
			<point x="600" y="661"/>
			<point x="522" y="584" type="curve"/>
			<point x="507" y="690" type="line"/>
			<point x="287" y="690" type="line"/>
			<point x="-108" y="0" type="line"/>
			<point x="83" y="0" type="line"/>
		</contour>
		<contour>
			<point x="252" y="319" type="line"/>
			<point x="362" y="531" type="line"/>
			<point x="380" y="319" type="line"/>
		</contour>
		<contour>
			<point x="580" y="345" type="curve" smooth="yes"/>
			<point x="611" y="492"/>
			<point x="693" y="572"/>
			<point x="797" y="572" type="curve" smooth="yes"/>
			<point x="901" y="572"/>
			<point x="949" y="492"/>
			<point x="918" y="345" type="curve" smooth="yes"/>
			<point x="887" y="199"/>
			<point x="805" y="118"/>
			<point x="701" y="118" type="curve" smooth="yes"/>
			<point x="597" y="118"/>
			<point x="549" y="199"/>
		</contour>
	</outline>
</glyph>
<glyph name="E_A" format="2">
	<advance width="1088"/>
	<unicode hex="F1810"/>
	<outline>
		<contour>
			<point x="553" y="0" type="line"/>
			<point x="582" y="140" type="line"/>
			<point x="233" y="140" type="line"/>
			<point x="262" y="276" type="line"/>
			<point x="795" y="276" type="line"/>
			<point x="815" y="97" type="line"/>
			<point x="1011" y="97" type="line"/>
			<point x="909" y="787" type="line"/>
			<point x="689" y="787" type="line"/>
			<point x="633" y="690" type="line"/>
			<point x="170" y="690" type="line"/>
			<point x="24" y="0" type="line"/>
		</contour>
		<contour>
			<point x="292" y="416" type="line"/>
			<point x="321" y="550" type="line"/>
			<point x="553" y="550" type="line"/>
			<point x="477" y="416" type="line"/>
		</contour>
		<contour>
			<point x="654" y="416" type="line"/>
			<point x="763" y="628" type="line"/>
			<point x="782" y="416" type="line"/>
		</contour>
	</outline>
</glyph>
<glyph name="E_U" format="2">
	<advance width="1049"/>
	<unicode hex="F18A0"/>
	<outline>
		<contour>
			<point x="1019" y="303" type="curve" smooth="yes"/>
			<point x="1101" y="690" type="line"/>
			<point x="921" y="690" type="line"/>
			<point x="832" y="270" type="line" smooth="yes"/>
			<point x="828" y="251"/>
			<point x="826" y="241"/>
			<point x="822" y="229" type="curve" smooth="yes"/>
			<point x="802" y="157"/>
			<point x="753" y="118"/>
			<point x="674" y="118" type="curve" smooth="yes"/>
			<point x="595" y="118"/>
			<point x="562" y="157"/>
			<point x="572" y="229" type="curve" smooth="yes"/>
			<point x="574" y="241"/>
			<point x="576" y="251"/>
			<point x="580" y="270" type="curve" smooth="yes"/>
			<point x="611" y="416" type="line"/>
			<point x="292" y="416" type="line"/>
			<point x="321" y="550" type="line"/>
			<point x="660" y="550" type="line"/>
			<point x="689" y="690" type="line"/>
			<point x="170" y="690" type="line"/>
			<point x="24" y="0" type="line"/>
			<point x="527" y="0" type="line"/>
			<point x="560" y="-9"/>
			<point x="599" y="-14"/>
			<point x="646" y="-14" type="curve" smooth="yes"/>
			<point x="859" y="-14"/>
			<point x="963" y="90"/>
			<point x="995" y="206" type="curve" smooth="yes"/>
			<point x="1007" y="247"/>
			<point x="1012" y="268"/>
		</contour>
		<contour>
			<point x="233" y="140" type="line"/>
			<point x="262" y="276" type="line"/>
			<point x="401" y="276" type="line"/>
			<point x="397" y="255"/>
			<point x="394" y="235"/>
			<point x="389" y="206" type="curve" smooth="yes"/>
			<point x="386" y="183"/>
			<point x="386" y="161"/>
			<point x="389" y="140" type="curve"/>
		</contour>
	</outline>
</glyph>
<glyph name="e_a" format="2">
	<advance width="960"/>
	<unicode hex="F1910"/>
	<outline>
		<contour>
			<point x="334" y="426" type="curve" smooth="yes"/>
			<point x="382" y="426"/>
			<point x="407" y="395"/>
			<point x="403" y="332" type="curve"/>
			<point x="222" y="332" type="line"/>
			<point x="248" y="398"/>
			<point x="287" y="426"/>
		</contour>
		<contour>
			<point x="24" y="265" type="curve" smooth="yes"/>
			<point x="-16" y="77"/>
			<point x="87" y="-14"/>
			<point x="240" y="-14" type="curve" smooth="yes"/>
			<point x="377" y="-14"/>
			<point x="491" y="54"/>
			<point x="548" y="175" type="curve"/>
			<point x="371" y="175" type="line"/>
			<point x="355" y="134"/>
			<point x="319" y="108"/>
			<point x="268" y="108" type="curve" smooth="yes"/>
			<point x="217" y="108"/>
			<point x="183" y="133"/>
			<point x="193" y="222" type="curve"/>
			<point x="565" y="222" type="line" smooth="yes"/>
			<point x="614" y="222"/>
			<point x="661" y="234"/>
			<point x="705" y="258" type="curve"/>
			<point x="738" y="314" type="line"/>
			<point x="734" y="236" type="line"/>
			<point x="910" y="236" type="line"/>
			<point x="914" y="295"/>
			<point x="920" y="331"/>
			<point x="929" y="371" type="curve" smooth="yes"/>
			<point x="960" y="521" type="line" smooth="yes"/>
			<point x="967" y="554"/>
			<point x="973" y="585"/>
			<point x="977" y="612" type="curve" smooth="yes"/>
			<point x="989" y="709"/>
			<point x="947" y="784"/>
			<point x="778" y="784" type="curve" smooth="yes"/>
			<point x="643" y="784"/>
			<point x="517" y="713"/>
			<point x="490" y="588" type="curve"/>
			<point x="660" y="589" type="line"/>
			<point x="673" y="635"/>
			<point x="702" y="662"/>
			<point x="744" y="662" type="curve" smooth="yes"/>
			<point x="783" y="662"/>
			<point x="800" y="638"/>
			<point x="798" y="611" type="curve" smooth="yes"/>
			<point x="796" y="594"/>
			<point x="794" y="583"/>
			<point x="791" y="572" type="curve" smooth="yes"/>
			<point x="790" y="564" type="line"/>
			<point x="756" y="564" type="line" smooth="yes"/>
			<point x="655" y="564"/>
			<point x="572" y="542"/>
			<point x="515" y="504" type="curve"/>
			<point x="480" y="531"/>
			<point x="432" y="548"/>
			<point x="369" y="548" type="curve" smooth="yes"/>
			<point x="191" y="548"/>
			<point x="57" y="421"/>
		</contour>
		<contour>
			<point x="614" y="394" type="curve" smooth="yes"/>
			<point x="626" y="447"/>
			<point x="688" y="468"/>
			<point x="768" y="462" type="curve"/>
			<point x="760" y="427" type="line" smooth="yes"/>
			<point x="749" y="371"/>
			<point x="701" y="344"/>
			<point x="665" y="344" type="curve" smooth="yes"/>
			<point x="629" y="344"/>
			<point x="608" y="362"/>
		</contour>
	</outline>
</glyph>
<glyph name="eacute_e" format="2">
	<advance width="968"/>
	<unicode hex="F1920"/>
	<outline>
		<contour>
			<point x="313" y="571" type="line"/>
			<point x="409" y="571" type="line"/>
			<point x="591" y="696" type="line"/>
			<point x="431" y="696" type="line"/>
		</contour>
		<contour>
			<point x="24" y="265" type="curve" smooth="yes"/>
			<point x="-16" y="77"/>
			<point x="87" y="-14"/>
			<point x="240" y="-14" type="curve" smooth="yes"/>
			<point x="377" y="-14"/>
			<point x="491" y="54"/>
			<point x="548" y="175" type="curve"/>
			<point x="371" y="175" type="line"/>
			<point x="355" y="134"/>
			<point x="319" y="108"/>
			<point x="268" y="108" type="curve" smooth="yes"/>
			<point x="217" y="108"/>
			<point x="183" y="133"/>
			<point x="193" y="222" type="curve"/>
			<point x="932" y="222" type="line"/>
			<point x="938" y="240"/>
			<point x="943" y="258"/>
			<point x="946" y="274" type="curve" smooth="yes"/>
			<point x="975" y="412"/>
			<point x="914" y="548"/>
			<point x="736" y="548" type="curve" smooth="yes"/>
			<point x="659" y="548"/>
			<point x="591" y="524"/>
			<point x="535" y="485" type="curve"/>
			<point x="499" y="524"/>
			<point x="445" y="548"/>
			<point x="369" y="548" type="curve" smooth="yes"/>
			<point x="191" y="548"/>
			<point x="57" y="421"/>
		</contour>
		<contour>
			<point x="222" y="332" type="line"/>
			<point x="248" y="398"/>
			<point x="287" y="426"/>
			<point x="334" y="426" type="curve" smooth="yes"/>
			<point x="382" y="426"/>
			<point x="407" y="395"/>
			<point x="403" y="332" type="curve"/>
		</contour>
		<contour>
			<point x="589" y="332" type="line"/>
			<point x="615" y="398"/>
			<point x="654" y="426"/>
			<point x="701" y="426" type="curve" smooth="yes"/>
			<point x="749" y="426"/>
			<point x="774" y="395"/>
			<point x="770" y="332" type="curve"/>
		</contour>
	</outline>
</glyph>
<glyph name="e_u" format="2">
	<advance width="985"/>
	<unicode hex="F19A0"/>
	<outline>
		<contour>
			<point x="579" y="274" type="curve" smooth="yes"/>
			<point x="608" y="412"/>
			<point x="547" y="548"/>
			<point x="369" y="548" type="curve" smooth="yes"/>
			<point x="191" y="548"/>
			<point x="57" y="421"/>
			<point x="24" y="265" type="curve" smooth="yes"/>
			<point x="-16" y="77"/>
			<point x="87" y="-14"/>
			<point x="240" y="-14" type="curve" smooth="yes"/>
			<point x="300" y="-14"/>
			<point x="355" y="-1"/>
			<point x="404" y="24" type="curve"/>
			<point x="430" y="1"/>
			<point x="470" y="-14"/>
			<point x="524" y="-14" type="curve" smooth="yes"/>
			<point x="573" y="-14"/>
			<point x="613" y="-3"/>
			<point x="650" y="17" type="curve"/>
			<point x="714" y="90" type="line"/>
			<point x="695" y="0" type="line"/>
			<point x="875" y="0" type="line"/>
			<point x="988" y="534" type="line"/>
			<point x="808" y="534" type="line"/>
			<point x="744" y="232" type="line" smooth="yes"/>
			<point x="729" y="161"/>
			<point x="684" y="108"/>
			<point x="627" y="108" type="curve" smooth="yes"/>
			<point x="570" y="108"/>
			<point x="552" y="138"/>
			<point x="550" y="175" type="curve"/>
			<point x="370" y="175" type="line"/>
			<point x="369" y="171" type="line"/>
			<point x="353" y="133"/>
			<point x="317" y="108"/>
			<point x="268" y="108" type="curve" smooth="yes"/>
			<point x="217" y="108"/>
			<point x="183" y="133"/>
			<point x="193" y="222" type="curve"/>
			<point x="565" y="222" type="line"/>
			<point x="571" y="240"/>
			<point x="576" y="258"/>
		</contour>
		<contour>
			<point x="222" y="332" type="line"/>
			<point x="248" y="398"/>
			<point x="287" y="426"/>
			<point x="334" y="426" type="curve" smooth="yes"/>
			<point x="382" y="426"/>
			<point x="407" y="395"/>
			<point x="403" y="332" type="curve"/>
		</contour>
	</outline>
</glyph>
<glyph name="E_T_E" format="2">
	<advance width="1436"/>
	<unicode hex="F1A00"/>
	<outline>
		<contour>
			<point x="553" y="0" type="line"/>
			<point x="582" y="140" type="line"/>
			<point x="233" y="140" type="line"/>
			<point x="262" y="276" type="line"/>
			<point x="581" y="276" type="line"/>
			<point x="611" y="416" type="line"/>
			<point x="292" y="416" type="line"/>
			<point x="321" y="550" type="line"/>
			<point x="660" y="550" type="line"/>
			<point x="689" y="690" type="line"/>
			<point x="170" y="690" type="line"/>
			<point x="24" y="0" type="line"/>
		</contour>
		<contour>
			<point x="295" y="760" type="line"/>
			<point x="595" y="760" type="line"/>
			<point x="616" y="856" type="line"/>
			<point x="316" y="856" type="line"/>
		</contour>
		<contour>
			<point x="714" y="550" type="line"/>
			<point x="938" y="550" type="line"/>
			<point x="762" y="-276" type="line"/>
			<point x="1291" y="-276" type="line"/>
			<point x="1321" y="-136" type="line"/>
			<point x="972" y="-136" type="line"/>
			<point x="1001" y="0" type="line"/>
			<point x="1320" y="0" type="line"/>
			<point x="1349" y="140" type="line"/>
			<point x="1030" y="140" type="line"/>
			<point x="1059" y="274" type="line"/>
			<point x="1398" y="274" type="line"/>
			<point x="1428" y="414" type="line"/>
			<point x="1089" y="414" type="line"/>
			<point x="1118" y="550" type="line"/>
			<point x="1342" y="550" type="line"/>
			<point x="1371" y="690" type="line"/>
			<point x="743" y="690" type="line"/>
		</contour>
	</outline>
</glyph>
<glyph name="e_t_e" format="2">
	<advance width="1531"/>
	<unicode hex="F1B00"/>
	<outline>
		<contour>
			<point x="579" y="274" type="curve" smooth="yes"/>
			<point x="608" y="412"/>
			<point x="547" y="548"/>
			<point x="369" y="548" type="curve" smooth="yes"/>
			<point x="191" y="548"/>
			<point x="57" y="421"/>
			<point x="24" y="265" type="curve" smooth="yes"/>
			<point x="-16" y="77"/>
			<point x="87" y="-14"/>
			<point x="240" y="-14" type="curve" smooth="yes"/>
			<point x="377" y="-14"/>
			<point x="491" y="54"/>
			<point x="548" y="175" type="curve"/>
			<point x="371" y="175" type="line"/>
			<point x="355" y="134"/>
			<point x="319" y="108"/>
			<point x="268" y="108" type="curve" smooth="yes"/>
			<point x="217" y="108"/>
			<point x="183" y="133"/>
			<point x="193" y="222" type="curve"/>
			<point x="565" y="222" type="line"/>
			<point x="571" y="240"/>
			<point x="576" y="258"/>
		</contour>
		<contour>
			<point x="220" y="586" type="line"/>
			<point x="520" y="586" type="line"/>
			<point x="541" y="682" type="line"/>
			<point x="241" y="682" type="line"/>
		</contour>
		<contour>
			<point x="222" y="332" type="line"/>
			<point x="248" y="398"/>
			<point x="287" y="426"/>
			<point x="334" y="426" type="curve" smooth="yes"/>
			<point x="382" y="426"/>
			<point x="407" y="395"/>
			<point x="403" y="332" type="curve"/>
		</contour>
		<contour>
			<point x="639" y="418" type="line"/>
			<point x="724" y="418" type="line"/>
			<point x="676" y="195" type="line" smooth="yes"/>
			<point x="670" y="165"/>
			<point x="664" y="140"/>
			<point x="660" y="109" type="curve" smooth="yes"/>
			<point x="648" y="27"/>
			<point x="680" y="-14"/>
			<point x="813" y="-14" type="curve" smooth="yes"/>
			<point x="851" y="-14"/>
			<point x="884" y="-11"/>
			<point x="921" y="-5" type="curve"/>
			<point x="944" y="107" type="line"/>
			<point x="859" y="103"/>
			<point x="844" y="115"/>
			<point x="852" y="169" type="curve" smooth="yes"/>
			<point x="854" y="183"/>
			<point x="858" y="203"/>
			<point x="862" y="221" type="curve" smooth="yes"/>
			<point x="904" y="418" type="line"/>
			<point x="1537" y="418" type="line"/>
			<point x="1542" y="436"/>
			<point x="1547" y="454"/>
			<point x="1551" y="470" type="curve" smooth="yes"/>
			<point x="1580" y="608"/>
			<point x="1519" y="744"/>
			<point x="1341" y="744" type="curve" smooth="yes"/>
			<point x="1190" y="744"/>
			<point x="1071" y="653"/>
			<point x="1018" y="530" type="curve"/>
			<point x="927" y="530" type="line"/>
			<point x="957" y="668" type="line"/>
			<point x="777" y="668" type="line"/>
			<point x="747" y="530" type="line"/>
			<point x="662" y="530" type="line"/>
		</contour>
		<contour>
			<point x="1194" y="528" type="line"/>
			<point x="1220" y="594"/>
			<point x="1259" y="622"/>
			<point x="1306" y="622" type="curve" smooth="yes"/>
			<point x="1354" y="622"/>
			<point x="1378" y="591"/>
			<point x="1375" y="528" type="curve"/>
		</contour>
	</outline>
</glyph>
<glyph name="I_E" format="2">
	<advance width="956"/>
	<unicode hex="F2610"/>
	<outline>
		<contour>
			<point x="870" y="0" type="line"/>
			<point x="899" y="140" type="line"/>
			<point x="550" y="140" type="line"/>
			<point x="579" y="276" type="line"/>
			<point x="898" y="276" type="line"/>
			<point x="928" y="416" type="line"/>
			<point x="609" y="416" type="line"/>
			<point x="638" y="550" type="line"/>
			<point x="977" y="550" type="line"/>
			<point x="1006" y="690" type="line"/>
			<point x="487" y="690" type="line"/>
			<point x="341" y="0" type="line"/>
		</contour>
		<contour>
			<point x="179" y="729" type="line"/>
			<point x="362" y="729" type="line"/>
			<point x="399" y="905" type="line"/>
			<point x="216" y="905" type="line"/>
		</contour>
		<contour>
			<point x="58" y="157" type="line"/>
			<point x="238" y="157" type="line"/>
			<point x="352" y="691" type="line"/>
			<point x="172" y="691" type="line"/>
		</contour>
	</outline>
</glyph>
<glyph name="L_E" format="2">
	<advance width="988"/>
	<unicode hex="F3210"/>
	<outline>
		<contour>
			<point x="24" y="0" type="line"/>
			<point x="902" y="0" type="line"/>
			<point x="931" y="140" type="line"/>
			<point x="582" y="140" type="line"/>
			<point x="611" y="276" type="line"/>
			<point x="930" y="276" type="line"/>
			<point x="960" y="416" type="line"/>
			<point x="641" y="416" type="line"/>
			<point x="670" y="550" type="line"/>
			<point x="1009" y="550" type="line"/>
			<point x="1038" y="690" type="line"/>
			<point x="519" y="690" type="line"/>
			<point x="402" y="140" type="line"/>
			<point x="233" y="140" type="line"/>
			<point x="350" y="690" type="line"/>
			<point x="170" y="690" type="line"/>
		</contour>
	</outline>
</glyph>
<glyph name="L_L_E" format="2">
	<advance width="1336"/>
	<unicode hex="F3230"/>
	<outline>
		<contour>
			<point x="612" y="280" type="line"/>
			<point x="642" y="420" type="line"/>
			<point x="641" y="420" type="line"/>
			<point x="698" y="690" type="line"/>
			<point x="518" y="690" type="line"/>
			<point x="461" y="420" type="line"/>
			<point x="293" y="420" type="line"/>
			<point x="407" y="958" type="line"/>
			<point x="227" y="958" type="line"/>
			<point x="83" y="280" type="line"/>
			<point x="431" y="280" type="line"/>
			<point x="372" y="0" type="line"/>
			<point x="1250" y="0" type="line"/>
			<point x="1279" y="140" type="line"/>
			<point x="930" y="140" type="line"/>
			<point x="959" y="276" type="line"/>
			<point x="1278" y="276" type="line"/>
			<point x="1308" y="416" type="line"/>
			<point x="989" y="416" type="line"/>
			<point x="1018" y="550" type="line"/>
			<point x="1357" y="550" type="line"/>
			<point x="1386" y="690" type="line"/>
			<point x="867" y="690" type="line"/>
			<point x="750" y="140" type="line"/>
			<point x="581" y="140" type="line"/>
			<point x="611" y="280" type="line"/>
		</contour>
	</outline>
</glyph>
<glyph name="L_U" format="2">
	<advance width="1251"/>
	<unicode hex="F3250"/>
	<outline>
		<contour>
			<point x="1175" y="87" type="curve" smooth="yes"/>
			<point x="1257" y="474" type="line"/>
			<point x="1077" y="474" type="line"/>
			<point x="988" y="54" type="line" smooth="yes"/>
			<point x="984" y="35"/>
			<point x="982" y="25"/>
			<point x="978" y="13" type="curve" smooth="yes"/>
			<point x="958" y="-59"/>
			<point x="909" y="-98"/>
			<point x="830" y="-98" type="curve" smooth="yes"/>
			<point x="751" y="-98"/>
			<point x="718" y="-59"/>
			<point x="728" y="13" type="curve" smooth="yes"/>
			<point x="730" y="25"/>
			<point x="732" y="35"/>
			<point x="736" y="54" type="curve" smooth="yes"/>
			<point x="796" y="335" type="line"/>
			<point x="616" y="335" type="line"/>
			<point x="577" y="152" type="line"/>
			<point x="236" y="152" type="line"/>
			<point x="350" y="690" type="line"/>
			<point x="170" y="690" type="line"/>
			<point x="24" y="0" type="line"/>
			<point x="547" y="0" type="line"/>
			<point x="547" y="-3"/>
			<point x="546" y="-7"/>
			<point x="546" y="-10" type="curve" smooth="yes"/>
			<point x="529" y="-126"/>
			<point x="589" y="-230"/>
			<point x="802" y="-230" type="curve" smooth="yes"/>
			<point x="1015" y="-230"/>
			<point x="1119" y="-126"/>
			<point x="1152" y="-10" type="curve" smooth="yes"/>
			<point x="1163" y="31"/>
			<point x="1168" y="52"/>
		</contour>
	</outline>
</glyph>
<glyph name="l_e" format="2">
	<advance width="628"/>
	<unicode hex="F3310"/>
	<outline>
		<contour>
			<point x="214" y="192" type="curve" smooth="yes"/>
			<point x="221" y="222" type="line"/>
			<point x="592" y="222" type="line"/>
			<point x="598" y="240"/>
			<point x="603" y="258"/>
			<point x="606" y="274" type="curve" smooth="yes"/>
			<point x="635" y="412"/>
			<point x="574" y="548"/>
			<point x="396" y="548" type="curve" smooth="yes"/>
			<point x="357" y="548"/>
			<point x="321" y="542"/>
			<point x="287" y="531" type="curve"/>
			<point x="330" y="735" type="line"/>
			<point x="150" y="735" type="line"/>
			<point x="34" y="189" type="line" smooth="yes"/>
			<point x="25" y="149"/>
			<point x="20" y="122"/>
			<point x="16" y="94" type="curve" smooth="yes"/>
			<point x="5" y="23"/>
			<point x="45" y="-10"/>
			<point x="128" y="-10" type="curve" smooth="yes"/>
			<point x="168" y="-10"/>
			<point x="200" y="-8"/>
			<point x="234" y="-5" type="curve"/>
			<point x="260" y="117" type="line"/>
			<point x="212" y="115"/>
			<point x="205" y="122"/>
			<point x="206" y="143" type="curve" smooth="yes"/>
			<point x="207" y="156"/>
			<point x="209" y="167"/>
		</contour>
		<contour>
			<point x="249" y="332" type="line"/>
			<point x="275" y="398"/>
			<point x="314" y="426"/>
			<point x="361" y="426" type="curve" smooth="yes"/>
			<point x="409" y="426"/>
			<point x="434" y="395"/>
			<point x="430" y="332" type="curve"/>
		</contour>
	</outline>
</glyph>
<glyph name="m_p" format="2">
	<advance width="1353"/>
	<unicode hex="F3510"/>
	<outline>
		<contour>
			<point x="1154" y="548" type="curve" smooth="yes"/>
			<point x="1100" y="548"/>
			<point x="1046" y="537"/>
			<point x="1011" y="515" type="curve"/>
			<point x="959" y="456" type="line"/>
			<point x="944" y="438" type="line"/>
			<point x="936" y="499"/>
			<point x="889" y="548"/>
			<point x="794" y="548" type="curve" smooth="yes"/>
			<point x="745" y="548"/>
			<point x="710" y="537"/>
			<point x="673" y="517" type="curve"/>
			<point x="601" y="444" type="line"/>
			<point x="591" y="503"/>
			<point x="543" y="548"/>
			<point x="452" y="548" type="curve" smooth="yes"/>
			<point x="403" y="548"/>
			<point x="368" y="537"/>
			<point x="331" y="517" type="curve"/>
			<point x="273" y="448" type="line"/>
			<point x="291" y="534" type="line"/>
			<point x="111" y="534" type="line"/>
			<point x="-2" y="0" type="line"/>
			<point x="178" y="0" type="line"/>
			<point x="238" y="282" type="line" smooth="yes"/>
			<point x="257" y="373"/>
			<point x="291" y="426"/>
			<point x="349" y="426" type="curve" smooth="yes"/>
			<point x="396" y="426"/>
			<point x="414" y="396"/>
			<point x="409" y="345" type="curve" smooth="yes"/>
			<point x="406" y="318"/>
			<point x="401" y="289"/>
			<point x="397" y="272" type="curve" smooth="yes"/>
			<point x="340" y="0" type="line"/>
			<point x="520" y="0" type="line"/>
			<point x="580" y="282" type="line" smooth="yes"/>
			<point x="599" y="373"/>
			<point x="633" y="426"/>
			<point x="691" y="426" type="curve" smooth="yes"/>
			<point x="738" y="426"/>
			<point x="756" y="396"/>
			<point x="751" y="345" type="curve" smooth="yes"/>
			<point x="748" y="318"/>
			<point x="743" y="289"/>
			<point x="739" y="272" type="curve" smooth="yes"/>
			<point x="640" y="-196" type="line"/>
			<point x="820" y="-196" type="line"/>
			<point x="876" y="69" type="line"/>
			<point x="899" y="12" type="line"/>
			<point x="923" y="-4"/>
			<point x="973" y="-14"/>
			<point x="1017" y="-14" type="curve" smooth="yes"/>
			<point x="1154" y="-14"/>
			<point x="1292" y="89"/>
			<point x="1332" y="279" type="curve" smooth="yes"/>
			<point x="1366" y="437"/>
			<point x="1299" y="548"/>
		</contour>
		<contour>
			<point x="915" y="251" type="curve" smooth="yes"/>
			<point x="920" y="274" type="line" smooth="yes"/>
			<point x="944" y="386"/>
			<point x="1000" y="426"/>
			<point x="1066" y="426" type="curve" smooth="yes"/>
			<point x="1129" y="426"/>
			<point x="1167" y="370"/>
			<point x="1146" y="270" type="curve" smooth="yes"/>
			<point x="1123" y="161"/>
			<point x="1064" y="108"/>
			<point x="994" y="108" type="curve" smooth="yes"/>
			<point x="940" y="108"/>
			<point x="892" y="144"/>
		</contour>
	</outline>
</glyph>
<glyph name="N_E" format="2">
	<advance width="1120"/>
	<unicode hex="F3620"/>
	<outline>
		<contour>
			<point x="449" y="0" type="line"/>
			<point x="1034" y="0" type="line"/>
			<point x="1063" y="140" type="line"/>
			<point x="714" y="140" type="line"/>
			<point x="743" y="276" type="line"/>
			<point x="1062" y="276" type="line"/>
			<point x="1092" y="416" type="line"/>
			<point x="773" y="416" type="line"/>
			<point x="802" y="550" type="line"/>
			<point x="1141" y="550" type="line"/>
			<point x="1170" y="690" type="line"/>
			<point x="650" y="690" type="line"/>
			<point x="588" y="395" type="line" smooth="yes"/>
			<point x="584" y="376"/>
			<point x="578" y="350"/>
			<point x="573" y="320" type="curve" smooth="yes"/>
			<point x="552" y="223" type="line"/>
			<point x="394" y="690" type="line"/>
			<point x="170" y="690" type="line"/>
			<point x="24" y="0" type="line"/>
			<point x="204" y="0" type="line"/>
			<point x="264" y="285" type="line" smooth="yes"/>
			<point x="273" y="325"/>
			<point x="286" y="386"/>
			<point x="295" y="456" type="curve"/>
		</contour>
	</outline>
</glyph>
<glyph name="o_t_e" format="2">
	<advance width="1230"/>
	<unicode hex="F3950"/>
	<outline>
		<contour>
			<point x="371" y="548" type="curve" smooth="yes"/>
			<point x="196" y="548"/>
			<point x="61" y="439"/>
			<point x="24" y="267" type="curve" smooth="yes"/>
			<point x="-12" y="96"/>
			<point x="77" y="-14"/>
			<point x="252" y="-14" type="curve" smooth="yes"/>
			<point x="309" y="-14"/>
			<point x="361" y="-2"/>
			<point x="408" y="19" type="curve"/>
			<point x="430" y="-3"/>
			<point x="472" y="-14"/>
			<point x="541" y="-14" type="curve" smooth="yes"/>
			<point x="579" y="-14"/>
			<point x="612" y="-11"/>
			<point x="649" y="-5" type="curve"/>
			<point x="672" y="107" type="line"/>
			<point x="587" y="103"/>
			<point x="572" y="115"/>
			<point x="580" y="169" type="curve" smooth="yes"/>
			<point x="582" y="183"/>
			<point x="586" y="203"/>
			<point x="590" y="221" type="curve" smooth="yes"/>
			<point x="632" y="418" type="line"/>
			<point x="1236" y="418" type="line"/>
			<point x="1241" y="436"/>
			<point x="1247" y="456"/>
			<point x="1250" y="472" type="curve" smooth="yes"/>
			<point x="1279" y="610"/>
			<point x="1218" y="746"/>
			<point x="1040" y="746" type="curve" smooth="yes"/>
			<point x="889" y="746"/>
			<point x="769" y="654"/>
			<point x="716" y="530" type="curve"/>
			<point x="655" y="530" type="line"/>
			<point x="685" y="668" type="line"/>
			<point x="505" y="668" type="line"/>
			<point x="476" y="532" type="line"/>
			<point x="446" y="542"/>
			<point x="411" y="548"/>
		</contour>
		<contour>
			<point x="208" y="267" type="curve" smooth="yes"/>
			<point x="231" y="374"/>
			<point x="281" y="426"/>
			<point x="345" y="426" type="curve" smooth="yes"/>
			<point x="409" y="426"/>
			<point x="437" y="374"/>
			<point x="414" y="267" type="curve" smooth="yes"/>
			<point x="392" y="161"/>
			<point x="342" y="108"/>
			<point x="278" y="108" type="curve" smooth="yes"/>
			<point x="214" y="108"/>
			<point x="186" y="161"/>
		</contour>
		<contour>
			<point x="893" y="530" type="line"/>
			<point x="919" y="596"/>
			<point x="958" y="624"/>
			<point x="1005" y="624" type="curve" smooth="yes"/>
			<point x="1053" y="624"/>
			<point x="1078" y="593"/>
			<point x="1074" y="530" type="curve"/>
		</contour>
	</outline>
</glyph>
<glyph name="o_idieresis" format="2">
	<advance width="652"/>
	<unicode hex="F3970"/>
	<outline>
		<contour>
			<point x="371" y="548" type="curve" smooth="yes"/>
			<point x="196" y="548"/>
			<point x="61" y="439"/>
			<point x="24" y="267" type="curve" smooth="yes"/>
			<point x="-12" y="96"/>
			<point x="77" y="-14"/>
			<point x="252" y="-14" type="curve" smooth="yes"/>
			<point x="427" y="-14"/>
			<point x="562" y="96"/>
			<point x="598" y="267" type="curve" smooth="yes"/>
			<point x="655" y="534" type="line"/>
			<point x="470" y="534" type="line"/>
			<point x="441" y="543"/>
			<point x="408" y="548"/>
		</contour>
		<contour>
			<point x="208" y="267" type="curve" smooth="yes"/>
			<point x="231" y="374"/>
			<point x="281" y="426"/>
			<point x="345" y="426" type="curve" smooth="yes"/>
			<point x="409" y="426"/>
			<point x="437" y="374"/>
			<point x="414" y="267" type="curve" smooth="yes"/>
			<point x="392" y="161"/>
			<point x="342" y="108"/>
			<point x="278" y="108" type="curve" smooth="yes"/>
			<point x="214" y="108"/>
			<point x="186" y="161"/>
		</contour>
		<contour>
			<point x="400" y="569" type="line"/>
			<point x="550" y="569" type="line"/>
			<point x="581" y="716" type="line"/>
			<point x="431" y="716" type="line"/>
		</contour>
		<contour>
			<point x="601" y="569" type="line"/>
			<point x="751" y="569" type="line"/>
			<point x="782" y="716" type="line"/>
			<point x="632" y="716" type="line"/>
		</contour>
	</outline>
</glyph>
<glyph name="P_M" format="2">
	<advance width="1148"/>
	<unicode hex="F4010"/>
	<outline>
		<contour>
			<point x="537" y="685" type="curve" smooth="yes"/>
			<point x="501" y="689"/>
			<point x="473" y="690"/>
			<point x="430" y="690" type="curve" smooth="yes"/>
			<point x="170" y="690" type="line"/>
			<point x="24" y="0" type="line"/>
			<point x="204" y="0" type="line"/>
			<point x="255" y="242" type="line"/>
			<point x="335" y="242" type="line" smooth="yes"/>
			<point x="378" y="242"/>
			<point x="406" y="243"/>
			<point x="444" y="247" type="curve" smooth="yes"/>
			<point x="475" y="251"/>
			<point x="507" y="260"/>
			<point x="536" y="274" type="curve"/>
			<point x="551" y="0" type="line"/>
			<point x="736" y="0" type="line"/>
			<point x="873" y="290" type="line" smooth="yes"/>
			<point x="902" y="351"/>
			<point x="941" y="439"/>
			<point x="968" y="509" type="curve"/>
			<point x="951" y="439"/>
			<point x="932" y="350"/>
			<point x="919" y="290" type="curve" smooth="yes"/>
			<point x="858" y="0" type="line"/>
			<point x="1038" y="0" type="line"/>
			<point x="1184" y="690" type="line"/>
			<point x="910" y="690" type="line"/>
			<point x="684" y="175" type="line"/>
			<point x="682" y="466" type="line"/>
			<point x="711" y="602"/>
			<point x="635" y="673"/>
		</contour>
		<contour>
			<point x="285" y="382" type="line"/>
			<point x="321" y="550" type="line"/>
			<point x="391" y="550" type="line" smooth="yes"/>
			<point x="410" y="550"/>
			<point x="426" y="550"/>
			<point x="438" y="549" type="curve" smooth="yes"/>
			<point x="484" y="545"/>
			<point x="505" y="518"/>
			<point x="494" y="466" type="curve" smooth="yes"/>
			<point x="483" y="414"/>
			<point x="450" y="387"/>
			<point x="403" y="383" type="curve" smooth="yes"/>
			<point x="390" y="382"/>
			<point x="374" y="382"/>
			<point x="355" y="382" type="curve" smooth="yes"/>
		</contour>
	</outline>
</glyph>
<glyph name="R_I_C_E" format="2">
	<advance width="1792"/>
	<unicode hex="F4490"/>
	<outline>
		<contour>
			<point x="597" y="168" type="curve" smooth="yes"/>
			<point x="605" y="251"/>
			<point x="590" y="304"/>
			<point x="524" y="330" type="curve"/>
			<point x="622" y="357"/>
			<point x="681" y="415"/>
			<point x="699" y="502" type="curve" smooth="yes"/>
			<point x="725" y="624"/>
			<point x="649" y="673"/>
			<point x="551" y="685" type="curve" smooth="yes"/>
			<point x="515" y="689"/>
			<point x="487" y="690"/>
			<point x="444" y="690" type="curve" smooth="yes"/>
			<point x="170" y="690" type="line"/>
			<point x="24" y="0" type="line"/>
			<point x="204" y="0" type="line"/>
			<point x="259" y="262" type="line"/>
			<point x="299" y="262" type="line" smooth="yes"/>
			<point x="319" y="262"/>
			<point x="336" y="262"/>
			<point x="356" y="261" type="curve" smooth="yes"/>
			<point x="402" y="258"/>
			<point x="422" y="214"/>
			<point x="415" y="138" type="curve" smooth="yes"/>
			<point x="411" y="89"/>
			<point x="412" y="49"/>
			<point x="418" y="0" type="curve"/>
			<point x="614" y="0" type="line"/>
			<point x="595" y="41"/>
			<point x="590" y="90"/>
		</contour>
		<contour>
			<point x="287" y="392" type="line"/>
			<point x="321" y="550" type="line"/>
			<point x="391" y="550" type="line" smooth="yes"/>
			<point x="410" y="550"/>
			<point x="426" y="550"/>
			<point x="438" y="549" type="curve" smooth="yes"/>
			<point x="484" y="545"/>
			<point x="517" y="529"/>
			<point x="505" y="471" type="curve" smooth="yes"/>
			<point x="492" y="413"/>
			<point x="447" y="397"/>
			<point x="400" y="393" type="curve" smooth="yes"/>
			<point x="387" y="392"/>
			<point x="371" y="392"/>
			<point x="352" y="392" type="curve" smooth="yes"/>
		</contour>
		<contour>
			<point x="745" y="729" type="line"/>
			<point x="928" y="729" type="line"/>
			<point x="965" y="905" type="line"/>
			<point x="782" y="905" type="line"/>
		</contour>
		<contour>
			<point x="777" y="340" type="curve" smooth="yes"/>
			<point x="727" y="106"/>
			<point x="851" y="-14"/>
			<point x="1036" y="-14" type="curve" smooth="yes"/>
			<point x="1156" y="-14"/>
			<point x="1262" y="27"/>
			<point x="1333" y="107" type="curve"/>
			<point x="1728" y="107" type="line"/>
			<point x="1758" y="247" type="line"/>
			<point x="1229" y="247" type="line"/>
			<point x="1225" y="237" type="line" smooth="yes"/>
			<point x="1194" y="161"/>
			<point x="1140" y="118"/>
			<point x="1070" y="118" type="curve" smooth="yes"/>
			<point x="990" y="118"/>
			<point x="930" y="177"/>
			<point x="967" y="351" type="curve" smooth="yes"/>
			<point x="999" y="500"/>
			<point x="1079" y="572"/>
			<point x="1165" y="572" type="curve" smooth="yes"/>
			<point x="1238" y="572"/>
			<point x="1276" y="537"/>
			<point x="1275" y="463" type="curve" smooth="yes"/>
			<point x="1275" y="453" type="line"/>
			<point x="1774" y="453" type="line"/>
			<point x="1804" y="593" type="line"/>
			<point x="1485" y="593" type="line"/>
			<point x="1513" y="727" type="line"/>
			<point x="1852" y="727" type="line"/>
			<point x="1882" y="867" type="line"/>
			<point x="1363" y="867" type="line"/>
			<point x="1324" y="684" type="line"/>
			<point x="1289" y="697"/>
			<point x="1246" y="704"/>
			<point x="1195" y="704" type="curve" smooth="yes"/>
			<point x="1008" y="704"/>
			<point x="828" y="580"/>
		</contour>
	</outline>
</glyph>
<glyph name="r_e" format="2">
	<advance width="857"/>
	<unicode hex="F4510"/>
	<outline>
		<contour>
			<point x="874" y="456" type="curve" smooth="yes"/>
			<point x="903" y="594"/>
			<point x="842" y="730"/>
			<point x="664" y="730" type="curve" smooth="yes"/>
			<point x="513" y="730"/>
			<point x="393" y="638"/>
			<point x="340" y="515" type="curve"/>
			<point x="334" y="511"/>
			<point x="328" y="506"/>
			<point x="322" y="501" type="curve"/>
			<point x="268" y="426" type="line"/>
			<point x="291" y="534" type="line"/>
			<point x="111" y="534" type="line"/>
			<point x="-2" y="0" type="line"/>
			<point x="178" y="0" type="line"/>
			<point x="219" y="196" type="line" smooth="yes"/>
			<point x="239" y="287"/>
			<point x="266" y="342"/>
			<point x="310" y="372" type="curve"/>
			<point x="309" y="235"/>
			<point x="403" y="168"/>
			<point x="534" y="168" type="curve"/>
			<point x="562" y="290" type="line"/>
			<point x="511" y="290"/>
			<point x="478" y="315"/>
			<point x="488" y="404" type="curve"/>
			<point x="860" y="404" type="line"/>
			<point x="865" y="422"/>
			<point x="870" y="440"/>
		</contour>
		<contour>
			<point x="517" y="514" type="line"/>
			<point x="543" y="580"/>
			<point x="582" y="608"/>
			<point x="629" y="608" type="curve" smooth="yes"/>
			<point x="677" y="608"/>
			<point x="701" y="577"/>
			<point x="698" y="514" type="curve"/>
		</contour>
	</outline>
</glyph>
<glyph name="S_E" format="2">
	<advance width="974"/>
	<unicode hex="F4640"/>
	<outline>
		<contour>
			<point x="415" y="704" type="curve" smooth="yes"/>
			<point x="278" y="704"/>
			<point x="138" y="629"/>
			<point x="110" y="496" type="curve" smooth="yes"/>
			<point x="81" y="358"/>
			<point x="162" y="309"/>
			<point x="311" y="270" type="curve" smooth="yes"/>
			<point x="392" y="249"/>
			<point x="404" y="218"/>
			<point x="396" y="182" type="curve" smooth="yes"/>
			<point x="388" y="144"/>
			<point x="352" y="118"/>
			<point x="302" y="118" type="curve" smooth="yes"/>
			<point x="248" y="118"/>
			<point x="201" y="146"/>
			<point x="203" y="211" type="curve"/>
			<point x="23" y="211" type="line"/>
			<point x="1" y="56"/>
			<point x="104" y="-14"/>
			<point x="279" y="-14" type="curve" smooth="yes"/>
			<point x="305" y="-14"/>
			<point x="332" y="-11"/>
			<point x="357" y="-6" type="curve"/>
			<point x="314" y="-212" type="line"/>
			<point x="843" y="-212" type="line"/>
			<point x="872" y="-72" type="line"/>
			<point x="523" y="-72" type="line"/>
			<point x="552" y="64" type="line"/>
			<point x="871" y="64" type="line"/>
			<point x="901" y="204" type="line"/>
			<point x="582" y="204" type="line"/>
			<point x="611" y="338" type="line"/>
			<point x="950" y="338" type="line"/>
			<point x="979" y="478" type="line"/>
			<point x="640" y="478" type="line"/>
			<point x="652" y="606"/>
			<point x="597" y="704"/>
		</contour>
		<contour>
			<point x="301" y="510" type="curve" smooth="yes"/>
			<point x="310" y="552"/>
			<point x="342" y="572"/>
			<point x="383" y="572" type="curve" smooth="yes"/>
			<point x="442" y="572"/>
			<point x="464" y="534"/>
			<point x="460" y="477" type="curve"/>
			<point x="445" y="407" type="line"/>
			<point x="439" y="409"/>
			<point x="433" y="410"/>
			<point x="426" y="412" type="curve" smooth="yes"/>
			<point x="318" y="439"/>
			<point x="292" y="466"/>
		</contour>
	</outline>
</glyph>
<glyph name="S_S_E" format="2">
	<advance width="1355"/>
	<unicode hex="F46A0"/>
	<outline>
		<contour>
			<point x="415" y="704" type="curve" smooth="yes"/>
			<point x="278" y="704"/>
			<point x="138" y="629"/>
			<point x="110" y="496" type="curve" smooth="yes"/>
			<point x="81" y="358"/>
			<point x="162" y="309"/>
			<point x="311" y="270" type="curve" smooth="yes"/>
			<point x="392" y="249"/>
			<point x="411" y="218"/>
			<point x="403" y="182" type="curve" smooth="yes"/>
			<point x="395" y="144"/>
			<point x="352" y="118"/>
			<point x="302" y="118" type="curve" smooth="yes"/>
			<point x="248" y="118"/>
			<point x="201" y="146"/>
			<point x="203" y="211" type="curve"/>
			<point x="23" y="211" type="line"/>
			<point x="1" y="56"/>
			<point x="104" y="-14"/>
			<point x="279" y="-14" type="curve" smooth="yes"/>
			<point x="418" y="-14"/>
			<point x="565" y="56"/>
			<point x="594" y="194" type="curve" smooth="yes"/>
			<point x="599" y="220"/>
			<point x="601" y="244"/>
			<point x="598" y="266" type="curve"/>
			<point x="632" y="257"/>
			<point x="672" y="252"/>
			<point x="716" y="252" type="curve" smooth="yes"/>
			<point x="743" y="252"/>
			<point x="770" y="255"/>
			<point x="795" y="260" type="curve"/>
			<point x="751" y="54" type="line"/>
			<point x="1280" y="54" type="line"/>
			<point x="1310" y="194" type="line"/>
			<point x="961" y="194" type="line"/>
			<point x="990" y="330" type="line"/>
			<point x="1309" y="330" type="line"/>
			<point x="1339" y="470" type="line"/>
			<point x="1020" y="470" type="line"/>
			<point x="1048" y="604" type="line"/>
			<point x="1387" y="604" type="line"/>
			<point x="1417" y="744" type="line"/>
			<point x="1078" y="744" type="line"/>
			<point x="1090" y="872"/>
			<point x="1035" y="970"/>
			<point x="853" y="970" type="curve" smooth="yes"/>
			<point x="716" y="970"/>
			<point x="576" y="895"/>
			<point x="548" y="762" type="curve" smooth="yes"/>
			<point x="541" y="730"/>
			<point x="540" y="703"/>
			<point x="544" y="680" type="curve"/>
			<point x="511" y="695"/>
			<point x="469" y="704"/>
		</contour>
		<contour>
			<point x="301" y="510" type="curve" smooth="yes"/>
			<point x="310" y="552"/>
			<point x="342" y="572"/>
			<point x="383" y="572" type="curve" smooth="yes"/>
			<point x="442" y="572"/>
			<point x="464" y="534"/>
			<point x="460" y="477" type="curve" smooth="yes"/>
			<point x="456" y="449"/>
			<point x="456" y="425"/>
			<point x="460" y="402" type="curve"/>
			<point x="449" y="406"/>
			<point x="438" y="409"/>
			<point x="426" y="412" type="curve" smooth="yes"/>
			<point x="318" y="439"/>
			<point x="292" y="466"/>
		</contour>
		<contour>
			<point x="633" y="576" type="curve"/>
			<point x="665" y="561"/>
			<point x="704" y="548"/>
			<point x="749" y="536" type="curve" smooth="yes"/>
			<point x="829" y="515"/>
			<point x="842" y="484"/>
			<point x="834" y="448" type="curve" smooth="yes"/>
			<point x="826" y="410"/>
			<point x="789" y="384"/>
			<point x="739" y="384" type="curve" smooth="yes"/>
			<point x="685" y="384"/>
			<point x="638" y="412"/>
			<point x="640" y="477" type="curve"/>
			<point x="643" y="513"/>
			<point x="642" y="547"/>
		</contour>
		<contour>
			<point x="739" y="776" type="curve" smooth="yes"/>
			<point x="748" y="818"/>
			<point x="780" y="838"/>
			<point x="821" y="838" type="curve" smooth="yes"/>
			<point x="880" y="838"/>
			<point x="902" y="800"/>
			<point x="898" y="743" type="curve"/>
			<point x="883" y="673" type="line"/>
			<point x="877" y="675"/>
			<point x="870" y="676"/>
			<point x="864" y="678" type="curve" smooth="yes"/>
			<point x="756" y="705"/>
			<point x="729" y="732"/>
		</contour>
	</outline>
</glyph>
<glyph name="s_l" format="2">
	<advance width="567"/>
	<unicode hex="F4760"/>
	<outline>
		<contour>
			<point x="334" y="548" type="curve" smooth="yes"/>
			<point x="192" y="548"/>
			<point x="86" y="482"/>
			<point x="64" y="376" type="curve" smooth="yes"/>
			<point x="44" y="285"/>
			<point x="95" y="238"/>
			<point x="192" y="214" type="curve" smooth="yes"/>
			<point x="282" y="192"/>
			<point x="312" y="173"/>
			<point x="305" y="139" type="curve" smooth="yes"/>
			<point x="299" y="111"/>
			<point x="272" y="98"/>
			<point x="240" y="98" type="curve" smooth="yes"/>
			<point x="202" y="98"/>
			<point x="175" y="125"/>
			<point x="174" y="166" type="curve"/>
			<point x="-3" y="166" type="line"/>
			<point x="-15" y="46"/>
			<point x="72" y="-14"/>
			<point x="217" y="-14" type="curve" smooth="yes"/>
			<point x="346" y="-14"/>
			<point x="464" y="39"/>
			<point x="488" y="153" type="curve" smooth="yes"/>
			<point x="510" y="256"/>
			<point x="450" y="298"/>
			<point x="358" y="322" type="curve" smooth="yes"/>
			<point x="261" y="347"/>
			<point x="242" y="367"/>
			<point x="248" y="397" type="curve" smooth="yes"/>
			<point x="253" y="420"/>
			<point x="274" y="436"/>
			<point x="299" y="436" type="curve" smooth="yes"/>
			<point x="327" y="436"/>
			<point x="341" y="420"/>
			<point x="344" y="391" type="curve" smooth="yes"/>
			<point x="344" y="388"/>
			<point x="345" y="385"/>
			<point x="345" y="382" type="curve" smooth="yes"/>
			<point x="345" y="378" type="line" smooth="yes"/>
			<point x="353" y="333"/>
			<point x="392" y="312"/>
			<point x="458" y="312" type="curve" smooth="yes"/>
			<point x="498" y="312"/>
			<point x="530" y="314"/>
			<point x="564" y="317" type="curve"/>
			<point x="590" y="439" type="line"/>
			<point x="543" y="437"/>
			<point x="535" y="444"/>
			<point x="537" y="465" type="curve" smooth="yes"/>
			<point x="537" y="478"/>
			<point x="540" y="489"/>
			<point x="545" y="514" type="curve" smooth="yes"/>
			<point x="635" y="936" type="line"/>
			<point x="455" y="936" type="line"/>
			<point x="372" y="546" type="line"/>
			<point x="360" y="547"/>
			<point x="347" y="548"/>
		</contour>
	</outline>
</glyph>
<glyph name="s_s_e" format="2">
	<advance width="1179"/>
	<unicode hex="F47A0"/>
	<outline>
		<contour>
			<point x="334" y="548" type="curve" smooth="yes"/>
			<point x="192" y="548"/>
			<point x="86" y="482"/>
			<point x="64" y="376" type="curve" smooth="yes"/>
			<point x="44" y="285"/>
			<point x="95" y="238"/>
			<point x="192" y="214" type="curve" smooth="yes"/>
			<point x="282" y="192"/>
			<point x="312" y="173"/>
			<point x="305" y="139" type="curve" smooth="yes"/>
			<point x="299" y="111"/>
			<point x="272" y="98"/>
			<point x="240" y="98" type="curve" smooth="yes"/>
			<point x="202" y="98"/>
			<point x="175" y="125"/>
			<point x="174" y="166" type="curve"/>
			<point x="-3" y="166" type="line"/>
			<point x="-15" y="46"/>
			<point x="72" y="-14"/>
			<point x="217" y="-14" type="curve" smooth="yes"/>
			<point x="346" y="-14"/>
			<point x="464" y="39"/>
			<point x="488" y="153" type="curve" smooth="yes"/>
			<point x="492" y="172"/>
			<point x="493" y="189"/>
			<point x="492" y="204" type="curve"/>
			<point x="514" y="200"/>
			<point x="539" y="198"/>
			<point x="565" y="198" type="curve" smooth="yes"/>
			<point x="694" y="198"/>
			<point x="812" y="251"/>
			<point x="836" y="365" type="curve" smooth="yes"/>
			<point x="842" y="391"/>
			<point x="842" y="412"/>
			<point x="838" y="431" type="curve"/>
			<point x="1187" y="431" type="line"/>
			<point x="1193" y="449"/>
			<point x="1198" y="467"/>
			<point x="1201" y="483" type="curve" smooth="yes"/>
			<point x="1231" y="621"/>
			<point x="1170" y="757"/>
			<point x="992" y="757" type="curve" smooth="yes"/>
			<point x="930" y="757"/>
			<point x="873" y="742"/>
			<point x="824" y="715" type="curve"/>
			<point x="793" y="743"/>
			<point x="746" y="760"/>
			<point x="682" y="760" type="curve" smooth="yes"/>
			<point x="540" y="760"/>
			<point x="434" y="694"/>
			<point x="412" y="588" type="curve" smooth="yes"/>
			<point x="408" y="570"/>
			<point x="407" y="554"/>
			<point x="408" y="539" type="curve"/>
			<point x="387" y="545"/>
			<point x="362" y="548"/>
		</contour>
		<contour>
			<point x="248" y="397" type="curve" smooth="yes"/>
			<point x="253" y="420"/>
			<point x="274" y="436"/>
			<point x="299" y="436" type="curve" smooth="yes"/>
			<point x="331" y="436"/>
			<point x="345" y="415"/>
			<point x="345" y="378" type="curve"/>
			<point x="343" y="359"/>
			<point x="344" y="341"/>
			<point x="347" y="325" type="curve"/>
			<point x="260" y="349"/>
			<point x="242" y="368"/>
		</contour>
		<contour>
			<point x="518" y="432" type="curve"/>
			<point x="540" y="426" type="line" smooth="yes"/>
			<point x="631" y="404"/>
			<point x="661" y="385"/>
			<point x="653" y="351" type="curve" smooth="yes"/>
			<point x="647" y="323"/>
			<point x="620" y="310"/>
			<point x="588" y="310" type="curve" smooth="yes"/>
			<point x="550" y="310"/>
			<point x="523" y="337"/>
			<point x="522" y="378" type="curve" smooth="yes"/>
			<point x="523" y="397"/>
			<point x="522" y="415"/>
		</contour>
		<contour>
			<point x="596" y="609" type="curve" smooth="yes"/>
			<point x="601" y="632"/>
			<point x="622" y="648"/>
			<point x="647" y="648" type="curve" smooth="yes"/>
			<point x="679" y="648"/>
			<point x="693" y="627"/>
			<point x="693" y="590" type="curve"/>
			<point x="684" y="576"/>
			<point x="676" y="560"/>
			<point x="669" y="545" type="curve"/>
			<point x="604" y="565"/>
			<point x="591" y="583"/>
		</contour>
		<contour>
			<point x="845" y="541" type="line"/>
			<point x="871" y="607"/>
			<point x="910" y="635"/>
			<point x="957" y="635" type="curve" smooth="yes"/>
			<point x="1005" y="635"/>
			<point x="1029" y="604"/>
			<point x="1026" y="541" type="curve"/>
		</contour>
	</outline>
</glyph>
<glyph name="T_T_E" format="2">
	<advance width="1203"/>
	<unicode hex="F4880"/>
	<outline>
		<contour>
			<point x="479" y="550" type="line"/>
			<point x="705" y="550" type="line"/>
			<point x="529" y="-276" type="line"/>
			<point x="1058" y="-276" type="line"/>
			<point x="1088" y="-136" type="line"/>
			<point x="739" y="-136" type="line"/>
			<point x="768" y="0" type="line"/>
			<point x="1087" y="0" type="line"/>
			<point x="1116" y="140" type="line"/>
			<point x="797" y="140" type="line"/>
			<point x="826" y="274" type="line"/>
			<point x="1165" y="274" type="line"/>
			<point x="1195" y="414" type="line"/>
			<point x="856" y="414" type="line"/>
			<point x="885" y="550" type="line"/>
			<point x="1109" y="550" type="line"/>
			<point x="1138" y="690" type="line"/>
			<point x="104" y="690" type="line"/>
			<point x="75" y="550" type="line"/>
			<point x="299" y="550" type="line"/>
			<point x="182" y="0" type="line"/>
			<point x="362" y="0" type="line"/>
		</contour>
	</outline>
</glyph>
<glyph name="U_E" format="2">
	<advance width="1059"/>
	<unicode hex="F5010"/>
	<outline>
		<contour>
			<point x="1015" y="201" type="line"/>
			<point x="1045" y="341" type="line"/>
			<point x="696" y="341" type="line"/>
			<point x="725" y="477" type="line"/>
			<point x="1044" y="477" type="line"/>
			<point x="1074" y="617" type="line"/>
			<point x="755" y="617" type="line"/>
			<point x="783" y="751" type="line"/>
			<point x="1122" y="751" type="line"/>
			<point x="1152" y="891" type="line"/>
			<point x="633" y="891" type="line"/>
			<point x="501" y="270" type="line" smooth="yes"/>
			<point x="497" y="251"/>
			<point x="495" y="241"/>
			<point x="491" y="229" type="curve" smooth="yes"/>
			<point x="471" y="157"/>
			<point x="422" y="118"/>
			<point x="343" y="118" type="curve" smooth="yes"/>
			<point x="264" y="118"/>
			<point x="231" y="157"/>
			<point x="241" y="229" type="curve" smooth="yes"/>
			<point x="243" y="241"/>
			<point x="245" y="251"/>
			<point x="249" y="270" type="curve" smooth="yes"/>
			<point x="338" y="690" type="line"/>
			<point x="158" y="690" type="line"/>
			<point x="76" y="303" type="line" smooth="yes"/>
			<point x="69" y="268"/>
			<point x="64" y="247"/>
			<point x="58" y="206" type="curve" smooth="yes"/>
			<point x="42" y="90"/>
			<point x="102" y="-14"/>
			<point x="315" y="-14" type="curve" smooth="yes"/>
			<point x="525" y="-14"/>
			<point x="629" y="87"/>
			<point x="663" y="201" type="curve"/>
		</contour>
	</outline>
</glyph>
<glyph name="u_l_l_e" format="2">
	<advance width="1289"/>
	<unicode hex="F5170"/>
	<outline>
		<contour>
			<point x="570" y="192" type="curve" smooth="yes"/>
			<point x="686" y="735" type="line"/>
			<point x="506" y="735" type="line"/>
			<point x="399" y="232" type="line" smooth="yes"/>
			<point x="384" y="161"/>
			<point x="339" y="108"/>
			<point x="282" y="108" type="curve" smooth="yes"/>
			<point x="225" y="108"/>
			<point x="207" y="138"/>
			<point x="212" y="189" type="curve" smooth="yes"/>
			<point x="215" y="216"/>
			<point x="220" y="245"/>
			<point x="223" y="262" type="curve" smooth="yes"/>
			<point x="281" y="534" type="line"/>
			<point x="101" y="534" type="line"/>
			<point x="35" y="222" type="line" smooth="yes"/>
			<point x="26" y="179"/>
			<point x="20" y="148"/>
			<point x="18" y="121" type="curve" smooth="yes"/>
			<point x="15" y="48"/>
			<point x="69" y="-14"/>
			<point x="179" y="-14" type="curve" smooth="yes"/>
			<point x="228" y="-14"/>
			<point x="268" y="-3"/>
			<point x="305" y="17" type="curve"/>
			<point x="369" y="90" type="line"/>
			<point x="371" y="91" type="line"/>
			<point x="362" y="22"/>
			<point x="402" y="-10"/>
			<point x="484" y="-10" type="curve" smooth="yes"/>
			<point x="524" y="-10"/>
			<point x="556" y="-8"/>
			<point x="590" y="-5" type="curve"/>
			<point x="616" y="117" type="line"/>
			<point x="568" y="115"/>
			<point x="561" y="122"/>
			<point x="562" y="143" type="curve" smooth="yes"/>
			<point x="563" y="156"/>
			<point x="565" y="167"/>
		</contour>
		<contour>
			<point x="695" y="189" type="line" smooth="yes"/>
			<point x="686" y="149"/>
			<point x="681" y="122"/>
			<point x="677" y="94" type="curve" smooth="yes"/>
			<point x="666" y="23"/>
			<point x="706" y="-10"/>
			<point x="789" y="-10" type="curve" smooth="yes"/>
			<point x="829" y="-10"/>
			<point x="861" y="-8"/>
			<point x="895" y="-5" type="curve"/>
			<point x="921" y="117" type="line"/>
			<point x="873" y="115"/>
			<point x="866" y="122"/>
			<point x="867" y="143" type="curve" smooth="yes"/>
			<point x="868" y="156"/>
			<point x="870" y="167"/>
			<point x="875" y="192" type="curve" smooth="yes"/>
			<point x="882" y="222" type="line"/>
			<point x="1253" y="222" type="line"/>
			<point x="1259" y="240"/>
			<point x="1264" y="258"/>
			<point x="1267" y="274" type="curve" smooth="yes"/>
			<point x="1296" y="412"/>
			<point x="1235" y="548"/>
			<point x="1057" y="548" type="curve" smooth="yes"/>
			<point x="1018" y="548"/>
			<point x="982" y="542"/>
			<point x="948" y="531" type="curve"/>
			<point x="991" y="735" type="line"/>
			<point x="811" y="735" type="line"/>
		</contour>
		<contour>
			<point x="910" y="332" type="line"/>
			<point x="936" y="398"/>
			<point x="975" y="426"/>
			<point x="1022" y="426" type="curve" smooth="yes"/>
			<point x="1070" y="426"/>
			<point x="1095" y="395"/>
			<point x="1091" y="332" type="curve"/>
		</contour>
	</outline>
</glyph>
<glyph name="X_C_E" format="2">
	<advance width="1382"/>
	<unicode hex="F5620"/>
	<outline>
		<contour>
			<point x="-42" y="0" type="line"/>
			<point x="175" y="0" type="line"/>
			<point x="356" y="230" type="line"/>
			<point x="361" y="69"/>
			<point x="472" y="-14"/>
			<point x="626" y="-14" type="curve" smooth="yes"/>
			<point x="746" y="-14"/>
			<point x="852" y="27"/>
			<point x="923" y="107" type="curve"/>
			<point x="1318" y="107" type="line"/>
			<point x="1348" y="247" type="line"/>
			<point x="819" y="247" type="line"/>
			<point x="815" y="237" type="line" smooth="yes"/>
			<point x="784" y="161"/>
			<point x="730" y="118"/>
			<point x="660" y="118" type="curve" smooth="yes"/>
			<point x="580" y="118"/>
			<point x="520" y="177"/>
			<point x="557" y="351" type="curve" smooth="yes"/>
			<point x="589" y="500"/>
			<point x="669" y="572"/>
			<point x="755" y="572" type="curve" smooth="yes"/>
			<point x="828" y="572"/>
			<point x="866" y="537"/>
			<point x="865" y="463" type="curve" smooth="yes"/>
			<point x="865" y="453" type="line"/>
			<point x="1364" y="453" type="line"/>
			<point x="1394" y="593" type="line"/>
			<point x="1075" y="593" type="line"/>
			<point x="1103" y="727" type="line"/>
			<point x="1442" y="727" type="line"/>
			<point x="1472" y="867" type="line"/>
			<point x="953" y="867" type="line"/>
			<point x="914" y="684" type="line"/>
			<point x="879" y="697"/>
			<point x="836" y="704"/>
			<point x="785" y="704" type="curve" smooth="yes"/>
			<point x="635" y="704"/>
			<point x="488" y="623"/>
			<point x="410" y="466" type="curve"/>
			<point x="331" y="690" type="line"/>
			<point x="121" y="690" type="line"/>
			<point x="279" y="348" type="line"/>
		</contour>
	</outline>
</glyph>
<glyph name="X_S_E" format="2">
	<advance width="1239"/>
	<unicode hex="F56B0"/>
	<outline>
		<contour>
			<point x="650" y="561" type="curve" smooth="yes"/>
			<point x="560" y="561"/>
			<point x="469" y="529"/>
			<point x="409" y="469" type="curve"/>
			<point x="331" y="690" type="line"/>
			<point x="121" y="690" type="line"/>
			<point x="279" y="348" type="line"/>
			<point x="-42" y="0" type="line"/>
			<point x="175" y="0" type="line"/>
			<point x="356" y="231" type="line"/>
			<point x="386" y="180"/>
			<point x="453" y="151"/>
			<point x="546" y="127" type="curve" smooth="yes"/>
			<point x="626" y="106"/>
			<point x="639" y="75"/>
			<point x="631" y="39" type="curve" smooth="yes"/>
			<point x="623" y="1"/>
			<point x="586" y="-25"/>
			<point x="536" y="-25" type="curve" smooth="yes"/>
			<point x="482" y="-25"/>
			<point x="435" y="3"/>
			<point x="437" y="68" type="curve"/>
			<point x="257" y="68" type="line"/>
			<point x="235" y="-87"/>
			<point x="338" y="-157"/>
			<point x="513" y="-157" type="curve" smooth="yes"/>
			<point x="540" y="-157"/>
			<point x="567" y="-154"/>
			<point x="592" y="-149" type="curve"/>
			<point x="548" y="-355" type="line"/>
			<point x="1077" y="-355" type="line"/>
			<point x="1107" y="-215" type="line"/>
			<point x="758" y="-215" type="line"/>
			<point x="787" y="-79" type="line"/>
			<point x="1106" y="-79" type="line"/>
			<point x="1136" y="61" type="line"/>
			<point x="817" y="61" type="line"/>
			<point x="845" y="195" type="line"/>
			<point x="1184" y="195" type="line"/>
			<point x="1214" y="335" type="line"/>
			<point x="875" y="335" type="line"/>
			<point x="887" y="463"/>
			<point x="832" y="561"/>
		</contour>
		<contour>
			<point x="536" y="367" type="curve" smooth="yes"/>
			<point x="545" y="409"/>
			<point x="577" y="429"/>
			<point x="618" y="429" type="curve" smooth="yes"/>
			<point x="677" y="429"/>
			<point x="699" y="391"/>
			<point x="695" y="334" type="curve"/>
			<point x="680" y="264" type="line"/>
			<point x="674" y="266"/>
			<point x="667" y="267"/>
			<point x="661" y="269" type="curve" smooth="yes"/>
			<point x="553" y="296"/>
			<point x="526" y="323"/>
		</contour>
	</outline>
</glyph>
<glyph name="x_c_e" format="2">
	<advance width="1216"/>
	<unicode hex="F5720"/>
	<outline>
		<contour>
			<point x="619" y="548" type="curve" smooth="yes"/>
			<point x="501" y="548"/>
			<point x="389" y="489"/>
			<point x="324" y="382" type="curve"/>
			<point x="273" y="534" type="line"/>
			<point x="63" y="534" type="line"/>
			<point x="186" y="271" type="line"/>
			<point x="-57" y="0" type="line"/>
			<point x="150" y="0" type="line"/>
			<point x="271" y="157" type="line"/>
			<point x="284" y="46"/>
			<point x="368" y="-14"/>
			<point x="488" y="-14" type="curve" smooth="yes"/>
			<point x="633" y="-14"/>
			<point x="755" y="58"/>
			<point x="804" y="196" type="curve"/>
			<point x="627" y="196" type="line"/>
			<point x="605" y="138"/>
			<point x="565" y="108"/>
			<point x="524" y="108" type="curve" smooth="yes"/>
			<point x="463" y="108"/>
			<point x="439" y="158"/>
			<point x="463" y="272" type="curve" smooth="yes"/>
			<point x="485" y="375"/>
			<point x="529" y="426"/>
			<point x="589" y="426" type="curve" smooth="yes"/>
			<point x="634" y="426"/>
			<point x="664" y="400"/>
			<point x="657" y="330" type="curve"/>
			<point x="1203" y="330" type="line"/>
			<point x="1209" y="348"/>
			<point x="1213" y="366"/>
			<point x="1217" y="382" type="curve" smooth="yes"/>
			<point x="1246" y="520"/>
			<point x="1185" y="656"/>
			<point x="1007" y="656" type="curve" smooth="yes"/>
			<point x="893" y="656"/>
			<point x="797" y="604"/>
			<point x="734" y="525" type="curve"/>
			<point x="703" y="540"/>
			<point x="664" y="548"/>
		</contour>
		<contour>
			<point x="860" y="440" type="line"/>
			<point x="886" y="506"/>
			<point x="925" y="534"/>
			<point x="972" y="534" type="curve" smooth="yes"/>
			<point x="1020" y="534"/>
			<point x="1045" y="503"/>
			<point x="1041" y="440" type="curve"/>
		</contour>
	</outline>
</glyph>
